<svg width="20" height="21" viewBox="0 0 20 21" fill="none" xmlns="http://www.w3.org/2000/svg">
<path d="M14.7826 6.44349L13.8235 4.52526V3.6582C14.165 3.53643 14.4118 3.2129 14.4118 2.82996V2.24173C14.4118 1.75526 14.0159 1.35938 13.5294 1.35938H11.1765C10.69 1.35938 10.2941 1.75526 10.2941 2.24173V2.82996C10.2941 3.2129 10.5409 3.53643 10.8824 3.6582V4.39555L6.29412 6.23085C5.50794 6.54526 5 7.29585 5 8.14261V17.5358C5 18.6711 5.92353 19.5947 7.05882 19.5947H12.9412C14.0765 19.5947 15 18.6711 15 17.5358V7.36437C15 7.04614 14.925 6.7279 14.7826 6.44349ZM10.8824 2.24173C10.8824 2.07967 11.0144 1.94761 11.1765 1.94761H13.5294C13.6915 1.94761 13.8235 2.07967 13.8235 2.24173V2.82996C13.8235 2.99202 13.6915 3.12408 13.5294 3.12408H11.1765C11.0144 3.12408 10.8824 2.99202 10.8824 2.82996V2.24173ZM6.51265 6.77702L11.4706 4.79379V3.71232H13.2353V4.66408L14.2565 6.70643C14.3579 6.90967 14.4118 7.13732 14.4118 7.36437V7.82996H7.35294V8.4182H14.4118V17.5358C14.4118 17.6364 14.4015 17.735 14.3821 17.83H5.61794C5.59853 17.735 5.58824 17.6364 5.58824 17.5358V8.4329L6.76824 8.4182L6.76118 7.82996L5.62206 7.84408C5.72 7.36643 6.04588 6.96379 6.51265 6.77702ZM12.9412 19.0064H7.05882C6.58029 19.0064 6.15853 18.7732 5.89 18.4182H14.1103C13.8415 18.7732 13.4197 19.0064 12.9412 19.0064Z" fill="#F47D21"/>
<path d="M10.0007 9.86328L8.17807 13.2048C8.02366 13.488 7.94189 13.8086 7.94189 14.1309C7.94189 15.1977 8.80984 16.0656 9.8766 16.0656H10.1251C11.1916 16.0656 12.0595 15.1977 12.0595 14.1309C12.0595 13.8083 11.9778 13.488 11.8234 13.2045L10.0007 9.86328ZM10.1248 15.4774H9.87631C9.13425 15.4774 8.53013 14.8733 8.53013 14.1309C8.53013 13.9065 8.58689 13.6836 8.69454 13.4862L10.0007 11.0915L11.3069 13.4862C11.4145 13.6836 11.4713 13.9065 11.4713 14.1309C11.4713 14.8733 10.8672 15.4774 10.1248 15.4774Z" fill="#F47D21"/>
<path d="M6.17603 17.2451H13.8231V9.00977H6.17603V17.2451ZM6.76426 9.598H13.2348V16.6568H6.76426V9.598Z" fill="#F47D21"/>
</svg>
