<svg width="20" height="21" viewBox="0 0 20 21" fill="none" xmlns="http://www.w3.org/2000/svg">
<path d="M7.37496 1.62708C6.81246 1.72083 6.34371 2.11145 5.73434 2.98645C5.35934 3.52551 5.16403 3.72864 4.92965 3.85364C4.85153 3.8927 4.50778 4.0177 4.16403 4.13489C3.37496 4.3927 3.0234 4.56458 2.73434 4.85364C2.48434 5.10364 2.35153 5.33801 2.24215 5.72864C2.17965 5.96301 2.16403 6.1427 2.15621 6.85364C2.1484 7.31458 2.12496 7.77551 2.10934 7.86926C2.06246 8.05676 1.88278 8.34583 1.46871 8.90051C1.03903 9.47864 0.82809 9.93176 0.789027 10.3927C0.742152 10.924 0.953089 11.4396 1.53121 12.2286C2.15621 13.0802 2.15621 13.088 2.15621 13.9786C2.1484 15.2521 2.2734 15.7365 2.74215 16.1974C3.03121 16.4865 3.38278 16.6583 4.15621 16.9083C4.49215 17.0177 4.85153 17.1505 4.94528 17.1974C5.17184 17.3146 5.37496 17.5333 5.76559 18.1036C6.36715 18.963 6.82028 19.3224 7.43746 19.4161C7.81246 19.4786 8.1484 19.4161 8.93746 19.1661C9.97653 18.8302 10.0156 18.8302 11.0547 19.1661C11.8437 19.424 12.1797 19.4786 12.5547 19.4161C13.1718 19.3224 13.6015 18.9865 14.2109 18.1193C14.8359 17.2286 14.8437 17.2286 16.0468 16.838C16.8359 16.5802 17.3437 16.2365 17.5781 15.7755C17.7812 15.3849 17.8203 15.1115 17.8359 14.1896C17.8437 13.6818 17.8593 13.2755 17.8906 13.1818C17.9453 12.963 18.0312 12.8224 18.4687 12.2286C19.4687 10.8615 19.4687 10.174 18.4687 8.80676C18.0312 8.21301 17.9453 8.06458 17.8906 7.85364C17.8672 7.75989 17.8437 7.34583 17.8359 6.84583C17.8281 6.13489 17.8125 5.9552 17.75 5.72083C17.6484 5.3302 17.5156 5.09583 17.2578 4.84583C16.9375 4.52551 16.625 4.37708 15.6172 4.05676C14.8906 3.82239 14.7968 3.75208 14.25 2.97864C13.6015 2.05676 13.1797 1.72083 12.5547 1.62708C12.1718 1.57239 11.8281 1.62708 11.039 1.8927C10.3906 2.11145 10.3593 2.11145 9.99215 2.11926C9.62496 2.11926 9.59371 2.11145 8.98434 1.90833C8.13278 1.61145 7.81246 1.55676 7.37496 1.62708ZM8.78903 2.4552C9.92965 2.8302 10.0859 2.8302 11.2187 2.4552C11.8672 2.23645 11.914 2.22864 12.2734 2.22864C12.625 2.22864 12.664 2.22864 12.8359 2.32239C13.1484 2.50208 13.3593 2.72864 13.9531 3.56458C14.2109 3.93176 14.5468 4.25989 14.7812 4.37708C14.8828 4.42395 15.1718 4.53333 15.4297 4.61926C16.6797 5.02551 16.9375 5.18176 17.1484 5.73645C17.2187 5.92395 17.2343 6.03333 17.25 6.90833C17.289 8.18958 17.2968 8.23645 17.9297 9.08801C18.4843 9.8302 18.6172 10.1115 18.6172 10.5333C18.6172 10.9552 18.4765 11.2521 17.8906 12.0333C17.3047 12.8224 17.289 12.8927 17.25 14.1349C17.2187 15.1505 17.2031 15.2755 17.0156 15.588C16.8281 15.9083 16.5156 16.0802 15.6015 16.3771C15.2656 16.4865 14.9062 16.6193 14.8125 16.6661C14.4609 16.8458 14.2031 17.1115 13.75 17.7755C13.4609 18.2052 13.0937 18.588 12.8515 18.7286C12.6718 18.8224 12.6328 18.8302 12.2812 18.8302C11.914 18.8302 11.875 18.8224 11.2187 18.6036C10.0781 18.2286 9.93746 18.2286 8.78903 18.6036C8.14059 18.8224 8.10153 18.8302 7.73434 18.8302C7.41403 18.8302 7.3359 18.8224 7.2109 18.7521C6.87496 18.5724 6.62496 18.3068 6.17965 17.6505C5.87496 17.1974 5.51559 16.8302 5.25778 16.6896C5.14059 16.6271 4.76559 16.4865 4.42184 16.3771C3.49215 16.0724 3.17965 15.9005 2.99996 15.588C2.80465 15.2599 2.79684 15.174 2.76559 14.1427C2.73434 12.8536 2.72653 12.838 2.0234 11.8849C1.8359 11.6349 1.62496 11.3146 1.55465 11.1661C1.43746 10.9396 1.41403 10.8615 1.40621 10.6036C1.38278 10.1271 1.49215 9.87708 2.07809 9.0802C2.41403 8.62708 2.60934 8.28333 2.69528 8.0177C2.71871 7.93176 2.74996 7.47083 2.76559 6.90051C2.78903 6.02551 2.80465 5.90833 2.86715 5.72864C3.07809 5.19739 3.39059 4.98645 4.53121 4.62708C5.38278 4.36145 5.60934 4.18958 6.2109 3.34583C6.90621 2.36926 7.17184 2.18176 7.78903 2.2052C8.06246 2.22864 8.20309 2.25989 8.78903 2.4552Z" fill="#F47D21"/>
<path d="M9.89844 3.29917C9.88281 3.3226 9.8125 3.43979 9.75781 3.56479L9.64844 3.79135L9.4375 3.81479C9.14844 3.84604 9.0625 3.86948 9.0625 3.91635C9.0625 3.93979 9.15625 4.04917 9.25781 4.15854L9.45312 4.35385L9.41406 4.59604C9.35156 4.96323 9.36719 4.97885 9.67969 4.8226L9.9375 4.68198L10.1953 4.81479C10.3359 4.8851 10.4688 4.93198 10.4766 4.91635C10.4922 4.90073 10.4844 4.76792 10.4531 4.61167L10.4062 4.33042L10.6016 4.14292C10.7031 4.04135 10.7891 3.93198 10.7891 3.90854C10.7891 3.86167 10.7109 3.83823 10.4219 3.80698L10.2188 3.78354L10.0937 3.53354C9.96875 3.25229 9.95312 3.22885 9.89844 3.29917Z" fill="#F47D21"/>
<path d="M6.22656 4.5183L6.24219 4.81518L6.03125 4.97924C5.91406 5.07299 5.82812 5.16674 5.82812 5.19799C5.82812 5.22924 5.9375 5.27612 6.10156 5.32299L6.36719 5.3933L6.46094 5.65112C6.50781 5.79174 6.57813 5.91674 6.60156 5.91674C6.625 5.91674 6.71094 5.81518 6.78906 5.68237L6.9375 5.44799H7.16406C7.39062 5.44799 7.54688 5.41674 7.54688 5.37768C7.54688 5.36987 7.46094 5.25268 7.35937 5.13549L7.1875 4.90893L7.25781 4.6433C7.30469 4.50268 7.33594 4.36205 7.33594 4.35424C7.33594 4.31518 7.22656 4.33862 6.95313 4.44018L6.73437 4.52612L6.51563 4.37768C6.21094 4.15893 6.20312 4.16674 6.22656 4.5183Z" fill="#F47D21"/>
<path d="M13.3359 4.41676L13.1015 4.57301L12.8437 4.47144C12.6875 4.40894 12.5703 4.37769 12.5468 4.39332C12.5312 4.40894 12.5468 4.53394 12.5937 4.68238C12.6328 4.82301 12.6562 4.96363 12.6406 4.98707C12.625 5.01051 12.539 5.11988 12.4531 5.22144C12.3593 5.33863 12.3047 5.42457 12.3203 5.44801C12.3359 5.46363 12.4765 5.48707 12.625 5.49488L12.8984 5.50269L13.0468 5.73707C13.1328 5.86988 13.2187 5.97144 13.2422 5.97144C13.2656 5.97144 13.3281 5.86988 13.375 5.73707C13.4843 5.45582 13.5 5.42457 13.6484 5.40113C13.914 5.34644 14.039 5.29957 14.039 5.25269C14.039 5.22926 13.9453 5.12769 13.8203 5.03394L13.6093 4.86207L13.6328 4.58082C13.6406 4.41676 13.6406 4.29176 13.6172 4.28394C13.5937 4.27613 13.4765 4.33082 13.3359 4.41676Z" fill="#F47D21"/>
<path d="M9.26547 5.61069C8.17172 5.79037 7.22641 6.26694 6.47641 7.02475C4.97641 8.54037 4.60141 10.8294 5.55454 12.7357C6.24985 14.1341 7.5311 15.1029 9.08579 15.4154C9.52329 15.5013 10.4764 15.5013 10.9061 15.4154C12.9374 15.0091 14.4764 13.4701 14.8827 11.4388C14.9295 11.2122 14.9452 10.9466 14.9452 10.5247C14.9452 10.1029 14.9295 9.83725 14.8827 9.61069C14.4842 7.61069 12.9842 6.07944 11.0077 5.65756C10.5545 5.56381 9.71079 5.53256 9.26547 5.61069ZM10.8827 6.2435C12.617 6.57944 14.0077 8.00912 14.3123 9.76694C14.3827 10.1497 14.3827 10.8997 14.3123 11.2904C14.0077 13.0482 12.6248 14.4622 10.8748 14.8138C10.3592 14.9154 9.6561 14.9154 9.14047 14.8138C7.42172 14.4622 6.07016 13.1107 5.7186 11.3919C5.56235 10.6107 5.64047 9.67319 5.92172 8.95444C6.71079 6.93881 8.75766 5.82162 10.8827 6.2435Z" fill="#F47D21"/>
<path d="M6.82812 10.7285V11.6504H7.20312C7.40625 11.6504 7.61719 11.6348 7.66406 11.6113C7.80469 11.5488 7.85156 11.416 7.85156 11.127C7.85156 10.8457 7.78906 10.7129 7.64063 10.7129C7.57813 10.7129 7.58594 10.7051 7.67969 10.6426C7.95312 10.4785 7.92969 9.98633 7.64063 9.86133C7.55469 9.82227 7.39063 9.80664 7.17188 9.80664H6.82812V10.7285ZM7.38281 10.1191C7.44531 10.1816 7.46094 10.3926 7.40625 10.4941C7.38281 10.5332 7.32812 10.5645 7.28125 10.5645C7.19531 10.5645 7.1875 10.5566 7.1875 10.3379C7.1875 10.2129 7.19531 10.0957 7.21094 10.0879C7.25781 10.041 7.32812 10.0566 7.38281 10.1191ZM7.38281 10.8691C7.44531 10.9316 7.46094 11.2129 7.40625 11.3223C7.38281 11.3613 7.32812 11.3926 7.28125 11.3926C7.19531 11.3926 7.1875 11.3848 7.1875 11.127C7.1875 10.9785 7.19531 10.8457 7.21094 10.8379C7.25781 10.7988 7.32812 10.8145 7.38281 10.8691Z" fill="#F47D21"/>
<path d="M8.125 10.7207V11.6426H8.32031H8.51562V11.2285C8.51562 10.8457 8.51563 10.8145 8.58594 10.8145C8.72656 10.8145 8.77344 10.9082 8.77344 11.2285C8.77344 11.6426 8.77344 11.6426 9.02344 11.6426H9.22656L9.21875 11.291C9.20312 10.877 9.14844 10.7207 9.01563 10.6816L8.92187 10.6582L9.03125 10.5879C9.17969 10.4941 9.24219 10.2832 9.17969 10.0879C9.11719 9.86133 9.01563 9.82227 8.53906 9.80664L8.13281 9.79883V10.7207H8.125ZM8.69531 10.1191C8.79688 10.1895 8.80469 10.3926 8.69531 10.4941C8.58594 10.6035 8.53906 10.5645 8.52344 10.3457C8.50781 10.0566 8.54688 10.0098 8.69531 10.1191Z" fill="#F47D21"/>
<path d="M9.73427 9.86911C9.72646 9.90817 9.65615 10.2832 9.58583 10.705C9.51552 11.1269 9.44521 11.5175 9.44521 11.5566C9.42959 11.6347 9.4374 11.6425 9.60146 11.6425C9.77334 11.6425 9.78115 11.6425 9.79677 11.5332C9.80459 11.4707 9.82802 11.3769 9.84365 11.3144C9.85927 11.2207 9.88271 11.205 9.98427 11.205C10.0936 11.205 10.1093 11.2129 10.1093 11.3066C10.1093 11.3613 10.1171 11.4629 10.1327 11.5254C10.1561 11.6347 10.1561 11.6347 10.3671 11.6347C10.5702 11.6347 10.578 11.6347 10.5624 11.5488C10.5546 11.5019 10.5077 11.1347 10.453 10.7285C10.3202 9.6738 10.3749 9.79098 10.039 9.79098C9.79677 9.80661 9.7499 9.81442 9.73427 9.86911ZM10.039 10.7129C10.0546 10.9082 10.0468 10.9238 9.97646 10.9238C9.90615 10.9238 9.89052 10.9082 9.90615 10.8222C9.91396 10.7675 9.92959 10.5957 9.94521 10.4394L9.96865 10.1504L9.9999 10.33C10.0155 10.4238 10.039 10.6035 10.039 10.7129Z" fill="#F47D21"/>
<path d="M10.7187 10.7285V11.6504H10.9141H11.1094V10.9004V10.1582L11.25 10.8223C11.3281 11.1895 11.3984 11.5254 11.4062 11.5645C11.4219 11.6426 11.4453 11.6504 11.6953 11.6504H11.9687V10.7285V9.80664H11.8047H11.6406L11.6328 10.4629L11.625 11.1191L11.5078 10.5254C11.4453 10.1973 11.3828 9.90039 11.3672 9.86914C11.3516 9.82227 11.3047 9.80664 11.0234 9.80664H10.7031L10.7187 10.7285Z" fill="#F47D21"/>
<path d="M12.1641 10.7207V11.6426H12.5625C12.9844 11.6426 13.0938 11.6113 13.2266 11.4629C13.2891 11.3926 13.2969 11.3223 13.3125 10.8145C13.3281 9.90039 13.2812 9.83008 12.5938 9.80664L12.1641 9.79102V10.7207ZM12.8281 10.1191C12.875 10.166 12.8828 10.2754 12.8828 10.7441C12.8828 11.3301 12.8672 11.3926 12.7344 11.3926C12.6719 11.3926 12.6719 11.3457 12.6719 10.7285C12.6719 10.1738 12.6797 10.0645 12.7188 10.0645C12.7422 10.0566 12.7969 10.0801 12.8281 10.1191Z" fill="#F47D21"/>
<path d="M4.39063 6.56547C4.07031 6.93266 4.13281 6.89359 3.8125 6.89359C3.61719 6.88578 3.51562 6.89359 3.51562 6.92484C3.51562 6.94828 3.57812 7.06547 3.65625 7.17484C3.73437 7.29203 3.79687 7.40922 3.79687 7.42484C3.79687 7.44828 3.75 7.56547 3.70313 7.70609C3.64844 7.84672 3.61719 7.95609 3.64062 7.97172C3.66406 7.99516 3.76562 7.97953 3.90625 7.93266C4.03906 7.89359 4.15625 7.86234 4.17969 7.86234C4.20312 7.86234 4.3125 7.94047 4.42187 8.02641C4.6875 8.25297 4.73437 8.22953 4.73437 7.88578V7.62016L4.96875 7.47172C5.10156 7.38578 5.20312 7.29984 5.20312 7.27641C5.20312 7.25297 5.08594 7.18266 4.9375 7.13578L4.67188 7.04203L4.60938 6.77641C4.57031 6.62797 4.53125 6.49516 4.51562 6.48734C4.50781 6.46391 4.44531 6.50297 4.39063 6.56547Z" fill="#F47D21"/>
<path d="M15.1952 6.83789L15.1249 7.11133L14.8905 7.19727C14.5233 7.33789 14.5233 7.35352 14.8045 7.5332L15.0467 7.68945L15.0624 7.97852C15.0702 8.17383 15.0936 8.26758 15.1249 8.26758C15.1483 8.26758 15.2655 8.18945 15.3749 8.0957L15.578 7.93164L15.8592 8.00977C16.0077 8.04883 16.1483 8.07227 16.1639 8.05664C16.1717 8.04102 16.1405 7.92383 16.0936 7.7832C16.0389 7.65039 15.9999 7.51758 15.9999 7.49414C15.9999 7.4707 16.0624 7.35352 16.1405 7.22852C16.2264 7.11133 16.2811 6.99414 16.2655 6.97852C16.2498 6.95508 16.1483 6.94727 15.9686 6.96289L15.6874 6.98633L15.5155 6.76758C15.4217 6.64258 15.328 6.54883 15.2967 6.54883C15.2889 6.56445 15.242 6.66602 15.1952 6.83789Z" fill="#F47D21"/>
<path d="M3.12491 9.74353C3.10147 9.76697 3.07803 9.89978 3.06241 10.0326L3.03897 10.2748L2.78116 10.4154C2.64053 10.4857 2.52334 10.5638 2.51553 10.5873C2.50772 10.6107 2.61709 10.681 2.75772 10.7513C3.03116 10.8842 3.03116 10.8842 3.06241 11.1888C3.10147 11.517 3.11709 11.517 3.36709 11.2826L3.57803 11.0717L3.81241 11.1107C4.22647 11.181 4.23428 11.1654 4.04678 10.8217L3.92178 10.5951L4.04678 10.3685C4.20303 10.0873 4.20303 10.0092 4.06241 10.0404C4.00772 10.0482 3.87491 10.0717 3.77334 10.0873L3.58584 10.1107L3.38272 9.90759C3.21084 9.73572 3.15616 9.70447 3.12491 9.74353Z" fill="#F47D21"/>
<path d="M16.3905 10.0025L16.1796 10.2135L15.8983 10.1666C15.7421 10.1431 15.6092 10.1275 15.5936 10.1431C15.5858 10.1588 15.6327 10.2838 15.7108 10.4244L15.8514 10.69L15.7108 10.9322C15.6249 11.0806 15.5858 11.19 15.6092 11.2135C15.6327 11.2369 15.7499 11.2291 15.9217 11.2056L16.1952 11.1588L16.3905 11.3697C16.5155 11.5103 16.5936 11.5728 16.6249 11.5494C16.6405 11.5338 16.6796 11.3931 16.703 11.2447L16.7421 10.9713L16.9921 10.8541C17.1327 10.7838 17.2421 10.7135 17.2421 10.6822C17.2421 10.6588 17.1327 10.5806 16.9921 10.5103C16.8514 10.44 16.7421 10.3697 16.7421 10.3541C16.7421 10.2525 16.6561 9.85408 16.6327 9.83065C16.6092 9.80721 16.5155 9.87752 16.3905 10.0025Z" fill="#F47D21"/>
<path d="M4.37485 13.1582L4.17172 13.3379L3.92172 13.2676C3.7811 13.2207 3.6561 13.1895 3.63266 13.1895C3.57016 13.1895 3.58579 13.2754 3.68735 13.5254L3.7811 13.7598L3.63266 13.9785C3.41391 14.2988 3.42172 14.3223 3.7811 14.2988L4.07797 14.2754L4.24204 14.4941C4.33579 14.6191 4.42954 14.7051 4.45297 14.7051C4.48422 14.6973 4.5311 14.5957 4.57016 14.4473C4.60922 14.3145 4.64829 14.1895 4.66391 14.166C4.67954 14.1504 4.79672 14.1035 4.92172 14.0488C5.05454 14.002 5.16391 13.9473 5.17172 13.9238C5.17954 13.9004 5.07797 13.8145 4.95297 13.7363L4.7186 13.5879L4.69516 13.2832C4.67954 13.0957 4.64829 12.9785 4.62485 12.9785C4.5936 12.9785 4.48422 13.0566 4.37485 13.1582Z" fill="#F47D21"/>
<path d="M15.0468 13.252C15.0468 13.6192 15.0233 13.6661 14.7733 13.8145C14.4686 13.9942 14.4765 14.0176 14.8749 14.1661C15.0624 14.2286 15.0858 14.252 15.1171 14.3692C15.1327 14.4395 15.1718 14.5723 15.1952 14.6504C15.2186 14.7364 15.2499 14.8067 15.2655 14.8067C15.2811 14.8067 15.3749 14.7129 15.4686 14.5879L15.6405 14.3692H15.9374C16.1405 14.3692 16.2343 14.3536 16.2343 14.3223C16.2343 14.2989 16.1718 14.1817 16.0936 14.0567L15.953 13.8379L16.0468 13.6036C16.1874 13.2676 16.164 13.2442 15.828 13.3301L15.5546 13.4004L15.3515 13.2364C15.0858 13.0411 15.0468 13.0411 15.0468 13.252Z" fill="#F47D21"/>
<path d="M6.47645 15.3223C6.46083 15.3457 6.40614 15.4707 6.35926 15.6035L6.26551 15.8379L6.01551 15.9004C5.7577 15.9629 5.66395 16.0176 5.72645 16.0723C5.74989 16.0879 5.85145 16.1738 5.96083 16.2598L6.14833 16.416L6.1327 16.6973C6.12489 16.8535 6.1327 16.9863 6.14833 17.002C6.16395 17.0176 6.28895 16.9551 6.42176 16.8613L6.66395 16.6973L6.91395 16.7988C7.05458 16.8535 7.17958 16.9004 7.1952 16.9004C7.24208 16.9004 7.23426 16.7988 7.16395 16.5332L7.10145 16.2988L7.27333 16.0957C7.49989 15.8223 7.48426 15.7832 7.1327 15.7832H6.85926L6.6952 15.5332C6.60145 15.3926 6.52333 15.2832 6.51551 15.2832C6.51551 15.2832 6.49989 15.3066 6.47645 15.3223Z" fill="#F47D21"/>
<path d="M12.9687 15.5879C12.8281 15.8145 12.8203 15.8223 12.6641 15.8223C12.4297 15.8223 12.2344 15.8613 12.2344 15.9082C12.2344 15.9238 12.3125 16.0332 12.4062 16.1426L12.5781 16.3379L12.5312 16.541C12.4453 16.9082 12.4453 16.9395 12.4922 16.9395C12.5156 16.9395 12.6484 16.8926 12.7812 16.8457L13.0234 16.752L13.25 16.9004C13.375 16.9863 13.4922 17.041 13.5234 17.0332C13.5625 17.0254 13.5703 16.9473 13.5547 16.7363L13.5391 16.4551L13.7578 16.2832C13.8828 16.1895 13.9766 16.0957 13.9687 16.0645C13.9609 16.041 13.8359 15.9941 13.6875 15.9551L13.4141 15.8926L13.3125 15.6191C13.2578 15.4707 13.1953 15.3535 13.1719 15.3535C13.1328 15.3535 13.0547 15.4629 12.9687 15.5879Z" fill="#F47D21"/>
<path d="M9.2813 16.4248C9.2813 16.4561 9.29692 16.5889 9.32036 16.7139L9.35942 16.9483L9.14849 17.1592C9.0313 17.2764 8.95317 17.3779 8.96099 17.3936C8.97661 17.4014 9.10942 17.4326 9.25786 17.4561L9.53911 17.5029L9.67192 17.7529C9.74224 17.8936 9.82036 18.0029 9.8438 18.0029C9.86724 18.0029 9.93755 17.8936 10.0079 17.7529L10.1329 17.5029L10.3829 17.4639C10.7579 17.4092 10.7657 17.4014 10.5235 17.1592L10.3125 16.9483L10.336 16.7608C10.3516 16.6592 10.375 16.5264 10.3829 16.4717C10.4063 16.3311 10.3516 16.3311 10.0547 16.4795L9.82036 16.5967L9.60942 16.4795C9.36724 16.3467 9.2813 16.3389 9.2813 16.4248Z" fill="#F47D21"/>
</svg>
