<svg width="21" height="20" viewBox="0 0 21 20" fill="none" xmlns="http://www.w3.org/2000/svg">
<path d="M18.8084 15.2743C18.8084 15.5743 18.7417 15.8827 18.6001 16.1827C18.4584 16.4827 18.2751 16.766 18.0334 17.0327C17.6251 17.4827 17.1751 17.8077 16.6667 18.016C16.1667 18.2243 15.6251 18.3327 15.0417 18.3327C14.1917 18.3327 13.2834 18.1327 12.3251 17.7243C11.3667 17.316 10.4084 16.766 9.45842 16.0743C8.50008 15.3743 7.59175 14.5993 6.72508 13.741C5.86675 12.8743 5.09175 11.966 4.40008 11.016C3.71675 10.066 3.16675 9.11602 2.76675 8.17435C2.36675 7.22435 2.16675 6.31602 2.16675 5.44935C2.16675 4.88268 2.26675 4.34102 2.46675 3.84102C2.66675 3.33268 2.98341 2.86602 3.42508 2.44935C3.95841 1.92435 4.54175 1.66602 5.15842 1.66602C5.39175 1.66602 5.62508 1.71602 5.83342 1.81602C6.05008 1.91602 6.24175 2.06602 6.39175 2.28268L8.32508 5.00768C8.47508 5.21602 8.58342 5.40768 8.65841 5.59102C8.73342 5.76602 8.77508 5.94102 8.77508 6.09935C8.77508 6.29935 8.71675 6.49935 8.60008 6.69102C8.49175 6.88268 8.33342 7.08268 8.13341 7.28268L7.50008 7.94102C7.40841 8.03268 7.36675 8.14102 7.36675 8.27435C7.36675 8.34102 7.37508 8.39935 7.39175 8.46602C7.41675 8.53268 7.44175 8.58268 7.45842 8.63268C7.60842 8.90768 7.86675 9.26602 8.23341 9.69935C8.60841 10.1327 9.00841 10.5743 9.44175 11.016C9.89175 11.4577 10.3251 11.866 10.7667 12.241C11.2001 12.6077 11.5584 12.8577 11.8417 13.0077C11.8834 13.0243 11.9334 13.0493 11.9917 13.0743C12.0584 13.0993 12.1251 13.1077 12.2001 13.1077C12.3417 13.1077 12.4501 13.0577 12.5417 12.966L13.1751 12.341C13.3834 12.1327 13.5834 11.9743 13.7751 11.8743C13.9667 11.7577 14.1584 11.6993 14.3667 11.6993C14.5251 11.6993 14.6917 11.7327 14.8751 11.8077C15.0584 11.8827 15.2501 11.991 15.4584 12.1327L18.2167 14.091C18.4334 14.241 18.5834 14.416 18.6751 14.6243C18.7584 14.8327 18.8084 15.041 18.8084 15.2743Z" fill="white"/>
</svg>
