<svg width="24" height="25" viewBox="0 0 24 25" fill="none" xmlns="http://www.w3.org/2000/svg">
<path d="M22 13.6682C22 10.6206 21.4444 7.95396 20.8889 7.57301C20.5329 7.32885 18.8076 7.08471 16.4444 6.94084C15.1203 6.86023 17.5556 4.52539 12 4.52539C6.44444 4.52539 8.87964 6.86023 7.55556 6.94084C5.1924 7.08471 3.46717 7.32885 3.11111 7.57301C2.55556 7.95396 2 10.6206 2 13.6682C2 16.7159 2.55556 19.3825 3.11111 19.7634C3.66667 20.1445 7.55556 20.5254 12 20.5254C16.4444 20.5254 20.3333 20.1445 20.8889 19.7634C21.4444 19.3825 22 16.7159 22 13.6682Z" stroke="#333333" stroke-linecap="round" stroke-linejoin="round"/>
<path d="M12 16.5254C13.6569 16.5254 15 15.1823 15 13.5254C15 11.8685 13.6569 10.5254 12 10.5254C10.3431 10.5254 9 11.8685 9 13.5254C9 15.1823 10.3431 16.5254 12 16.5254Z" stroke="#333333" stroke-linecap="round" stroke-linejoin="round"/>
</svg>
