<svg width="40" height="41" viewBox="0 0 40 41" fill="none" xmlns="http://www.w3.org/2000/svg">
<path d="M36.875 34.9004V37.4004C36.875 38.0879 36.3125 38.6504 35.625 38.6504H34.375C33.6875 38.6504 33.125 38.0879 33.125 37.4004V34.9004" stroke="#263238" stroke-miterlimit="10" stroke-linecap="round" stroke-linejoin="round"/>
<path d="M38.125 34.9004H20.625" stroke="#263238" stroke-miterlimit="10" stroke-linecap="round" stroke-linejoin="round"/>
<path d="M24.375 26.1504C35 26.1504 38.125 26.8791 38.125 29.9004V31.3854" stroke="#263238" stroke-miterlimit="10" stroke-linecap="round" stroke-linejoin="round"/>
<path d="M33.125 32.4004V31.1504C33.125 30.4629 33.6875 29.9004 34.375 29.9004H38.125V32.4004H33.125Z" stroke="#263238" stroke-miterlimit="10" stroke-linecap="round" stroke-linejoin="round"/>
<path d="M23.125 29.9004H28.125C29.505 29.9004 30.625 31.0204 30.625 32.4004" stroke="#263238" stroke-miterlimit="10" stroke-linecap="round" stroke-linejoin="round"/>
<path d="M35.7113 27.0337L33.525 20.4637C33.2988 19.8012 32.5738 19.1887 31.8863 19.1012C30.9175 18.9787 29.42 18.8249 27.5813 18.7324" stroke="#263238" stroke-miterlimit="10" stroke-linecap="round" stroke-linejoin="round"/>
<path d="M10.5487 2.83789C11.5675 2.55164 12.6412 2.40039 13.75 2.40039C20.3062 2.40039 25.625 7.71789 25.625 14.2754C25.625 24.3541 13.75 38.6504 13.75 38.6504C13.75 38.6504 1.875 24.3541 1.875 14.2754C1.875 10.9041 3.28125 7.85914 5.53875 5.69914" fill="#F47D21"/>
<path d="M10.5488 2.83789C11.5675 2.55164 12.6412 2.40039 13.75 2.40039C20.3062 2.40039 25.625 7.71789 25.625 14.2754C25.625 24.3541 13.75 38.6504 13.75 38.6504C13.75 38.6504 1.875 24.3541 1.875 14.2754C1.875 10.9041 3.28125 7.85914 5.53875 5.69914" stroke="#263238" stroke-miterlimit="10" stroke-linecap="round" stroke-linejoin="round"/>
<path d="M13.75 21.1504C17.547 21.1504 20.625 18.0723 20.625 14.2754C20.625 10.4784 17.547 7.40039 13.75 7.40039C9.95304 7.40039 6.875 10.4784 6.875 14.2754C6.875 18.0723 9.95304 21.1504 13.75 21.1504Z" fill="white" stroke="#263238" stroke-miterlimit="10" stroke-linecap="round" stroke-linejoin="round"/>
<path d="M4.375 38.6504H13.75" stroke="#263238" stroke-miterlimit="10" stroke-linecap="round" stroke-linejoin="round"/>
<path d="M2 38.6504H1.875" stroke="#263238" stroke-miterlimit="10" stroke-linecap="round" stroke-linejoin="round"/>
<path d="M20.625 38.6504H34.375" stroke="#263238" stroke-miterlimit="10" stroke-linecap="round" stroke-linejoin="round"/>
<path d="M2 38.6504H1.875" stroke="#263238" stroke-miterlimit="10" stroke-linecap="round" stroke-linejoin="round"/>
<path d="M8.22121 3.66016L8.11621 3.72891" stroke="#263238" stroke-miterlimit="10" stroke-linecap="round" stroke-linejoin="round"/>
<path d="M8.22121 3.66016L8.11621 3.72891" stroke="#263238" stroke-miterlimit="10" stroke-linecap="round" stroke-linejoin="round"/>
</svg>
