<svg width="20" height="21" viewBox="0 0 20 21" fill="none" xmlns="http://www.w3.org/2000/svg">
<path d="M19.1666 11.1359H17.9838V10.5803H16.801V10.1636L15.421 9.19141H14.4354V6.13585C14.4354 5.67641 14.0374 5.30252 13.5483 5.30252H13.2526V5.02474C13.2526 4.5653 12.8546 4.19141 12.3655 4.19141H4.08594C3.70094 4.19141 3.37567 4.42446 3.25325 4.74696H0.833252V6.41363H3.19884V7.57585C2.85554 7.69085 2.60745 7.99641 2.60745 8.35807V10.3025H0.833252V14.747H2.60745V15.0247C2.60745 15.4842 3.00546 15.8581 3.49454 15.8581H12.3655C12.7505 15.8581 13.0758 15.625 13.1982 15.3025H13.5483C13.9333 15.3025 14.2586 15.0695 14.381 14.747H15.4213L16.801 13.7747V13.3581H17.9838V12.8025H19.1666V11.1359ZM12.6612 5.02474V5.30252H11.4784V7.52474H4.97304V4.74696H12.3655C12.5284 4.74696 12.6612 4.87141 12.6612 5.02474ZM4.08594 4.74696H4.38164V7.52474H3.79024V5.02474C3.79024 4.87141 3.92301 4.74696 4.08594 4.74696ZM1.42465 5.85807V5.30252H3.19884V5.85807H1.42465ZM2.60745 10.8581V11.5681C2.43269 11.4725 2.2325 11.4136 2.01605 11.4136C1.7996 11.4136 1.59941 11.4725 1.42465 11.5681V10.8581H2.60745ZM2.60745 12.5247C2.60745 12.8311 2.3422 13.0803 2.01605 13.0803C1.68989 13.0803 1.42465 12.8311 1.42465 12.5247C1.42465 12.2184 1.68989 11.9692 2.01605 11.9692C2.3422 11.9692 2.60745 12.2184 2.60745 12.5247ZM1.42465 14.1914V13.4814C1.59941 13.577 1.7996 13.6359 2.01605 13.6359C2.2325 13.6359 2.43269 13.577 2.60745 13.4814V14.1914H1.42465ZM12.6612 15.0247C12.6612 15.1781 12.5284 15.3025 12.3655 15.3025H4.97304V8.91363H4.38164V15.3025H3.49454C3.33161 15.3025 3.19884 15.1781 3.19884 15.0247V8.35807C3.19884 8.20474 3.33161 8.0803 3.49454 8.0803H10.887V14.747H11.4784V8.0803H12.3655C12.5284 8.0803 12.6612 8.20474 12.6612 8.35807V15.0247ZM13.844 14.4692C13.844 14.6225 13.7112 14.747 13.5483 14.747H13.2526V8.35807C13.2526 7.89863 12.8546 7.52474 12.3655 7.52474H12.0698V5.85807H13.5483C13.7112 5.85807 13.844 5.98252 13.844 6.13585V14.4692ZM16.2096 13.497L15.224 14.1914H14.4354V9.74696H15.224L16.2096 10.4414V13.497ZM17.3924 12.8025H16.801V11.1359H17.3924V12.8025ZM18.5752 12.247H17.9838V11.6914H18.5752V12.247Z" fill="#F47D21"/>
</svg>
