<svg width="20" height="21" viewBox="0 0 20 21" fill="none" xmlns="http://www.w3.org/2000/svg">
<path d="M10.0001 1.69141C11.1287 1.69141 12.2054 1.91822 13.1864 2.32676C14.2057 2.75306 15.1239 3.37611 15.8918 4.15083C16.6596 4.92554 17.2786 5.84919 17.7008 6.87668C18.108 7.86592 18.332 8.94943 18.332 10.0862C18.332 11.223 18.108 12.3065 17.7008 13.2958C17.2786 14.3233 16.6596 15.2469 15.8918 16.0216C15.1239 16.7963 14.2057 17.4194 13.1864 17.8457C12.204 18.2556 11.1287 18.481 10.0001 18.481C8.87148 18.481 7.7948 18.2542 6.81377 17.8457C5.79447 17.4194 4.87629 16.7963 4.10841 16.0216C3.33915 15.2469 2.7202 14.3219 2.298 13.2958C1.89083 12.3065 1.66675 11.223 1.66675 10.0862C1.66675 8.94943 1.89083 7.86592 2.298 6.87668C2.7202 5.84919 3.33915 4.92554 4.10704 4.15083C4.87492 3.37611 5.79311 2.75306 6.8124 2.32676C7.7948 1.91822 8.87148 1.69141 10.0001 1.69141ZM6.6826 2.9703C6.46398 3.07415 6.25083 3.18755 6.04315 3.31052C5.84093 3.43076 5.64418 3.56056 5.45425 3.6972L6.03358 3.93358C6.1019 3.9609 6.15246 4.01419 6.17842 4.07704C6.20438 4.13989 6.20711 4.21231 6.17978 4.28063C6.15246 4.34895 6.09917 4.3995 6.03632 4.42546C5.97346 4.45142 5.90105 4.45415 5.83273 4.42683L4.97193 4.07568C4.88859 4.14673 4.80661 4.21914 4.72736 4.29293C4.64538 4.36944 4.56476 4.44732 4.48415 4.52794C4.39124 4.62085 4.30243 4.71649 4.21498 4.8135C4.13437 4.90368 4.05512 4.99523 3.9786 5.0895L4.5675 5.16465C4.63991 5.17422 4.70276 5.21248 4.74512 5.26576C4.78748 5.31905 4.80797 5.3901 4.79841 5.46252C4.78884 5.53493 4.75059 5.59778 4.6973 5.64014C4.64401 5.6825 4.57296 5.70299 4.50055 5.69343L3.60832 5.58002C3.47169 5.77541 3.34462 5.97899 3.22575 6.18668C3.11097 6.38753 3.00577 6.59521 2.90875 6.807L3.46896 6.73048C3.54137 6.72092 3.61242 6.74141 3.66571 6.7824C3.72036 6.82339 3.75862 6.88625 3.76819 6.95866C3.77775 7.03108 3.75725 7.10076 3.71626 7.15542C3.67527 7.21007 3.61242 7.24833 3.54001 7.25789L2.67784 7.37676C2.59586 7.59948 2.52481 7.82629 2.46333 8.05857C2.40457 8.28128 2.35539 8.50673 2.31576 8.73628L2.81584 8.52723C2.88416 8.49853 2.95658 8.4999 3.0208 8.52586C3.08365 8.55182 3.1383 8.60237 3.16563 8.66933C3.19432 8.73764 3.19295 8.81006 3.16699 8.87428C3.14103 8.93713 3.09048 8.99178 3.02353 9.01911L2.23651 9.34976C2.22558 9.47 2.21738 9.59024 2.21192 9.71185C2.20645 9.83482 2.20372 9.96052 2.20372 10.0862C2.20372 10.2051 2.20645 10.3226 2.21192 10.4387C2.21602 10.5453 2.22285 10.6519 2.23241 10.7571L2.65188 10.4333C2.71064 10.3882 2.78168 10.3718 2.84864 10.38C2.91695 10.3882 2.98117 10.4237 3.02626 10.4811C3.07135 10.5399 3.08775 10.6109 3.07955 10.6779C3.07135 10.7462 3.03583 10.8104 2.97844 10.8555L2.30893 11.3733C2.34445 11.6111 2.39364 11.8461 2.45376 12.0756C2.51252 12.3011 2.58083 12.5238 2.65735 12.741L2.9798 12.3175C3.02353 12.2587 3.08775 12.2246 3.15606 12.215C3.22301 12.2054 3.29406 12.2218 3.35282 12.2669C3.41157 12.3106 3.44573 12.3749 3.45529 12.4432C3.46486 12.5101 3.44846 12.5812 3.40337 12.6399L2.88826 13.3176C2.98664 13.5376 3.09458 13.7521 3.21208 13.9612C3.32686 14.1648 3.44983 14.3629 3.581 14.5542L3.78595 14.0527C3.81327 13.9844 3.86656 13.9339 3.92941 13.9079C3.99227 13.8819 4.06468 13.8792 4.133 13.9065C4.20132 13.9338 4.25187 13.9871 4.27783 14.05C4.30379 14.1128 4.30653 14.1853 4.2792 14.2536L3.95264 15.0529C4.03599 15.1554 4.1207 15.2551 4.20815 15.3521C4.29833 15.4519 4.38987 15.5502 4.48552 15.6459C4.5634 15.7251 4.64265 15.8016 4.72326 15.8754C4.79568 15.9424 4.87083 16.0093 4.94597 16.0735L5.01702 15.5174C5.02659 15.445 5.06485 15.3822 5.11813 15.3398C5.17142 15.2975 5.24247 15.277 5.31489 15.2865C5.3873 15.2961 5.45016 15.3344 5.49251 15.3876C5.53487 15.4409 5.55536 15.512 5.5458 15.5844L5.43513 16.4589C5.63051 16.601 5.83273 16.7349 6.04178 16.8592C6.24263 16.9794 6.45032 17.0901 6.6621 17.1912L6.58285 16.6146C6.57329 16.5422 6.59379 16.4712 6.63478 16.4179C6.67577 16.3632 6.73862 16.325 6.81103 16.3154C6.88345 16.3058 6.95313 16.3263 7.00779 16.3673C7.06244 16.4083 7.1007 16.4711 7.11026 16.5436L7.23187 17.4372C7.45731 17.5232 7.68686 17.5998 7.92187 17.664C8.14732 17.7268 8.37686 17.7787 8.60914 17.8211L8.37823 17.2691C8.34954 17.2008 8.35227 17.1284 8.37823 17.0655C8.40419 17.0027 8.45475 16.948 8.5217 16.9207C8.59001 16.892 8.66243 16.8947 8.72528 16.9207C8.78813 16.9466 8.84279 16.9972 8.87012 17.0641L9.224 17.9085C9.3497 17.9208 9.47677 17.9304 9.60521 17.9372C9.73501 17.9441 9.86618 17.9468 9.99872 17.9468C10.1149 17.9468 10.2296 17.9441 10.3444 17.94C10.4482 17.9359 10.5521 17.929 10.6573 17.9195L10.2856 17.4385C10.2406 17.3798 10.2242 17.3087 10.2324 17.2418C10.2406 17.1748 10.2747 17.1106 10.3321 17.0655L10.3348 17.0628C10.3922 17.0191 10.4633 17.0013 10.5302 17.0109C10.5972 17.0191 10.6614 17.0532 10.7065 17.1106L11.2735 17.8416C11.514 17.802 11.7517 17.75 11.9854 17.6886C12.2136 17.6284 12.439 17.5574 12.659 17.4768L12.1712 17.1051C12.1124 17.06 12.0769 16.9972 12.0687 16.9289C12.0592 16.8619 12.0756 16.7909 12.1206 16.7321C12.1644 16.6734 12.2286 16.6392 12.2969 16.6296C12.3639 16.6201 12.4349 16.6365 12.4937 16.6816L13.2315 17.2418C13.4515 17.1407 13.6673 17.03 13.8764 16.9084C14.08 16.7909 14.2795 16.6638 14.4708 16.5285L13.9065 16.2976C13.8381 16.2703 13.7876 16.217 13.7616 16.1542C13.7357 16.0913 13.7329 16.0189 13.7603 15.9506C13.7876 15.8823 13.8409 15.8331 13.9037 15.8057C13.9666 15.7798 14.039 15.777 14.1073 15.8044L14.9599 16.1528C15.0556 16.0735 15.1498 15.9916 15.2414 15.9082C15.3357 15.8221 15.4272 15.7347 15.5174 15.6431C15.6007 15.5598 15.6813 15.4737 15.7606 15.3876C15.8316 15.3084 15.9027 15.2278 15.9724 15.1444L15.3739 15.0679C15.3015 15.0584 15.2386 15.0201 15.1963 14.9668C15.1539 14.9135 15.1334 14.8425 15.143 14.7701C15.1526 14.6976 15.1908 14.6348 15.2441 14.5924C15.2974 14.5501 15.3684 14.5296 15.4409 14.5391L16.3495 14.6539C16.4889 14.4572 16.62 14.2536 16.7416 14.0432C16.8591 13.8409 16.9671 13.6319 17.0668 13.4187L16.4711 13.4994C16.3987 13.5089 16.3276 13.4884 16.2743 13.4474C16.221 13.4064 16.1814 13.3436 16.1719 13.2712C16.1623 13.1988 16.1828 13.1291 16.2238 13.0744C16.2648 13.0198 16.3276 12.9815 16.4 12.9719L17.3059 12.849C17.3893 12.6235 17.4644 12.394 17.5273 12.159C17.5888 11.9335 17.6393 11.704 17.6803 11.4717L17.1269 11.704C17.0586 11.7327 16.9862 11.7313 16.922 11.7053C16.8591 11.6794 16.8045 11.6288 16.7771 11.5619C16.7485 11.4936 16.7498 11.4211 16.7758 11.3569C16.8017 11.2941 16.8523 11.2394 16.9192 11.2121L17.7636 10.8582C17.7759 10.7325 17.7855 10.6054 17.791 10.477C17.7978 10.3472 17.8005 10.216 17.8005 10.0849C17.8005 9.96872 17.7978 9.85395 17.7937 9.73917C17.7896 9.63533 17.7828 9.53012 17.7746 9.42628L17.2936 9.79929C17.2349 9.84438 17.1638 9.86078 17.0969 9.85258C17.0299 9.84438 16.9657 9.81022 16.9206 9.75284L16.9192 9.7501C16.8755 9.69272 16.8578 9.62167 16.8673 9.55472C16.8755 9.48777 16.9097 9.42355 16.9671 9.37846L17.7008 8.81006C17.6612 8.56822 17.612 8.32911 17.5505 8.09409C17.4904 7.86455 17.4207 7.63774 17.3414 7.41639L16.963 7.9151C16.9192 7.97386 16.855 8.00801 16.7867 8.01758C16.7198 8.02714 16.6487 8.01075 16.59 7.96566C16.5312 7.92057 16.497 7.85772 16.4875 7.7894C16.4779 7.72245 16.4943 7.6514 16.5394 7.59265L17.1105 6.84116C17.0094 6.61708 16.8988 6.39846 16.7785 6.18668C16.661 5.97899 16.5339 5.77814 16.3987 5.58412L16.1555 6.17985C16.1281 6.24816 16.0748 6.29872 16.012 6.32468C15.9491 6.35064 15.8767 6.35337 15.8098 6.32605H15.8084C15.7401 6.29872 15.6909 6.24543 15.6636 6.18258C15.6376 6.11973 15.6349 6.04731 15.6622 5.98036L16.027 5.0895C15.9478 4.99249 15.8672 4.89822 15.7838 4.8053C15.6977 4.70966 15.6103 4.61675 15.5201 4.5252C15.4354 4.44049 15.348 4.35578 15.2591 4.27516C15.1785 4.20138 15.0952 4.1276 15.0118 4.05655L14.9285 4.71376C14.9189 4.78618 14.8807 4.84903 14.8274 4.89138C14.7741 4.93237 14.7044 4.95424 14.632 4.94467H14.6293C14.5568 4.93511 14.4954 4.89685 14.4544 4.84356C14.4134 4.79027 14.3915 4.72059 14.4011 4.64817L14.5227 3.69173L14.5254 3.67534C14.3259 3.53187 14.1196 3.39797 13.9065 3.275C13.7001 3.15476 13.4884 3.04409 13.2725 2.94298L13.364 3.61659C13.3736 3.689 13.3531 3.76005 13.3121 3.81334C13.2711 3.86799 13.2083 3.90625 13.1358 3.91581C13.0634 3.92538 12.9937 3.90488 12.9391 3.86389C12.8844 3.8229 12.8462 3.76005 12.8366 3.68763C12.7997 3.37064 12.7423 3.04955 12.7068 2.73256C12.7054 2.72573 12.7054 2.7189 12.7054 2.71343V2.70523C12.4773 2.62052 12.2436 2.54674 12.0045 2.48252C11.7668 2.42513 11.5331 2.37458 11.2967 2.33359L11.5604 2.96211C11.5891 3.03042 11.5878 3.10284 11.5618 3.16706C11.5359 3.22991 11.4853 3.28456 11.4183 3.31189C11.35 3.34058 11.2776 3.33922 11.2134 3.31326C11.1505 3.2873 11.0959 3.23674 11.0686 3.16979L10.6956 2.2803C10.6928 2.27484 10.6915 2.268 10.6887 2.26254L10.6846 2.25571C10.5739 2.24614 10.4619 2.23794 10.3485 2.23384C10.2337 2.22838 10.1176 2.22565 10.0001 2.22565C9.86618 2.22565 9.73501 2.22838 9.60384 2.23521C9.48224 2.24068 9.36063 2.25024 9.24176 2.26254L9.6544 2.79541C9.69949 2.85417 9.71588 2.92522 9.70768 2.99217C9.69949 3.06048 9.66396 3.1247 9.60657 3.16979C9.54782 3.21488 9.47677 3.23128 9.40982 3.22308C9.3415 3.21488 9.27729 3.17936 9.2322 3.12197L8.64194 2.36091L8.63237 2.34725C8.39053 2.38961 8.15415 2.44426 7.92051 2.50848C7.69096 2.5727 7.46688 2.64648 7.2469 2.72983L7.76884 3.12607C7.82759 3.17116 7.86312 3.23401 7.87132 3.30233C7.88088 3.36928 7.86449 3.44033 7.8194 3.49908C7.77431 3.55783 7.71146 3.59336 7.64314 3.60156C7.57619 3.61112 7.50514 3.59472 7.44638 3.54963L6.6826 2.9703ZM10.0001 5.86285C10.5726 5.86285 11.1178 5.97626 11.6151 6.18258C12.1316 6.3971 12.5975 6.70999 12.9869 7.0994C13.3763 7.4888 13.6906 7.95336 13.9037 8.47121C14.11 8.96855 14.2235 9.51509 14.2235 10.0862C14.2235 10.6587 14.11 11.2039 13.9037 11.7012C13.6906 12.2177 13.3763 12.6836 12.9869 13.0731C12.6112 13.4488 12.1671 13.7535 11.6725 13.9666C11.197 14.1716 10.6764 14.2918 10.1285 14.3082C10.1094 14.3178 10.0903 14.326 10.0684 14.3315C10.0465 14.3369 10.0233 14.3397 10.0001 14.3397C9.97685 14.3397 9.95363 14.3369 9.93176 14.3315C9.91127 14.326 9.89077 14.3178 9.87164 14.3082C9.32511 14.2918 8.80316 14.1716 8.32768 13.9666C7.83306 13.7535 7.38763 13.4488 7.01325 13.0731C6.90531 12.9651 6.80284 12.8503 6.70583 12.7301C6.61155 12.6126 6.52274 12.4883 6.44075 12.3612C6.41753 12.3503 6.39703 12.3352 6.3779 12.3188L6.37654 12.3175C6.35741 12.2997 6.34101 12.2792 6.32735 12.256C6.31368 12.2328 6.30412 12.2082 6.29866 12.1836C6.29319 12.159 6.29046 12.1344 6.29182 12.1111C6.12513 11.8065 5.99533 11.4799 5.90788 11.1356C5.8218 10.8008 5.77671 10.4497 5.77671 10.0876C5.77671 9.73507 5.82043 9.39349 5.90105 9.06557C5.9844 8.72944 6.10873 8.40835 6.26723 8.10912C6.26996 8.09546 6.27406 8.08316 6.27816 8.07087C6.28363 8.0572 6.28909 8.04491 6.29592 8.03261C6.30275 8.02168 6.30959 8.01075 6.31778 8.00118C6.32462 7.99162 6.33281 7.98342 6.34101 7.97522C6.43392 7.81536 6.5364 7.66233 6.64707 7.5175C6.76048 7.36993 6.88208 7.23193 7.01189 7.10076C7.40129 6.71135 7.86585 6.3971 8.3837 6.18395C8.88241 5.97626 9.42895 5.86285 10.0001 5.86285ZM12.6084 7.47787C12.2901 7.15951 11.913 6.89854 11.4962 6.71409C11.0986 6.53783 10.6628 6.42852 10.205 6.40393V8.94259C10.3253 8.96582 10.4387 9.00681 10.5425 9.06283C10.6505 9.11885 10.7475 9.19127 10.8336 9.27598L13.0402 8.00118C12.9773 7.911 12.9118 7.82219 12.8407 7.73748C12.7697 7.64593 12.6918 7.55985 12.6084 7.47787ZM9.67216 6.41213C9.23903 6.45038 8.82639 6.56379 8.44928 6.73868C8.05441 6.92177 7.69779 7.17318 7.3931 7.47787C7.30019 7.57078 7.21137 7.66916 7.12939 7.77164C7.05014 7.86865 6.97636 7.97112 6.90804 8.07633L9.05047 9.31287L9.0778 9.28418C9.16115 9.20083 9.25542 9.12978 9.35927 9.0724C9.45628 9.01911 9.56285 8.97812 9.67352 8.95079V6.41213H9.67216ZM6.64844 8.54362C6.5405 8.77863 6.45578 9.02731 6.3984 9.28555C6.34101 9.54379 6.31095 9.81159 6.31095 10.0862C6.31095 10.3814 6.34511 10.6683 6.4107 10.9429C6.47628 11.2203 6.57329 11.4854 6.69763 11.734L8.76491 10.5412C8.74714 10.4838 8.73348 10.4251 8.72392 10.365C8.71435 10.3007 8.70889 10.2365 8.70889 10.1709C8.70889 10.0999 8.71435 10.0302 8.72665 9.96189C8.73758 9.8963 8.75398 9.83345 8.77447 9.77197L6.64844 8.54362ZM6.9709 12.1918C7.03238 12.2792 7.0966 12.3639 7.16355 12.4459C7.23597 12.532 7.31112 12.6153 7.39173 12.6946C7.70326 13.0061 8.06944 13.2616 8.47524 13.4461C8.86328 13.6223 9.28685 13.733 9.73228 13.7658V11.4006C9.60931 11.3774 9.4918 11.3378 9.38523 11.2818C9.27045 11.2217 9.16661 11.1451 9.07643 11.055C9.06687 11.0454 9.0573 11.0358 9.04774 11.0249L9.02861 11.0044L6.9709 12.1918ZM10.2679 13.7658C10.7133 13.7344 11.1369 13.6223 11.5249 13.4461C11.9307 13.2616 12.2969 13.0061 12.6084 12.6946C12.6918 12.6112 12.771 12.5238 12.8462 12.4336C12.9172 12.3475 12.9842 12.2587 13.047 12.1658L10.9401 10.9484C10.9265 10.9648 10.9142 10.9812 10.8991 10.9962C10.8814 11.0167 10.8636 11.0358 10.8458 11.0536L10.8445 11.055C10.7639 11.1356 10.6723 11.2053 10.5726 11.2613C10.4783 11.3146 10.3758 11.3556 10.2679 11.3829V13.7658ZM13.3162 11.7053C13.4364 11.4608 13.5293 11.1998 13.5936 10.9279C13.6564 10.6574 13.6906 10.3759 13.6906 10.0862C13.6906 9.79519 13.6564 9.51236 13.5936 9.24046C13.5293 8.96719 13.4351 8.70485 13.3135 8.45891L11.1314 9.71868C11.1574 9.78699 11.1779 9.85804 11.1929 9.93183C11.2079 10.0083 11.2148 10.0876 11.2148 10.1682C11.2148 10.2215 11.212 10.2748 11.2052 10.3267C11.1997 10.3745 11.1902 10.4223 11.1792 10.4688L13.3162 11.7053ZM10.0001 4.49514C10.757 4.49514 11.4798 4.64544 12.1384 4.91871C12.8229 5.20154 13.4378 5.61691 13.9543 6.13339C14.4694 6.6485 14.8848 7.26472 15.169 7.94926C15.4422 8.60784 15.5925 9.33064 15.5925 10.0876C15.5925 10.8445 15.4422 11.5673 15.169 12.2259C14.8861 12.9105 14.4708 13.5253 13.9543 14.0418C13.4392 14.5569 12.8229 14.9723 12.1384 15.2565C11.4798 15.5297 10.757 15.68 10.0001 15.68C9.24313 15.68 8.52033 15.5297 7.86175 15.2565C7.17721 14.9736 6.56236 14.5583 6.04588 14.0418C5.53077 13.5267 5.1154 12.9105 4.8312 12.2259C4.55793 11.5673 4.40763 10.8445 4.40763 10.0876C4.40763 9.33064 4.55793 8.60784 4.8312 7.94926C5.11403 7.26472 5.5294 6.64987 6.04588 6.13339C6.56099 5.61828 7.17721 5.20291 7.86175 4.91871C8.52033 4.64544 9.24313 4.49514 10.0001 4.49514ZM13.5621 6.52417C13.0976 6.05961 12.5428 5.68523 11.9266 5.42972C11.3336 5.18378 10.6819 5.04851 10.0001 5.04851C9.31828 5.04851 8.66653 5.18378 8.07354 5.42972C7.45731 5.68523 6.90258 6.05961 6.43802 6.52417C5.97346 6.98872 5.59909 7.54346 5.34358 8.15968C5.09764 8.75267 4.96237 9.40442 4.96237 10.0862C4.96237 10.768 5.09764 11.4198 5.34358 12.0128C5.59909 12.629 5.97346 13.1837 6.43802 13.6483C6.90258 14.1128 7.45731 14.4872 8.07354 14.7427C8.66653 14.9887 9.31828 15.1239 10.0001 15.1239C10.6819 15.1239 11.3336 14.9887 11.9266 14.7427C12.5428 14.4872 13.0976 14.1128 13.5621 13.6483C14.0267 13.1837 14.4011 12.629 14.6566 12.0128C14.9025 11.4198 15.0378 10.768 15.0378 10.0862C15.0378 9.40442 14.9025 8.75267 14.6566 8.15968C14.4011 7.54346 14.0267 6.98872 13.5621 6.52417ZM10.2105 9.91953C10.1777 9.88674 10.1394 9.86078 10.0957 9.84301C10.0547 9.82525 10.0083 9.81569 9.96046 9.81569C9.91264 9.81569 9.86618 9.82525 9.82519 9.84301C9.78147 9.86078 9.74321 9.88674 9.71042 9.91953C9.67762 9.95232 9.65166 9.99058 9.6339 10.0343C9.61614 10.0753 9.60657 10.1217 9.60657 10.1696C9.60657 10.2174 9.61614 10.2638 9.6339 10.3048C9.65166 10.3486 9.67762 10.3868 9.71042 10.4196L9.71178 10.421C9.74458 10.4538 9.78283 10.4784 9.82519 10.4961C9.86618 10.5139 9.91264 10.5235 9.96046 10.5235C10.0083 10.5235 10.0547 10.5139 10.0957 10.4961C10.1394 10.4784 10.1777 10.4524 10.2105 10.4196C10.2433 10.3868 10.2693 10.3486 10.287 10.3048C10.3048 10.2638 10.3143 10.2174 10.3143 10.1696C10.3143 10.1217 10.3048 10.0753 10.287 10.0343C10.2693 9.99058 10.2433 9.95232 10.2105 9.91953Z" fill="#F47D21"/>
</svg>
