<svg width="20" height="21" viewBox="0 0 20 21" fill="none" xmlns="http://www.w3.org/2000/svg">
<path d="M9.90571 9.29695L9.60196 9.02832L8.32622 10.1576L8.62996 10.4266C8.65996 10.4535 8.71059 10.4535 8.74059 10.4266L9.90571 9.39523C9.93571 9.36834 9.93571 9.32384 9.90571 9.29695ZM7.64522 1.52539H11.3063C11.6866 1.52539 12.0327 1.66319 12.2832 1.885L12.3004 1.90193C12.5408 2.12241 12.6893 2.42192 12.6893 2.75031V4.16782C12.6893 4.4577 12.5731 4.72599 12.3796 4.93684C13.0441 5.00956 13.6411 5.28084 14.0929 5.68096C14.625 6.1518 14.9554 6.80195 14.9554 7.51751V13.2128C15.2228 13.1208 15.4977 13.0896 15.7572 13.1254C16.0939 13.1723 16.3984 13.3287 16.6245 13.6092C17.046 14.1309 17.1825 15.1091 16.665 16.6408L16.335 17.6184C16.2855 17.7648 16.2563 17.8704 16.2334 17.9544C16.083 18.5023 15.9057 18.5252 15.2667 18.5242C15.1193 18.5242 14.9719 18.5252 14.8234 18.5252H3.69462C2.75 18.5328 2.86888 18.3203 2.6495 17.551L2.37463 16.5857C2.34575 16.4834 2.32101 16.4011 2.29588 16.3174C2.03638 15.4498 1.72738 14.4155 2.43463 13.6099C2.60263 13.4186 2.8115 13.2835 3.04738 13.2108C3.26712 13.143 3.506 13.1311 3.752 13.1806C3.8 13.1902 3.848 13.2022 3.89599 13.2161V7.51751C3.89599 7.15358 3.98149 6.8066 4.13562 6.49115L4.01374 6.38456C3.99349 6.36663 3.98374 6.34306 3.98374 6.32015C3.98374 6.29956 3.99162 6.27864 4.00737 6.26171L5.15974 5.24066C5.17961 5.22306 5.20586 5.2141 5.23249 5.2141C5.25836 5.2141 5.28461 5.22306 5.30486 5.24033L5.34649 5.27686C5.71769 5.08232 6.13307 4.96323 6.5626 4.92821C6.37473 4.71902 6.26223 4.45438 6.26223 4.16782V2.75031C6.26223 2.41328 6.41748 2.1068 6.66798 1.885L6.6871 1.86972C6.93685 1.65688 7.2751 1.52539 7.64522 1.52539ZM7.62122 9.53635L4.61262 6.9082C4.54315 7.10545 4.50787 7.31089 4.50799 7.51751V13.5256C4.91449 13.8227 5.31086 14.3115 5.63298 15.0175C6.7831 14.4955 8.01122 14.2468 9.31246 14.2537C10.6092 14.2604 11.9757 14.522 13.4063 15.0204C13.4307 14.9095 13.4618 14.8029 13.4989 14.7003L9.87271 11.4898L9.77971 11.5721C9.68371 11.6571 9.52508 11.6571 9.42908 11.5721L9.20221 11.3712C9.10621 11.2862 9.10621 11.1458 9.20221 11.0608L9.30458 10.9701L9.25996 10.5365L9.05259 10.3532L8.85534 10.5282C8.76196 10.6102 8.60859 10.6102 8.51559 10.5282L8.19759 10.2463C8.10047 10.2977 7.97447 10.2845 7.89422 10.2134L7.5511 9.90924C7.4551 9.82424 7.4551 9.68378 7.5511 9.59878L7.62122 9.53635ZM5.80136 5.67432L8.91271 8.39278L8.98359 8.33003C9.07959 8.24502 9.23821 8.24502 9.33421 8.33003L9.67771 8.63418C9.76246 8.71022 9.77446 8.82909 9.70471 8.91642L10.0201 9.19567C10.1131 9.27802 10.1131 9.41416 10.0201 9.49651L9.86933 9.62999L10.0711 9.80863L10.5353 9.88035L10.6347 9.79236C10.7307 9.70703 10.8893 9.70703 10.9857 9.79236L11.2126 9.99292C11.3067 10.0766 11.3089 10.2134 11.2171 10.2991L11.1642 10.3459C12.0199 11.1 13.4419 12.2296 14.3434 13.1012V7.51751C14.3434 6.9517 14.0817 6.43703 13.6602 6.06381C13.2391 5.69092 12.6574 5.45915 12.0188 5.45915H6.8326C6.46285 5.45915 6.11261 5.53652 5.80136 5.67432ZM11.0978 10.0945L10.8709 9.89364C10.8379 9.86408 10.7824 9.86408 10.7491 9.89364L9.31658 11.1621C9.28359 11.1913 9.28359 11.2407 9.31658 11.27L9.54346 11.4709C9.57646 11.5001 9.63233 11.5001 9.66533 11.4709L11.1012 10.1998C11.1316 10.1699 11.1301 10.1227 11.0978 10.0945ZM9.56333 8.73546L9.21984 8.4313C9.18684 8.40208 9.13134 8.40208 9.09796 8.4313L7.66547 9.70005C7.6321 9.72927 7.6321 9.77842 7.66547 9.80797L8.00897 10.1121C8.04197 10.1413 8.09747 10.1413 8.13047 10.1121L9.56333 8.84337C9.59633 8.81415 9.59671 8.76468 9.56333 8.73546ZM9.61358 9.85645L9.78158 10.0055C9.81121 10.0318 9.82583 10.066 9.82583 10.1002C9.82583 10.1344 9.81121 10.1686 9.78158 10.1948L9.65708 10.3054C9.62746 10.3316 9.58846 10.3446 9.54983 10.3446C9.51121 10.3446 9.47258 10.3316 9.44296 10.3054L9.27496 10.1563L9.16696 10.2519L9.39496 10.4535C9.41033 10.4671 9.41821 10.485 9.41858 10.5029L9.45271 10.836L10.3928 10.0035L10.0186 9.9461C10.0002 9.94311 9.98408 9.93481 9.97208 9.92319L9.75496 9.73127L9.61358 9.85645ZM9.38933 10.055L9.55021 10.1975L9.65971 10.1002L9.49921 9.95805L9.38933 10.055ZM4.10224 13.9313C4.04542 13.9138 3.99562 13.882 3.95899 13.8397C3.84125 13.7729 3.72687 13.7294 3.61812 13.7075C3.48575 13.681 3.3605 13.6863 3.248 13.7208C3.12575 13.7587 3.01288 13.8337 2.91763 13.9423C2.39525 14.537 2.66225 15.4302 2.8865 16.1796C2.91688 16.2816 2.9465 16.3808 2.9675 16.4545L3.24237 17.4198C3.25737 17.4726 3.37925 17.9949 3.37962 17.9952C3.38075 17.9959 3.83225 17.9833 3.91362 17.9833H14.8328C14.9783 17.9833 15.1223 17.9843 15.2667 17.9846C15.4902 17.985 15.5798 17.9979 15.5978 17.9936L15.6 17.9913C15.6027 17.9893 15.7328 17.5121 15.7493 17.464L16.0793 16.4864C16.5345 15.1386 16.4513 14.3235 16.1273 13.9224C16.0032 13.7686 15.8408 13.6833 15.6642 13.659C15.4725 13.6325 15.2569 13.672 15.045 13.7693C14.5122 14.0137 14.0299 14.6034 13.9609 15.4222H13.9602C13.9576 15.4504 13.9501 15.479 13.9369 15.5069C13.8717 15.644 13.6928 15.7084 13.5376 15.6507C12.0462 15.0932 10.6347 14.8003 9.30983 14.7933C7.99734 14.7863 6.76548 15.0606 5.62098 15.637C5.60523 15.6447 5.58836 15.6517 5.57073 15.657C5.49435 15.6806 5.41052 15.6763 5.33767 15.6452C5.26481 15.6141 5.20891 15.5586 5.18224 15.4909C4.87624 14.714 4.48999 14.2076 4.10224 13.9313ZM11.3809 2.00088H7.57022C7.37227 2.0008 7.18192 2.06836 7.03885 2.18948L7.02572 2.20177C6.88585 2.32562 6.79923 2.4963 6.79923 2.6839V4.2339C6.79923 4.4215 6.88623 4.59218 7.0261 4.71603C7.16522 4.84021 7.35835 4.91692 7.57022 4.91692H11.3809C11.5928 4.91692 11.7856 4.83988 11.9254 4.71603H11.9266C11.9982 4.65278 12.055 4.57763 12.0937 4.49489C12.1325 4.41216 12.1524 4.32346 12.1523 4.2339V2.6839C12.1523 2.50194 12.0709 2.33592 11.9389 2.21306L11.9254 2.20177C11.7856 2.07792 11.5928 2.00088 11.3809 2.00088Z" fill="#F47D21"/>
</svg>
