<svg width="42" height="42" viewBox="0 0 42 42" fill="none" xmlns="http://www.w3.org/2000/svg">
<path d="M11.959 41.0261L16.3425 36.6426H11.959C11.959 37.7385 12.2612 40.7239 11.959 41.0261Z" fill="#F47D21"/>
<path d="M16.0686 36.6426V39.3823C16.0686 40.1398 15.4563 40.7522 14.6987 40.7522H11.959" fill="#F47D21"/>
<path d="M16.0686 36.6426V39.3823C16.0686 40.1398 15.4563 40.7522 14.6987 40.7522H11.959" stroke="#263238" stroke-miterlimit="10" stroke-linecap="round" stroke-linejoin="round"/>
<path d="M39.3562 36.6426V39.3823C39.3562 40.1398 38.7438 40.7522 37.9863 40.7522H36.6164C35.8589 40.7522 35.2466 40.1398 35.2466 39.3823V36.6426" fill="#F47D21"/>
<path d="M39.3562 36.6426V39.3823C39.3562 40.1398 38.7438 40.7522 37.9863 40.7522H36.6164C35.8589 40.7522 35.2466 40.1398 35.2466 39.3823V36.6426" stroke="#263238" stroke-miterlimit="10" stroke-linecap="round" stroke-linejoin="round"/>
<path d="M40.726 36.6426H12.5068" stroke="#263238" stroke-miterlimit="10" stroke-linecap="round" stroke-linejoin="round"/>
<path d="M14.6931 27.6363C17.0424 27.1938 20.563 27.0527 25.6575 27.0527C37.3013 27.0527 40.726 27.8514 40.726 31.1623V32.7897" stroke="#263238" stroke-miterlimit="10" stroke-linecap="round" stroke-linejoin="round"/>
<path d="M35.2466 33.9018V32.532C35.2466 31.7785 35.863 31.1621 36.6164 31.1621H40.726V33.9018H35.2466Z" stroke="#263238" stroke-miterlimit="10" stroke-linecap="round" stroke-linejoin="round"/>
<path d="M14.0138 31.1621H14.6987C15.4521 31.1621 16.0686 31.7785 16.0686 32.532V33.9018H11.959" stroke="#263238" stroke-miterlimit="10" stroke-linecap="round" stroke-linejoin="round"/>
<path d="M18.8081 33.9018C18.8081 32.3895 20.0355 31.1621 21.5478 31.1621H29.767C31.2793 31.1621 32.5067 32.3895 32.5067 33.9018" fill="#F47D21"/>
<path d="M18.8081 33.9018C18.8081 32.3895 20.0355 31.1621 21.5478 31.1621H29.767C31.2793 31.1621 32.5067 32.3895 32.5067 33.9018" stroke="#263238" stroke-miterlimit="10" stroke-linecap="round" stroke-linejoin="round"/>
<path d="M38.0807 28.0203L35.6848 20.8203C35.4369 20.0943 34.6424 19.423 33.889 19.3271C32.2602 19.1217 29.2725 18.834 25.6561 18.834C22.0396 18.834 19.0533 19.1217 17.4232 19.3271C16.6698 19.423 15.8753 20.0943 15.6273 20.8203L14.467 24.3134" stroke="#263238" stroke-miterlimit="10" stroke-linecap="round" stroke-linejoin="round"/>
<path d="M11.9589 40.7522V18.8344C12.9712 18.8344 13.8562 18.2851 14.3301 17.4673C14.5644 17.0632 14.6986 16.5947 14.6986 16.0947V14.0399C14.6986 12.1563 13.1575 10.6152 11.274 10.6152H4.42466C2.53288 10.6152 1 12.1481 1 14.0399V16.0947C1 17.607 2.2274 18.8344 3.73973 18.8344V25.6837L1 40.7522" stroke="#263238" stroke-miterlimit="10" stroke-linecap="round" stroke-linejoin="round"/>
<path d="M7.84922 7.87471C9.7406 7.87471 11.2739 6.34143 11.2739 4.45005C11.2739 2.55866 9.7406 1.02539 7.84922 1.02539C5.95783 1.02539 4.42456 2.55866 4.42456 4.45005C4.42456 6.34143 5.95783 7.87471 7.84922 7.87471Z" stroke="#263238" stroke-miterlimit="10" stroke-linecap="round" stroke-linejoin="round"/>
<path d="M11.9589 16.7793V16.3423C11.9589 15.4957 11.1987 14.8505 10.3644 14.9916L5.33427 15.8286C4.50002 15.967 3.73975 15.3245 3.73975 14.4766" stroke="#263238" stroke-miterlimit="10" stroke-linecap="round" stroke-linejoin="round"/>
<path d="M9.2192 40.7515L7.84934 24.998L3.73975 40.7515" stroke="#263238" stroke-miterlimit="10" stroke-linecap="round" stroke-linejoin="round"/>
<path d="M6.47949 18.834H11.9589" stroke="#263238" stroke-miterlimit="10" stroke-linecap="round" stroke-linejoin="round"/>
</svg>
