<svg width="20" height="21" viewBox="0 0 20 21" fill="none" xmlns="http://www.w3.org/2000/svg">
<path d="M17.9312 10.3631L17.3052 9.73711L17.9312 9.11117C18.0229 9.01946 18.0229 8.87076 17.9312 8.77908L16.5056 7.35349C16.4616 7.30943 16.4019 7.28469 16.3396 7.28469C16.2773 7.28469 16.2176 7.30943 16.1735 7.35349L15.5494 7.97758L15.0907 7.51881L15.7148 6.89471C15.8065 6.803 15.8065 6.65431 15.7148 6.56263L14.2513 5.09911C14.1595 5.0074 14.0108 5.0074 13.9192 5.09911L13.2932 5.72505L12.6673 5.09911L12.546 4.97784L13.172 4.3519C13.2637 4.26019 13.2637 4.11149 13.172 4.01981L11.7464 2.59421C11.7023 2.55013 11.6426 2.52539 11.5803 2.52539C11.518 2.52539 11.4583 2.55013 11.4142 2.59418L10.7883 3.22012L10.1624 2.59418C10.1183 2.55013 10.0586 2.52539 9.99629 2.52539C9.93398 2.52539 9.87427 2.55013 9.83025 2.59418L9.20431 3.22012L8.57837 2.59418C8.53434 2.55013 8.4746 2.52539 8.41232 2.52539C8.35005 2.52539 8.2903 2.55013 8.24628 2.59418L7.62034 3.22012L6.9944 2.59418C6.95038 2.55013 6.89063 2.52539 6.82836 2.52539C6.76608 2.52539 6.70634 2.55013 6.66231 2.59418L6.03637 3.22012L5.41043 2.59418C5.36641 2.55013 5.30667 2.52539 5.24439 2.52539C5.18211 2.52539 5.12237 2.55013 5.07835 2.59418L4.4524 3.22012L3.82646 2.59418C3.78241 2.55013 3.7227 2.52539 3.66039 2.52539C3.59808 2.52539 3.53837 2.55013 3.49435 2.59418L2.06878 4.01978C1.97707 4.11149 1.97707 4.26019 2.06878 4.35187L2.69472 4.97781L2.06878 5.60375C1.97707 5.69546 1.97707 5.84416 2.06878 5.93584L2.69472 6.56178L2.06878 7.18772C1.97707 7.27943 1.97707 7.42813 2.06878 7.51981L2.69472 8.14575L2.06878 8.7717C1.97707 8.86341 1.97707 9.0121 2.06878 9.10378L2.69472 9.72972L2.06878 10.3557C1.97707 10.4474 1.97707 10.5961 2.06878 10.6878L2.69472 11.3137L2.06878 11.9397C1.97707 12.0314 1.97707 12.1801 2.06878 12.2718L3.49435 13.6973C3.54019 13.7432 3.6003 13.7661 3.66039 13.7661C3.72048 13.7661 3.78059 13.7432 3.82643 13.6973L4.45237 13.0714L4.57364 13.1927L5.19958 13.8186L4.57364 14.4446C4.48193 14.5363 4.48193 14.685 4.57364 14.7767L6.0355 16.2385C6.07952 16.2826 6.13926 16.3073 6.20154 16.3073C6.26382 16.3073 6.32356 16.2826 6.36758 16.2385L6.99352 15.6126L7.45395 16.073L6.82801 16.6989C6.7363 16.7907 6.7363 16.9394 6.82801 17.031L8.25358 18.4566C8.34529 18.5483 8.49398 18.5483 8.58566 18.4566L9.2116 17.8307L9.83754 18.4566C9.92925 18.5483 10.0779 18.5483 10.1696 18.4566L10.7956 17.8307L11.4215 18.4566C11.5132 18.5483 11.6619 18.5483 11.7536 18.4566L12.3795 17.8307L13.0055 18.4566C13.0972 18.5483 13.2459 18.5483 13.3376 18.4566L13.9635 17.8307L14.5894 18.4566C14.6353 18.5024 14.6954 18.5254 14.7555 18.5254C14.8156 18.5254 14.8757 18.5025 14.9215 18.4566L15.5475 17.8307L16.1734 18.4566C16.2651 18.5483 16.4138 18.5483 16.5055 18.4566L17.1374 17.8246C17.138 17.8241 17.1385 17.8236 17.1391 17.823L17.9311 17.031C18.0228 16.9393 18.0228 16.7906 17.9311 16.6989L17.3051 16.073L17.9311 15.4471C18.0228 15.3553 18.0228 15.2067 17.9311 15.115L17.3051 14.489L17.9311 13.8631C18.0228 13.7714 18.0228 13.6227 17.9311 13.531L17.3053 12.9051L17.9312 12.2791C18.0229 12.1874 18.0229 12.0387 17.9312 11.947L17.3053 11.3211L17.9312 10.6951C18.0229 10.6034 18.0229 10.4547 17.9312 10.3631ZM6.99553 13.3635L5.69774 12.0658C5.69073 12.0587 5.68331 12.0525 5.6757 12.0465L5.0718 11.4426L5.53114 10.9833L6.8276 12.2798C6.8313 12.2835 6.83521 12.2867 6.83906 12.2901L7.45398 12.9051L6.99553 13.3635ZM6.99358 11.7815L5.70814 10.4961C5.70476 10.4922 5.70147 10.4883 5.69777 10.4846L5.07183 9.85866L5.53336 9.39714L6.80772 10.6715C6.81398 10.6797 6.82062 10.6876 6.82807 10.6951L7.45401 11.3211L6.99358 11.7815ZM6.99575 10.1954L5.69774 8.89738C5.69026 8.8899 5.68227 8.88326 5.6741 8.87696L5.07183 8.27466L5.53148 7.81501L6.82764 9.11117C6.82911 9.11264 6.83074 9.1139 6.83224 9.11534L7.45401 9.73708L6.99575 10.1954ZM6.9939 8.61323L5.70194 7.32127C5.7005 7.31976 5.69924 7.31813 5.69777 7.31666L5.07183 6.69072L5.45251 6.31004L7.3748 8.23233L6.9939 8.61323ZM7.70691 7.90021L5.7846 5.97789L6.16528 5.59721L6.79122 6.22315C6.79185 6.22378 6.79254 6.22431 6.79316 6.2249L8.08766 7.5194L7.70691 7.90021ZM9.21179 7.97933L7.28947 6.05701L7.74928 5.59721L8.37522 6.22315C8.37885 6.22678 8.38277 6.23007 8.38659 6.23345L9.67213 7.51896L9.21179 7.97933ZM10.7962 7.9789L8.87388 6.05658L9.33325 5.59721L9.95919 6.22315C9.96507 6.22904 9.97124 6.23449 9.97766 6.23968L11.2565 7.51856L10.7962 7.9789ZM12.3806 7.97846L10.4583 6.05617L10.9172 5.59724L11.5432 6.22318C11.55 6.23004 11.5574 6.23627 11.565 6.24219L12.8409 7.51812L12.3806 7.97846ZM13.965 7.97802L12.0427 6.05573L12.5012 5.59724L13.1272 6.22318C13.135 6.23107 13.1436 6.23812 13.1524 6.24472L14.4254 7.51771L13.965 7.97802ZM14.0852 5.59724L15.2166 6.72867L14.7586 7.18672L13.6271 6.05529L14.0852 5.59724ZM4.28636 12.5733L3.66042 13.1992L2.56694 12.1057L3.19288 11.4798C3.28459 11.3881 3.28459 11.2394 3.19288 11.1477L2.56694 10.5217L3.19288 9.8958C3.28459 9.80409 3.28459 9.65539 3.19288 9.56371L2.56694 8.93777L3.19288 8.31183C3.28459 8.22012 3.28459 8.07142 3.19288 7.97974L2.56694 7.3538L3.19288 6.72786C3.28459 6.63615 3.28459 6.48745 3.19288 6.39577L2.56694 5.76983L3.19288 5.14388C3.28459 5.05217 3.28459 4.90348 3.19288 4.8118L2.56694 4.18582L3.66042 3.09234L4.28636 3.71829C4.33039 3.76234 4.39013 3.78708 4.4524 3.78708C4.51468 3.78708 4.57442 3.76234 4.61845 3.71829L5.24439 3.09234L5.87033 3.71829C5.91435 3.76234 5.97409 3.78708 6.03637 3.78708C6.09865 3.78708 6.15839 3.76234 6.20241 3.71829L6.82836 3.09234L7.4543 3.71829C7.49832 3.76234 7.55806 3.78708 7.62034 3.78708C7.68262 3.78708 7.74236 3.76234 7.78638 3.71829L8.41232 3.09234L9.03826 3.71829C9.08229 3.76234 9.14203 3.78708 9.20431 3.78708C9.26658 3.78708 9.32633 3.76234 9.37035 3.71829L9.99629 3.09234L10.6222 3.71829C10.6663 3.76234 10.726 3.78708 10.7883 3.78708C10.8506 3.78708 10.9103 3.76234 10.9543 3.71829L11.5803 3.09234L12.6737 4.18582L12.0478 4.81177C11.9561 4.90348 11.9561 5.05217 12.0478 5.14385L12.1691 5.26512L11.7092 5.72502L11.0832 5.09908C11.0392 5.05502 10.9795 5.03029 10.9172 5.03029C10.8549 5.03029 10.7952 5.05502 10.7512 5.09908L10.1252 5.72502L9.49929 5.09908C9.45527 5.05502 9.39552 5.03029 9.33325 5.03029C9.27097 5.03029 9.21123 5.05502 9.1672 5.09908L8.54126 5.72502L7.91532 5.09908C7.8713 5.05502 7.81156 5.03029 7.74928 5.03029C7.687 5.03029 7.62726 5.05502 7.58324 5.09908L6.95729 5.72502L6.33135 5.09908C6.2873 5.05502 6.22759 5.03029 6.16528 5.03029C6.10297 5.03029 6.04326 5.05502 5.99924 5.09908L4.57367 6.52468C4.48196 6.61639 4.48196 6.76508 4.57367 6.85676L5.19961 7.48271L4.57367 8.10865C4.48196 8.20036 4.48196 8.34906 4.57367 8.44074L5.19961 9.06668L4.57367 9.69262C4.48196 9.78433 4.48196 9.93303 4.57367 10.0247L5.19961 10.6507L4.57367 11.2766C4.48196 11.3683 4.48196 11.517 4.57367 11.6087L5.19961 12.2346L4.73972 12.6945L4.61845 12.5733C4.57442 12.5292 4.51468 12.5045 4.4524 12.5045C4.39013 12.5045 4.33039 12.5292 4.28636 12.5733ZM5.07183 13.0266L5.53314 12.5653L6.80888 13.8411C6.81483 13.8487 6.82109 13.8561 6.8281 13.8631L7.45405 14.4891L6.99352 14.9496L5.71005 13.6661C5.7061 13.6616 5.70216 13.657 5.6978 13.6526L5.07183 13.0266ZM6.2016 15.7404L5.07183 14.6106L5.53107 14.1514L6.66084 15.2811L6.2016 15.7404ZM16.8071 11.155C16.7154 11.2468 16.7154 11.3954 16.8071 11.4871L17.4331 12.1131L16.8071 12.739C16.7154 12.8307 16.7154 12.9794 16.8071 13.0711L17.4331 13.697L16.8071 14.323C16.7154 14.4147 16.7154 14.5634 16.8071 14.6551L17.4331 15.281L16.8071 15.907C16.7154 15.9987 16.7154 16.1474 16.8071 16.239L17.4331 16.865L16.9669 17.3312C16.9664 17.3316 16.966 17.3321 16.9655 17.3325L16.3396 17.9585L15.7136 17.3325C15.6678 17.2867 15.6077 17.2637 15.5476 17.2637C15.4875 17.2637 15.4274 17.2867 15.3816 17.3325L14.7556 17.9585L14.1297 17.3325C14.038 17.2408 13.8893 17.2408 13.7976 17.3325L13.1716 17.9585L12.5457 17.3325C12.454 17.2408 12.3053 17.2408 12.2136 17.3325L11.5877 17.9585L10.9617 17.3325C10.87 17.2408 10.7213 17.2408 10.6297 17.3325L10.0037 17.9585L9.37777 17.3325C9.28609 17.2408 9.13739 17.2408 9.04568 17.3325L8.41974 17.9585L7.32627 16.865L7.95221 16.239C8.04392 16.1473 8.04392 15.9986 7.95221 15.907L7.32627 15.281L7.95221 14.6551C8.04392 14.5634 8.04392 14.4147 7.95221 14.323L7.32627 13.697L7.95221 13.0711C8.04392 12.9794 8.04392 12.8307 7.95221 12.739L7.32627 12.1131L7.95221 11.4871C8.04392 11.3954 8.04392 11.2467 7.95221 11.155L7.32627 10.5291L7.95221 9.90316C8.04392 9.81145 8.04392 9.66275 7.95221 9.57107L7.32627 8.94513L8.41974 7.85165L9.04568 8.47759C9.08971 8.52164 9.14945 8.54638 9.21173 8.54638C9.274 8.54638 9.33375 8.52164 9.37777 8.47759L10.0037 7.85165L10.6297 8.47759C10.6737 8.52164 10.7334 8.54638 10.7957 8.54638C10.858 8.54638 10.9177 8.52164 10.9617 8.47759L11.5877 7.85165L12.2136 8.47759C12.2576 8.52164 12.3174 8.54638 12.3797 8.54638C12.4419 8.54638 12.5017 8.52164 12.5457 8.47759L13.1716 7.85165L13.7976 8.47759C13.8416 8.52164 13.9014 8.54638 13.9636 8.54638C14.0259 8.54638 14.0856 8.52164 14.1297 8.47759L14.7556 7.85165L15.3816 8.47759C15.4256 8.52164 15.4853 8.54638 15.5476 8.54638C15.6099 8.54638 15.6696 8.52164 15.7136 8.47759L16.3396 7.85165L17.4331 8.94513L16.8071 9.57107C16.7154 9.66278 16.7154 9.81148 16.8071 9.90316L17.4331 10.5291L16.8071 11.155Z" fill="#F47D21"/>
</svg>
