<svg width="95" height="26" viewBox="0 0 95 26" fill="none" xmlns="http://www.w3.org/2000/svg">
<rect width="95" height="26" rx="10" fill="white" fill-opacity="0.7"/>
<path d="M18.08 13.4639V15.6479C18.08 17.4719 17.352 18.1999 15.528 18.1999H13.352C11.536 18.1999 10.8 17.4719 10.8 15.6479V13.4639C10.8 11.6479 11.528 10.9199 13.352 10.9199H15.536C17.352 10.9199 18.08 11.6479 18.08 13.4639Z" stroke="#F47D21" stroke-linecap="round" stroke-linejoin="round"/>
<path d="M21.1999 10.3448V12.5288C21.1999 14.3528 20.4719 15.0808 18.6479 15.0808H18.0799V13.4648C18.0799 11.6488 17.3519 10.9208 15.5279 10.9208H13.9199V10.3448C13.9199 8.52078 14.6479 7.80078 16.4719 7.80078H18.6559C20.4719 7.80078 21.1999 8.52878 21.1999 10.3448Z" stroke="#F47D21" stroke-linecap="round" stroke-linejoin="round"/>
<path d="M23.9999 15.4004C23.9999 18.4964 21.4959 21.0004 18.3999 21.0004L19.2399 19.6004" stroke="#F47D21" stroke-linecap="round" stroke-linejoin="round"/>
<path d="M8 10.6C8 7.504 10.504 5 13.6 5L12.76 6.4" stroke="#F47D21" stroke-linecap="round" stroke-linejoin="round"/>
<path d="M37.016 17.096C36.376 17.096 35.784 16.992 35.24 16.784C34.704 16.568 34.236 16.268 33.836 15.884C33.444 15.492 33.136 15.036 32.912 14.516C32.688 13.996 32.576 13.424 32.576 12.8C32.576 12.176 32.688 11.604 32.912 11.084C33.136 10.564 33.448 10.112 33.848 9.728C34.248 9.336 34.716 9.036 35.252 8.828C35.796 8.612 36.388 8.504 37.028 8.504C37.676 8.504 38.272 8.616 38.816 8.84C39.368 9.056 39.836 9.38 40.22 9.812L39.44 10.568C39.12 10.232 38.76 9.984 38.36 9.824C37.96 9.656 37.532 9.572 37.076 9.572C36.604 9.572 36.164 9.652 35.756 9.812C35.356 9.972 35.008 10.196 34.712 10.484C34.416 10.772 34.184 11.116 34.016 11.516C33.856 11.908 33.776 12.336 33.776 12.8C33.776 13.264 33.856 13.696 34.016 14.096C34.184 14.488 34.416 14.828 34.712 15.116C35.008 15.404 35.356 15.628 35.756 15.788C36.164 15.948 36.604 16.028 37.076 16.028C37.532 16.028 37.96 15.948 38.36 15.788C38.76 15.62 39.12 15.364 39.44 15.02L40.22 15.776C39.836 16.208 39.368 16.536 38.816 16.76C38.272 16.984 37.672 17.096 37.016 17.096ZM43.9783 17.072C43.3383 17.072 42.7703 16.932 42.2743 16.652C41.7783 16.372 41.3863 15.988 41.0983 15.5C40.8103 15.004 40.6663 14.444 40.6663 13.82C40.6663 13.188 40.8103 12.628 41.0983 12.14C41.3863 11.652 41.7783 11.272 42.2743 11C42.7703 10.72 43.3383 10.58 43.9783 10.58C44.6103 10.58 45.1743 10.72 45.6703 11C46.1743 11.272 46.5663 11.652 46.8463 12.14C47.1343 12.62 47.2783 13.18 47.2783 13.82C47.2783 14.452 47.1343 15.012 46.8463 15.5C46.5663 15.988 46.1743 16.372 45.6703 16.652C45.1743 16.932 44.6103 17.072 43.9783 17.072ZM43.9783 16.064C44.3863 16.064 44.7503 15.972 45.0703 15.788C45.3983 15.604 45.6543 15.344 45.8383 15.008C46.0223 14.664 46.1143 14.268 46.1143 13.82C46.1143 13.364 46.0223 12.972 45.8383 12.644C45.6543 12.308 45.3983 12.048 45.0703 11.864C44.7503 11.68 44.3863 11.588 43.9783 11.588C43.5703 11.588 43.2063 11.68 42.8863 11.864C42.5663 12.048 42.3103 12.308 42.1183 12.644C41.9263 12.972 41.8303 13.364 41.8303 13.82C41.8303 14.268 41.9263 14.664 42.1183 15.008C42.3103 15.344 42.5663 15.604 42.8863 15.788C43.2063 15.972 43.5703 16.064 43.9783 16.064ZM56.5875 10.58C57.0995 10.58 57.5515 10.68 57.9435 10.88C58.3355 11.08 58.6395 11.384 58.8555 11.792C59.0795 12.2 59.1915 12.716 59.1915 13.34V17H58.0395V13.472C58.0395 12.856 57.8955 12.392 57.6075 12.08C57.3195 11.768 56.9155 11.612 56.3955 11.612C56.0115 11.612 55.6755 11.692 55.3875 11.852C55.0995 12.012 54.8755 12.248 54.7155 12.56C54.5635 12.872 54.4875 13.26 54.4875 13.724V17H53.3355V13.472C53.3355 12.856 53.1915 12.392 52.9035 12.08C52.6235 11.768 52.2195 11.612 51.6915 11.612C51.3155 11.612 50.9835 11.692 50.6955 11.852C50.4075 12.012 50.1835 12.248 50.0235 12.56C49.8635 12.872 49.7835 13.26 49.7835 13.724V17H48.6315V10.64H49.7355V12.332L49.5555 11.9C49.7555 11.484 50.0635 11.16 50.4795 10.928C50.8955 10.696 51.3795 10.58 51.9315 10.58C52.5395 10.58 53.0635 10.732 53.5035 11.036C53.9435 11.332 54.2315 11.784 54.3675 12.392L53.8995 12.2C54.0915 11.712 54.4275 11.32 54.9075 11.024C55.3875 10.728 55.9475 10.58 56.5875 10.58ZM64.4432 17.072C63.9152 17.072 63.4312 16.952 62.9912 16.712C62.5592 16.464 62.2112 16.1 61.9472 15.62C61.6912 15.14 61.5632 14.54 61.5632 13.82C61.5632 13.1 61.6872 12.5 61.9352 12.02C62.1912 11.54 62.5352 11.18 62.9672 10.94C63.4072 10.7 63.8992 10.58 64.4432 10.58C65.0672 10.58 65.6192 10.716 66.0992 10.988C66.5792 11.26 66.9592 11.64 67.2392 12.128C67.5192 12.608 67.6592 13.172 67.6592 13.82C67.6592 14.468 67.5192 15.036 67.2392 15.524C66.9592 16.012 66.5792 16.392 66.0992 16.664C65.6192 16.936 65.0672 17.072 64.4432 17.072ZM61.0712 19.328V10.64H62.1752V12.356L62.1032 13.832L62.2232 15.308V19.328H61.0712ZM64.3472 16.064C64.7552 16.064 65.1192 15.972 65.4392 15.788C65.7672 15.604 66.0232 15.344 66.2072 15.008C66.3992 14.664 66.4952 14.268 66.4952 13.82C66.4952 13.364 66.3992 12.972 66.2072 12.644C66.0232 12.308 65.7672 12.048 65.4392 11.864C65.1192 11.68 64.7552 11.588 64.3472 11.588C63.9472 11.588 63.5832 11.68 63.2552 11.864C62.9352 12.048 62.6792 12.308 62.4872 12.644C62.3032 12.972 62.2112 13.364 62.2112 13.82C62.2112 14.268 62.3032 14.664 62.4872 15.008C62.6792 15.344 62.9352 15.604 63.2552 15.788C63.5832 15.972 63.9472 16.064 64.3472 16.064ZM72.9003 17V15.656L72.8403 15.404V13.112C72.8403 12.624 72.6963 12.248 72.4083 11.984C72.1283 11.712 71.7043 11.576 71.1363 11.576C70.7603 11.576 70.3923 11.64 70.0323 11.768C69.6723 11.888 69.3683 12.052 69.1203 12.26L68.6403 11.396C68.9683 11.132 69.3603 10.932 69.8163 10.796C70.2803 10.652 70.7643 10.58 71.2683 10.58C72.1403 10.58 72.8123 10.792 73.2843 11.216C73.7563 11.64 73.9923 12.288 73.9923 13.16V17H72.9003ZM70.8123 17.072C70.3403 17.072 69.9243 16.992 69.5643 16.832C69.2123 16.672 68.9403 16.452 68.7483 16.172C68.5563 15.884 68.4603 15.56 68.4603 15.2C68.4603 14.856 68.5403 14.544 68.7003 14.264C68.8683 13.984 69.1363 13.76 69.5043 13.592C69.8803 13.424 70.3843 13.34 71.0163 13.34H73.0323V14.168H71.0643C70.4883 14.168 70.1003 14.264 69.9003 14.456C69.7003 14.648 69.6003 14.88 69.6003 15.152C69.6003 15.464 69.7243 15.716 69.9723 15.908C70.2203 16.092 70.5643 16.184 71.0043 16.184C71.4363 16.184 71.8123 16.088 72.1323 15.896C72.4603 15.704 72.6963 15.424 72.8403 15.056L73.0683 15.848C72.9163 16.224 72.6483 16.524 72.2643 16.748C71.8803 16.964 71.3963 17.072 70.8123 17.072ZM75.8842 17V10.64H76.9882V12.368L76.8802 11.936C77.0562 11.496 77.3522 11.16 77.7682 10.928C78.1842 10.696 78.6962 10.58 79.3042 10.58V11.696C79.2562 11.688 79.2082 11.684 79.1602 11.684C79.1202 11.684 79.0802 11.684 79.0402 11.684C78.4242 11.684 77.9362 11.868 77.5762 12.236C77.2162 12.604 77.0362 13.136 77.0362 13.832V17H75.8842ZM83.2574 17.072C82.5774 17.072 81.9774 16.932 81.4574 16.652C80.9454 16.372 80.5454 15.988 80.2574 15.5C79.9774 15.012 79.8374 14.452 79.8374 13.82C79.8374 13.188 79.9734 12.628 80.2454 12.14C80.5254 11.652 80.9054 11.272 81.3854 11C81.8734 10.72 82.4214 10.58 83.0294 10.58C83.6454 10.58 84.1894 10.716 84.6614 10.988C85.1334 11.26 85.5014 11.644 85.7654 12.14C86.0374 12.628 86.1734 13.2 86.1734 13.856C86.1734 13.904 86.1694 13.96 86.1614 14.024C86.1614 14.088 86.1574 14.148 86.1494 14.204H80.7374V13.376H85.5494L85.0814 13.664C85.0894 13.256 85.0054 12.892 84.8294 12.572C84.6534 12.252 84.4094 12.004 84.0974 11.828C83.7934 11.644 83.4374 11.552 83.0294 11.552C82.6294 11.552 82.2734 11.644 81.9614 11.828C81.6494 12.004 81.4054 12.256 81.2294 12.584C81.0534 12.904 80.9654 13.272 80.9654 13.688V13.88C80.9654 14.304 81.0614 14.684 81.2534 15.02C81.4534 15.348 81.7294 15.604 82.0814 15.788C82.4334 15.972 82.8374 16.064 83.2934 16.064C83.6694 16.064 84.0094 16 84.3134 15.872C84.6254 15.744 84.8974 15.552 85.1294 15.296L85.7654 16.04C85.4774 16.376 85.1174 16.632 84.6854 16.808C84.2614 16.984 83.7854 17.072 83.2574 17.072Z" fill="#F47D21"/>
</svg>
