<svg width="20" height="21" viewBox="0 0 20 21" fill="none" xmlns="http://www.w3.org/2000/svg">
<path d="M4.16667 18.8581C4.05616 18.8581 3.95018 18.8142 3.87204 18.736C3.7939 18.6579 3.75 18.5519 3.75 18.4414V2.60807C3.75 2.49757 3.7939 2.39159 3.87204 2.31345C3.95018 2.23531 4.05616 2.19141 4.16667 2.19141C4.27717 2.19141 4.38315 2.23531 4.46129 2.31345C4.53943 2.39159 4.58333 2.49757 4.58333 2.60807V18.4414C4.58333 18.5519 4.53943 18.6579 4.46129 18.736C4.38315 18.8142 4.27717 18.8581 4.16667 18.8581Z" fill="#F47D21"/>
<path d="M15.8333 13.4427H4.16667C4.05616 13.4427 3.95018 13.3988 3.87204 13.3207C3.7939 13.2425 3.75 13.1365 3.75 13.026V4.27604C3.75 4.16554 3.7939 4.05956 3.87204 3.98142C3.95018 3.90328 4.05616 3.85938 4.16667 3.85938H15.8333C15.9083 3.85917 15.9819 3.87919 16.0464 3.91732C16.111 3.95545 16.164 4.01029 16.2 4.07604C16.2366 4.13938 16.2558 4.21124 16.2558 4.28438C16.2558 4.35752 16.2366 4.42937 16.2 4.49271L13.6042 8.44271L16.1917 12.801C16.2324 12.8645 16.2552 12.9379 16.2575 13.0133C16.2598 13.0888 16.2416 13.1634 16.2048 13.2293C16.168 13.2951 16.114 13.3498 16.0486 13.3874C15.9832 13.425 15.9088 13.4441 15.8333 13.4427ZM4.58333 12.6094H15.1L12.7542 8.65521C12.7128 8.58899 12.6908 8.51247 12.6908 8.43438C12.6908 8.35628 12.7128 8.27977 12.7542 8.21354L15.0625 4.69271H4.58333V12.6094Z" fill="#F47D21"/>
<g opacity="0.35">
<path d="M15.0626 4.27544H14.4042C14.3319 4.27545 14.2609 4.29428 14.198 4.33008C14.1352 4.36587 14.0828 4.4174 14.0459 4.4796L11.8001 8.2296C11.7595 8.29536 11.738 8.3711 11.738 8.44835C11.738 8.52561 11.7595 8.60135 11.8001 8.6671L13.3334 11.1379C13.3721 11.1996 13.3939 11.2703 13.3967 11.343C13.3996 11.4157 13.3833 11.4878 13.3496 11.5523C13.3159 11.6168 13.2659 11.6713 13.2046 11.7104C13.1433 11.7496 13.0728 11.772 13.0001 11.7754H4.58341C4.47291 11.7754 4.36693 11.8193 4.28879 11.8975C4.21065 11.9756 4.16675 12.0816 4.16675 12.1921V12.6088C4.16675 12.7193 4.21065 12.8253 4.28879 12.9034C4.36693 12.9815 4.47291 13.0254 4.58341 13.0254H15.1001C15.1736 13.0254 15.2459 13.0059 15.3094 12.969C15.373 12.932 15.4257 12.8789 15.4621 12.815C15.4985 12.7511 15.5173 12.6787 15.5167 12.6051C15.516 12.5316 15.4959 12.4595 15.4584 12.3963L13.2417 8.6671C13.2004 8.60088 13.1784 8.52436 13.1784 8.44627C13.1784 8.36818 13.2004 8.29166 13.2417 8.22544L15.4167 4.92127C15.4584 4.85801 15.4821 4.78459 15.4851 4.70891C15.4882 4.63322 15.4706 4.55813 15.4341 4.49171C15.3977 4.42529 15.3439 4.37006 15.2784 4.33195C15.2129 4.29385 15.1383 4.27431 15.0626 4.27544Z" fill="#F47D21"/>
</g>
</svg>
