<svg width="20" height="21" viewBox="0 0 20 21" fill="none" xmlns="http://www.w3.org/2000/svg">
<path d="M16.2807 6.41444C16.2957 6.26156 16.1699 6.10038 16.0175 6.02098L9.28581 2.56753C9.23247 2.53982 9.17354 2.52539 9.11376 2.52539C9.05399 2.52539 8.99505 2.53982 8.94172 2.56753L2.21354 6.02098C1.96298 6.18927 2.00223 6.56258 2.00223 6.60169V13.9732C2.00223 14.1095 2.07151 14.2375 2.18698 14.3097C2.18698 14.3097 8.77083 18.3937 8.88399 18.4458C9.11492 18.5632 9.2604 18.5312 9.36894 18.4743L11.5605 17.173C11.7475 17.0604 11.7625 16.8898 11.7383 16.5947C11.714 16.3008 11.4635 16.1408 11.2799 16.2498C11.0952 16.3576 9.64606 17.2536 9.64606 17.2536V10.5221L15.4517 7.05204L16.0625 6.6728C16.1837 6.59221 16.2634 6.4891 16.2796 6.41444H16.2807ZM8.60225 17.1718L3.00679 13.671V7.22744L8.6011 10.5245V17.1706L8.60225 17.1718ZM9.11376 9.45073L3.79195 6.354L9.11376 3.62466L14.4344 6.354L9.11376 9.45073ZM17.8638 14.8928L14.8732 16.7357C14.7058 16.8554 14.5291 16.7215 14.5291 16.7215C14.5129 16.7179 11.5512 14.8928 11.5512 14.8928C11.5087 14.8668 11.4734 14.8298 11.4489 14.7856C11.4244 14.7413 11.4115 14.6913 11.4115 14.6404V11.3457C11.4115 11.2391 11.4646 11.053 11.6771 10.9689L14.5788 9.32155C14.6185 9.30234 14.6618 9.29237 14.7058 9.29237C14.7497 9.29237 14.7931 9.30234 14.8328 9.32155L17.7379 10.9689H17.7148C17.7229 10.9689 17.7344 10.9689 17.7425 10.9736L17.8176 11.0127C17.9122 11.0589 18 11.1431 18 11.2616V14.6392C18.0001 14.6899 17.9877 14.7397 17.9638 14.7841C17.94 14.8285 17.9056 14.8659 17.8638 14.8928ZM12.5327 11.2877L14.6896 12.5309L16.8777 11.2877L14.6896 10.0504L12.5327 11.2877ZM15.1191 15.7912L17.3245 14.4259V11.9679L15.1191 13.2514V15.79V15.7912ZM14.3374 15.7509V13.2633L12.1748 12.007V14.4129L14.3374 15.752V15.7509Z" fill="#F47D21"/>
</svg>
