<svg width="20" height="21" viewBox="0 0 20 21" fill="none" xmlns="http://www.w3.org/2000/svg">
<path d="M2.5 8.85872C2.5 7.28737 2.5 6.5017 2.98816 6.01355C3.47631 5.52539 4.26198 5.52539 5.83333 5.52539H14.1667C15.738 5.52539 16.5237 5.52539 17.0118 6.01355C17.5 6.5017 17.5 7.28737 17.5 8.85872H2.5Z" fill="#F47D21" fill-opacity="0.24"/>
<path d="M15.8333 5.52539H4.16667C3.24619 5.52539 2.5 6.27158 2.5 7.19206V16.3587C2.5 17.2792 3.24619 18.0254 4.16667 18.0254H15.8333C16.7538 18.0254 17.5 17.2792 17.5 16.3587V7.19206C17.5 6.27158 16.7538 5.52539 15.8333 5.52539Z" stroke="#F47D21"/>
<path d="M5.83325 3.02539V5.52539" stroke="#F47D21" stroke-linecap="round"/>
<path d="M14.1667 3.02539V5.52539" stroke="#F47D21" stroke-linecap="round"/>
<path d="M8.625 11.5254H6.375C6.16789 11.5254 6 11.6373 6 11.7754V12.2754C6 12.4135 6.16789 12.5254 6.375 12.5254H8.625C8.83211 12.5254 9 12.4135 9 12.2754V11.7754C9 11.6373 8.83211 11.5254 8.625 11.5254Z" fill="#F47D21"/>
<path d="M8.625 14.5254H6.375C6.16789 14.5254 6 14.6373 6 14.7754V15.2754C6 15.4135 6.16789 15.5254 6.375 15.5254H8.625C8.83211 15.5254 9 15.4135 9 15.2754V14.7754C9 14.6373 8.83211 14.5254 8.625 14.5254Z" fill="#F47D21"/>
<path d="M13.625 11.5254H11.375C11.1679 11.5254 11 11.6373 11 11.7754V12.2754C11 12.4135 11.1679 12.5254 11.375 12.5254H13.625C13.8321 12.5254 14 12.4135 14 12.2754V11.7754C14 11.6373 13.8321 11.5254 13.625 11.5254Z" fill="#F47D21"/>
<path d="M13.625 14.5254H11.375C11.1679 14.5254 11 14.6373 11 14.7754V15.2754C11 15.4135 11.1679 15.5254 11.375 15.5254H13.625C13.8321 15.5254 14 15.4135 14 15.2754V14.7754C14 14.6373 13.8321 14.5254 13.625 14.5254Z" fill="#F47D21"/>
</svg>
