<svg width="32" height="32" viewBox="0 0 32 32" fill="none" xmlns="http://www.w3.org/2000/svg">
<circle opacity="0.7" cx="16" cy="16" r="16" fill="white"/>
<path d="M24.5625 11.2417C24.2832 10.5951 23.8806 10.0092 23.3771 9.51668C22.8732 9.02273 22.2791 8.6302 21.6271 8.36043C20.951 8.07958 20.2259 7.93583 19.4938 7.93751C18.4667 7.93751 17.4646 8.21876 16.5938 8.75001C16.3854 8.8771 16.1875 9.01668 16 9.16876C15.8125 9.01668 15.6146 8.8771 15.4062 8.75001C14.5354 8.21876 13.5333 7.93751 12.5062 7.93751C11.7667 7.93751 11.05 8.07918 10.3729 8.36043C9.71875 8.63126 9.12917 9.02085 8.62292 9.51668C8.11874 10.0086 7.716 10.5947 7.4375 11.2417C7.14792 11.9146 7 12.6292 7 13.3646C7 14.0583 7.14167 14.7813 7.42292 15.5167C7.65833 16.1313 7.99583 16.7688 8.42708 17.4125C9.11042 18.4312 10.05 19.4937 11.2167 20.5708C13.15 22.3562 15.0646 23.5896 15.1458 23.6396L15.6396 23.9562C15.8583 24.0958 16.1396 24.0958 16.3583 23.9562L16.8521 23.6396C16.9333 23.5875 18.8458 22.3562 20.7812 20.5708C21.9479 19.4937 22.8875 18.4312 23.5708 17.4125C24.0021 16.7688 24.3417 16.1313 24.575 15.5167C24.8563 14.7813 24.9979 14.0583 24.9979 13.3646C25 12.6292 24.8521 11.9146 24.5625 11.2417Z" fill="#F47D21"/>
</svg>
