<svg width="20" height="21" viewBox="0 0 20 21" fill="none" xmlns="http://www.w3.org/2000/svg">
<path d="M10.5 18.5254C15.1944 18.5254 19 14.7198 19 10.0254C19 5.33097 15.1944 1.52539 10.5 1.52539C5.80558 1.52539 2 5.33097 2 10.0254C2 14.7198 5.80558 18.5254 10.5 18.5254Z" stroke="#F47D21" stroke-width="0.7"/>
<path d="M10.4999 17.4295C14.5886 17.4295 17.9031 14.115 17.9031 10.0263C17.9031 5.93758 14.5886 2.62305 10.4999 2.62305C6.41122 2.62305 3.09668 5.93758 3.09668 10.0263C3.09668 14.115 6.41122 17.4295 10.4999 17.4295Z" stroke="#F47D21" stroke-width="0.7"/>
<path d="M3.37085 12.055C3.7273 11.9727 4.08375 11.9453 4.46762 11.9453C7.18214 11.9453 9.40311 13.9743 9.40311 16.4695C9.40311 16.7711 9.37569 17.0453 9.32085 17.3195" stroke="#F47D21" stroke-width="0.7"/>
<path d="M17.8759 9.36707C15.9839 8.07836 13.3791 7.2832 10.5001 7.2832C7.62104 7.2832 5.0162 8.07836 3.12427 9.36707" stroke="#F47D21" stroke-width="0.7"/>
<path d="M11.6789 17.3195C11.6241 17.0453 11.5967 16.7437 11.5967 16.4695C11.5967 13.9743 13.8176 11.9453 16.5322 11.9453C16.916 11.9453 17.2725 11.9727 17.6289 12.055" stroke="#F47D21" stroke-width="0.7"/>
<path d="M10.5001 10.8483C10.9544 10.8483 11.3227 10.48 11.3227 10.0257C11.3227 9.57141 10.9544 9.20312 10.5001 9.20312C10.0458 9.20312 9.67749 9.57141 9.67749 10.0257C9.67749 10.48 10.0458 10.8483 10.5001 10.8483Z" stroke="#F47D21" stroke-width="0.7"/>
</svg>
