<svg width="20" height="21" viewBox="0 0 20 21" fill="none" xmlns="http://www.w3.org/2000/svg">
<path d="M7.66705 8.0698C7.36048 7.81351 6.91896 7.84614 6.66014 8.11644C6.59442 8.15783 6.53063 8.20451 6.47883 8.26728C6.20802 8.59547 6.28997 9.10773 6.60576 9.37581C7.42647 10.0726 8.48961 8.75737 7.66705 8.0698Z" fill="#F47D21"/>
<path d="M12.4908 11.1086C12.4395 11.1157 12.3913 11.1318 12.3431 11.1477C12.3272 11.1506 12.3119 11.1559 12.296 11.1602C12.2947 11.1608 12.2933 11.1611 12.292 11.1616C12.118 11.2103 11.9532 11.3437 11.8608 11.5291C11.8603 11.5298 11.8606 11.5305 11.8601 11.5312C11.7221 11.7603 11.6912 12.0472 11.8419 12.3086C11.8499 12.3226 11.862 12.3322 11.8708 12.3455C11.9727 12.5631 12.1437 12.7492 12.378 12.8359C12.9251 13.0383 13.5506 12.6859 13.6057 12.0898C13.6621 11.4827 13.0639 11.0294 12.4908 11.1086Z" fill="#F47D21"/>
<path d="M19.8588 9.09598C19.9694 8.94122 19.8767 8.73204 19.7386 8.63733C19.196 8.26531 18.3737 7.82241 17.653 7.67245C18.1235 7.17683 18.5175 6.55525 18.9212 6.02866C19.0549 5.85431 18.8733 5.58949 18.6735 5.59724C18.3059 5.61143 17.9381 5.62282 17.5708 5.64176C17.2237 5.65964 16.8375 5.73287 16.4948 5.66558C16.4688 5.66047 16.4452 5.66356 16.4209 5.66402C16.6288 5.11784 16.8128 4.56065 17.0019 4.00802C17.0987 3.72458 17.2661 3.29316 16.8881 3.12734C16.5333 2.97156 15.8688 3.29915 15.5299 3.39893C15.2471 3.48221 14.9641 3.57655 14.6833 3.6761C14.6357 3.68854 14.5883 3.70103 14.5408 3.71347C14.6102 3.01576 14.6374 2.31482 14.5966 1.61342C14.585 1.41589 14.3537 1.22883 14.1639 1.36511C13.5238 1.82515 12.8799 2.29607 12.273 2.80275C12.0509 2.10485 11.8061 1.41198 11.5639 0.722744C11.499 0.537981 11.2175 0.401056 11.0697 0.592225C10.7023 1.06697 10.2226 1.56992 9.89753 2.10914C9.51353 1.55913 9.01795 1.04969 8.58474 0.598862C8.41726 0.424699 8.12893 0.516919 8.06188 0.736847C7.82872 1.50226 7.51261 2.22357 7.18696 2.95069C7.02635 2.81579 6.86274 2.6832 6.71199 2.5453C6.34182 2.20679 5.98409 1.8551 5.63106 1.49885C5.51027 1.377 5.24734 1.38202 5.16982 1.55826C4.9545 2.04862 5.0234 2.61918 5.06193 3.14264C5.07649 3.341 5.07792 3.60466 5.10982 3.85759C4.51409 3.62724 3.91127 3.41156 3.31758 3.18647C3.08484 3.0983 2.88588 3.35717 2.9363 3.56765C3.11166 4.29869 3.26804 5.04963 3.51935 5.762C2.8185 5.71047 2.12637 5.6583 1.42971 5.51645C1.18476 5.46658 0.932205 5.726 1.08508 5.9646C1.45013 6.53373 1.84855 7.14129 2.31224 7.66899C2.1095 7.74559 1.9116 7.84159 1.71854 7.9256C1.22177 8.1418 0.736427 8.38104 0.259425 8.63783C0.0207402 8.76637 0.0523099 9.09691 0.259425 9.23273C0.785049 9.57741 1.29385 9.94583 1.80426 10.3119C1.28666 10.7258 0.779472 11.152 0.244862 11.5451C0.0309715 11.7023 0.0500055 12.0253 0.31897 12.1126C0.738639 12.2487 1.15577 12.3921 1.56858 12.5479C1.80076 12.6354 2.0329 12.7446 2.26832 12.8382C1.84934 13.4128 1.48534 14.031 1.08503 14.6178C0.944648 14.8234 1.13176 15.1003 1.36206 15.1006C2.05387 15.1015 2.74426 15.1245 3.43496 15.1474C3.27914 15.7829 3.13927 16.4226 2.97907 17.0572C2.92349 17.2768 3.13535 17.5439 3.37528 17.4535C3.82998 17.2822 4.28467 17.1109 4.73946 16.9395C4.8703 16.8902 5.0481 16.8462 5.21729 16.7868C5.11083 17.5397 5.12991 18.3317 5.06327 19.081C5.0452 19.285 5.27264 19.4213 5.45044 19.3759C5.8932 19.2627 6.20001 18.9337 6.56727 18.6785C6.81186 18.5086 7.10009 18.3758 7.35969 18.2147C7.52459 18.9049 7.80715 19.5904 7.98828 20.268C8.0658 20.5585 8.43062 20.5669 8.58667 20.3462C9.00689 19.7516 9.46947 19.1465 9.83692 18.5121C9.93546 18.6703 10.0417 18.8244 10.1416 18.9781C10.4015 19.3779 10.6624 19.778 10.9342 20.1699C11.0596 20.3509 11.3767 20.4049 11.4893 20.1699C11.7692 19.5854 12.0291 18.9848 12.2727 18.3798C12.4253 18.5485 12.583 18.7088 12.7364 18.8453C13.0851 19.1557 13.6889 19.7396 14.1873 19.5981C14.2761 19.5729 14.3249 19.5042 14.3545 19.4276C14.3874 19.3913 14.413 19.3504 14.4206 19.3038C14.5527 18.4936 14.6597 17.6569 14.6518 16.8313C14.8908 16.9541 15.1479 17.0527 15.3897 17.1482C15.8476 17.3289 16.3076 17.5041 16.7665 17.6816C16.9786 17.7637 17.2327 17.5107 17.15 17.2982C16.9818 16.8663 16.8118 16.4374 16.6745 15.9943C16.5983 15.7487 16.5396 15.494 16.4671 15.2452L16.4514 15.032C17.1576 15.1068 17.9026 15.0611 18.5978 15.0712C18.8376 15.0747 19.016 14.788 18.88 14.5795C18.53 14.042 18.1903 13.3874 17.7615 12.8673C17.9598 12.8076 18.1551 12.7274 18.3449 12.6629C18.7574 12.5227 19.1661 12.3731 19.5751 12.2229C19.8441 12.1241 19.9255 11.7548 19.657 11.5958C19.1143 11.2744 18.61 10.9157 18.1086 10.5457C18.7465 10.1434 19.4316 9.69383 19.8588 9.09598ZM6.4286 10.8005C6.27121 10.7243 6.11239 10.6245 5.95109 10.481C4.78412 9.44191 4.90017 7.36371 6.48358 6.82173C7.9556 6.31781 9.6405 7.28527 9.30093 8.99091C9.01749 10.4143 7.68101 10.8237 6.4286 10.8005ZM8.42882 14.044C8.08621 14.0331 7.73987 14.0572 7.40246 14.0851C7.20378 14.1015 6.99257 14.1156 6.78421 14.1431C8.66626 11.7591 10.105 9.16281 11.6304 6.57359C11.9113 6.55746 12.1915 6.53285 12.4726 6.50054C10.8284 8.78093 9.46454 11.4989 8.42882 14.044ZM12.5842 14.0889C12.0786 14.1265 11.6318 14.0446 11.2771 13.8257C10.435 12.9683 10.2268 11.5736 11.1218 10.5991C12.1302 9.50114 13.9408 9.75669 14.5923 11.0905C15.2968 12.5326 14.0415 13.9802 12.5842 14.0889Z" fill="#F47D21"/>
<path d="M12.4329 17.6808C12.4361 17.6808 12.4361 17.6758 12.4329 17.6758V17.6808Z" fill="#F47D21"/>
</svg>
