<svg width="12" height="12" viewBox="0 0 12 12" fill="none" xmlns="http://www.w3.org/2000/svg">
<path fill-rule="evenodd" clip-rule="evenodd" d="M5.50008 1.59439C5.53462 1.48487 5.60317 1.38921 5.69579 1.32131C5.7884 1.25341 5.90024 1.2168 6.01508 1.2168C6.12992 1.2168 6.24177 1.25341 6.33438 1.32131C6.42699 1.38921 6.49555 1.48487 6.53008 1.59439L7.46008 4.45439H10.4601C10.579 4.4499 10.6962 4.48446 10.7936 4.55281C10.8911 4.62116 10.9635 4.71953 10.9997 4.8329C11.036 4.94627 11.0342 5.06839 10.9945 5.18062C10.9549 5.29285 10.8795 5.389 10.7801 5.45439L8.34508 7.21939L9.27508 10.0844C9.31186 10.1935 9.31279 10.3116 9.27773 10.4213C9.24267 10.531 9.17345 10.6266 9.0802 10.6941C8.98694 10.7617 8.87452 10.7977 8.75936 10.7968C8.6442 10.796 8.53233 10.7583 8.44008 10.6894L6.00008 8.90439L3.56508 10.6744C3.47284 10.7433 3.36097 10.781 3.2458 10.7818C3.13064 10.7827 3.01823 10.7467 2.92497 10.6791C2.83171 10.6116 2.7625 10.516 2.72744 10.4063C2.69238 10.2966 2.6933 10.1785 2.73008 10.0694L3.66008 7.20439L1.22508 5.43939C1.12562 5.374 1.05031 5.27785 1.01064 5.16562C0.970978 5.05339 0.969144 4.93127 1.00542 4.8179C1.0417 4.70453 1.11409 4.60616 1.21154 4.53781C1.30899 4.46946 1.42614 4.4349 1.54508 4.43939H4.54508L5.50008 1.59439Z" fill="#FBAD39"/>
</svg>
