<svg width="20" height="21" viewBox="0 0 20 21" fill="none" xmlns="http://www.w3.org/2000/svg">
<path d="M10.6798 17.6985C14.0423 15.9839 16.6666 13.1445 16.6666 9.69206C16.6666 6.01016 13.6818 3.02539 9.99992 3.02539C6.31802 3.02539 3.33325 6.01016 3.33325 9.69206C3.33325 13.1445 5.95749 15.9839 9.32 17.6985C9.74725 17.9163 10.2526 17.9163 10.6798 17.6985Z" stroke="#F47D21" stroke-width="0.7" stroke-linecap="round" stroke-linejoin="round"/>
<path d="M12.5 9.69141C12.5 11.0722 11.3807 12.1914 10 12.1914C8.61925 12.1914 7.5 11.0722 7.5 9.69141C7.5 8.3107 8.61925 7.19141 10 7.19141C11.3807 7.19141 12.5 8.3107 12.5 9.69141Z" stroke="#F47D21" stroke-width="0.7" stroke-linecap="round" stroke-linejoin="round"/>
</svg>
