<svg width="20" height="21" viewBox="0 0 20 21" fill="none" xmlns="http://www.w3.org/2000/svg">
<path d="M3.20377 7.12727C2.26541 6.18892 2.26541 4.66752 3.20377 3.72917C4.14213 2.7908 5.66352 2.7908 6.60188 3.72917L16.7963 13.9235C17.7346 14.8619 17.7346 16.3832 16.7963 17.3216C15.8578 18.26 14.3365 18.26 13.3981 17.3216L3.20377 7.12727Z" stroke="#F47D21" stroke-width="0.7"/>
<path d="M5 8.85872L8.33333 5.52539" stroke="#F47D21" stroke-width="0.7" stroke-linecap="round"/>
<path d="M13.4167 2.4474C13.5509 2.10607 14.0321 2.10607 14.1662 2.4474L14.5249 3.36013C14.5659 3.46434 14.6481 3.54683 14.7519 3.58793L15.6612 3.94791C16.0013 4.08253 16.0013 4.56558 15.6612 4.70019L14.7519 5.06018C14.6481 5.10128 14.5659 5.18376 14.5249 5.28797L14.1663 6.2007C14.0321 6.54203 13.5509 6.54203 13.4167 6.20071L13.0581 5.28797C13.0171 5.18376 12.935 5.10128 12.8311 5.06018L11.9218 4.70019C11.5817 4.56558 11.5817 4.08253 11.9218 3.94791L12.8311 3.58793C12.935 3.54683 13.0171 3.46434 13.0581 3.36013L13.4167 2.4474Z" stroke="#F47D21" stroke-width="0.7"/>
<path d="M16.6394 8.13294C16.7735 7.79162 17.2548 7.79162 17.3889 8.13294L17.5197 8.46573C17.5607 8.56994 17.6428 8.65243 17.7467 8.69352L18.0782 8.82477C18.4182 8.9594 18.4182 9.44248 18.0782 9.57707L17.7467 9.70832C17.6428 9.7494 17.5607 9.8319 17.5197 9.93607L17.3889 10.2689C17.2548 10.6102 16.7735 10.6102 16.6394 10.2689L16.5087 9.93607C16.4677 9.8319 16.3855 9.7494 16.2817 9.70832L15.9501 9.57707C15.6101 9.44248 15.6101 8.9594 15.9501 8.82477L16.2817 8.69352C16.3855 8.65243 16.4677 8.56994 16.5087 8.46573L16.6394 8.13294Z" stroke="#F47D21" stroke-width="0.7"/>
<path d="M4.27759 13.2814C4.4117 12.9401 4.89298 12.9401 5.02709 13.2814L5.15786 13.6141C5.19881 13.7184 5.28099 13.8009 5.38482 13.842L5.71638 13.9732C6.05644 14.1078 6.05644 14.5909 5.71638 14.7255L5.38482 14.8567C5.28099 14.8978 5.19881 14.9803 5.15786 15.0846L5.02709 15.4173C4.89298 15.7586 4.4117 15.7586 4.27759 15.4173L4.14682 15.0846C4.10587 14.9803 4.02369 14.8978 3.91986 14.8567L3.5883 14.7255C3.24824 14.5909 3.24824 14.1078 3.5883 13.9732L3.91986 13.842C4.02369 13.8009 4.10587 13.7184 4.14682 13.6141L4.27759 13.2814Z" stroke="#F47D21" stroke-width="0.7"/>
</svg>
