<svg width="24" height="25" viewBox="0 0 24 25" fill="none" xmlns="http://www.w3.org/2000/svg">
<path d="M22 9.52492V15.5249C22 18.0249 21.5 19.7749 20.38 20.9049L14 14.5249L21.73 6.79492C21.91 7.58492 22 8.48492 22 9.52492Z" stroke="#333333" stroke-linecap="round" stroke-linejoin="round"/>
<path d="M21.73 6.79539L6.26999 22.2554C3.25999 21.5654 2 19.4854 2 15.5254V9.52539C2 4.52539 4 2.52539 9 2.52539H15C18.96 2.52539 21.04 3.78539 21.73 6.79539Z" stroke="#333333" stroke-linecap="round" stroke-linejoin="round"/>
<path d="M20.38 20.9054C19.25 22.0254 17.5 22.5254 15 22.5254H9.00003C7.96003 22.5254 7.06002 22.4354 6.27002 22.2554L14 14.5254L20.38 20.9054Z" stroke="#333333" stroke-linecap="round" stroke-linejoin="round"/>
<path d="M6.24002 8.50609C6.92002 5.57609 11.32 5.57609 12 8.50609C12.39 10.2261 11.31 11.6861 10.36 12.5861C9.67001 13.2461 8.58003 13.2461 7.88003 12.5861C6.93003 11.6861 5.84002 10.2261 6.24002 8.50609Z" stroke="#333333"/>
<path d="M9.0946 9.22461H9.10359" stroke="#333333" stroke-linecap="round" stroke-linejoin="round"/>
</svg>
