<svg width="20" height="21" viewBox="0 0 20 21" fill="none" xmlns="http://www.w3.org/2000/svg">
<g clip-path="url(#clip0_2091_15238)">
<path d="M5.6438 10.0295C5.81639 10.0295 5.9563 9.88732 5.9563 9.71199C5.9563 9.53666 5.81639 9.39453 5.6438 9.39453C5.47121 9.39453 5.3313 9.53666 5.3313 9.71199C5.3313 9.88732 5.47121 10.0295 5.6438 10.0295Z" fill="#F47D21"/>
<path d="M5.7813 19.165C5.36567 19.165 4.96567 18.9936 4.67505 18.7015C4.38442 18.4095 4.2188 18 4.2188 17.5841C4.2188 17.2761 4.30942 16.9746 4.4688 16.7206C4.28755 16.6 4.12192 16.4634 3.97192 16.3111C3.8188 16.1555 3.68442 15.9841 3.56567 15.8C3.31255 15.9682 3.0188 16.0603 2.72192 16.0603C2.3063 16.0603 1.9063 15.892 1.61567 15.5968C1.32505 15.3015 1.15942 14.8952 1.15942 14.4793C1.15942 14.0571 1.32505 13.6507 1.61567 13.3555C1.9063 13.0603 2.3063 12.892 2.71567 12.892C2.79067 12.892 2.85942 12.8952 2.92505 12.9047C3.10942 12.9301 3.2813 12.8412 3.35942 12.6761C3.51255 12.3492 3.7188 12.0507 3.97192 11.7936C4.2063 11.5555 4.47505 11.3587 4.77817 11.2063C4.9188 11.1365 4.99692 10.9714 4.97505 10.7873C4.9688 10.7269 4.96567 10.6698 4.96567 10.6126C4.96567 10.1904 5.1313 9.78408 5.42192 9.48884C5.71255 9.1936 6.11255 9.02535 6.52192 9.02535C6.59692 9.02535 6.66567 9.02852 6.7313 9.03805C6.9188 9.06344 7.08755 8.97455 7.16567 8.80947C7.3188 8.48249 7.52505 8.18408 7.77817 7.92693C8.01255 7.68884 8.2813 7.49201 8.58442 7.33963C8.72505 7.26979 8.80317 7.10471 8.7813 6.92059C8.77505 6.86344 8.77192 6.80312 8.77192 6.74598C8.77192 6.32376 8.93755 5.91741 9.22817 5.62217C9.51567 5.33011 9.91255 5.16186 10.3188 5.15868C10.3938 5.15551 10.4688 5.16185 10.5407 5.17138C10.7282 5.19678 10.8969 5.10789 10.975 4.94281C11.1282 4.61582 11.3344 4.31741 11.5875 4.06027C11.8407 3.80313 12.1313 3.5936 12.4563 3.43805C12.6188 3.35868 12.7063 3.18725 12.6813 2.99678C12.6719 2.92693 12.6688 2.86027 12.6688 2.79043C12.6688 2.3682 12.8344 1.96186 13.125 1.66662C13.4157 1.37138 13.8157 1.20312 14.225 1.20312C14.6407 1.20312 15.0407 1.37138 15.3313 1.66662C15.6219 1.96186 15.7875 2.3682 15.7875 2.78408C15.7875 3.08884 15.6969 3.38725 15.5313 3.64439C15.7125 3.76503 15.8813 3.90154 16.0344 4.05709C16.1875 4.21265 16.3219 4.3809 16.4375 4.56186C16.6875 4.39995 16.9813 4.30789 17.2813 4.30789C17.7 4.30789 18.1 4.47614 18.3907 4.77138C18.6813 5.06662 18.8469 5.47297 18.8469 5.88884C18.8469 6.20312 18.75 6.51106 18.575 6.77455C18.5625 6.819 18.5375 6.86027 18.5032 6.89519L18.275 7.12693C18.2375 7.16503 18.1938 7.19043 18.1469 7.2063C17.8907 7.3809 17.5907 7.47614 17.2907 7.47614C17.2125 7.47614 17.1469 7.46979 17.0782 7.46027C16.8938 7.4317 16.725 7.52059 16.65 7.67932C16.5313 7.93328 16.3813 8.17138 16.2 8.38408C16.1875 8.40947 16.1688 8.4317 16.15 8.45392L15.9219 8.68566C15.9 8.70789 15.8782 8.72376 15.8532 8.73963C15.6438 8.92376 15.4094 9.07614 15.1594 9.19678C15.0032 9.27297 14.9157 9.4444 14.9438 9.6317C14.9532 9.70154 14.9594 9.77138 14.9594 9.84122C14.9594 10.1555 14.8625 10.4634 14.6875 10.7269C14.675 10.7714 14.65 10.8126 14.6157 10.8476L14.3875 11.0793C14.35 11.1174 14.3063 11.1428 14.2594 11.1587C14.0032 11.3333 13.7 11.4285 13.4032 11.4285C13.3375 11.4285 13.2813 11.4253 13.225 11.419C13.0375 11.3968 12.8813 11.4793 12.8032 11.6349C12.6969 11.8476 12.5625 12.0507 12.4094 12.2349C12.3969 12.2666 12.375 12.2984 12.35 12.3238L12.1219 12.5555C12.1 12.5777 12.0782 12.5936 12.0532 12.6095C11.8438 12.7936 11.6094 12.946 11.3594 13.0666C11.2032 13.1428 11.1157 13.3142 11.1407 13.5015C11.15 13.5714 11.1563 13.6412 11.1563 13.7111C11.1563 14.0253 11.0594 14.3333 10.8844 14.5968C10.8719 14.6412 10.8469 14.6825 10.8125 14.7174L10.5844 14.9492C10.5469 14.9873 10.5032 15.0126 10.4563 15.0285C10.2 15.2031 9.90005 15.2984 9.60005 15.2984C9.5438 15.2984 9.4813 15.2952 9.42192 15.2888C9.23755 15.2666 9.07817 15.3492 9.00005 15.5047C8.89067 15.7174 8.75942 15.9206 8.6063 16.1047C8.59067 16.1365 8.57192 16.1682 8.54692 16.1936L8.3188 16.4253C8.29692 16.4476 8.27505 16.4634 8.25005 16.4793C8.04067 16.6634 7.8063 16.8158 7.5563 16.9365C7.40005 17.0126 7.31255 17.1841 7.34067 17.3714C7.35005 17.4412 7.3563 17.5111 7.3563 17.5809C7.3563 17.8952 7.25942 18.2063 7.0813 18.4698C7.0688 18.5142 7.0438 18.5555 7.01255 18.5873L6.78442 18.819C6.74692 18.8571 6.70317 18.8825 6.6563 18.8984C6.40005 19.073 6.10005 19.1682 5.80005 19.1682L5.7813 19.165ZM3.65317 14.9968C3.6688 14.9968 3.68755 14.9968 3.70317 15C3.80317 15.0158 3.88755 15.0825 3.9313 15.1746C4.05317 15.4317 4.21567 15.6603 4.40942 15.8571C4.6063 16.0571 4.83442 16.2222 5.08755 16.346C5.1813 16.3936 5.24692 16.4857 5.26255 16.5904C5.27505 16.6952 5.23755 16.8031 5.1563 16.873C5.15317 16.8761 5.12505 16.9015 5.1188 16.9047C4.93755 17.0857 4.83755 17.3301 4.83755 17.5777C4.83755 17.8253 4.93755 18.0761 5.11255 18.2507C5.28442 18.4285 5.52505 18.5269 5.7688 18.5301C5.77192 18.5301 5.77505 18.5301 5.7813 18.5301C5.9813 18.5301 6.17817 18.4571 6.34067 18.3301C6.3563 18.3174 6.37505 18.3079 6.39067 18.2984L6.47817 18.2095C6.48755 18.1904 6.49692 18.1746 6.50942 18.1587C6.63755 17.9904 6.7063 17.7873 6.7063 17.5873C6.7063 17.5396 6.7063 17.4984 6.69692 17.4603C6.63442 17 6.86255 16.5587 7.26567 16.365C7.4813 16.2603 7.6813 16.1269 7.86255 15.9619C7.87505 15.9492 7.88755 15.9396 7.90005 15.9333L8.0188 15.8095C8.02817 15.7904 8.0438 15.7682 8.05942 15.7523C8.20005 15.5904 8.32192 15.4095 8.4188 15.219C8.61567 14.8285 9.02505 14.6126 9.4688 14.6634C9.5063 14.6666 9.54067 14.6634 9.57817 14.6698C9.77817 14.6698 9.97505 14.5968 10.1407 14.4666C10.1563 14.4539 10.175 14.4444 10.1938 14.4349L10.2813 14.346C10.2907 14.3269 10.3 14.3111 10.3125 14.2952C10.4407 14.1269 10.5094 13.9238 10.5094 13.7238C10.5094 13.6761 10.5094 13.6349 10.5 13.5936C10.4375 13.1333 10.6657 12.692 11.0688 12.4984C11.2844 12.3936 11.4844 12.2603 11.6657 12.0952C11.6782 12.0857 11.6907 12.073 11.7032 12.0666L11.825 11.9428C11.8344 11.9238 11.85 11.9047 11.8657 11.8857C12.0094 11.7238 12.1282 11.5428 12.225 11.3523C12.4219 10.9619 12.8344 10.746 13.275 10.7968C13.5125 10.8253 13.75 10.7523 13.9469 10.6C13.9625 10.5873 13.9813 10.5777 13.9969 10.5682L14.0844 10.4793C14.0938 10.4603 14.1032 10.4444 14.1157 10.4285C14.2438 10.2603 14.3125 10.0571 14.3125 9.85709C14.3125 9.80947 14.3125 9.77138 14.3032 9.73011C14.2407 9.26662 14.4688 8.82852 14.8719 8.63487C15.0875 8.53011 15.2875 8.39678 15.4688 8.2317C15.4813 8.219 15.4938 8.20947 15.5063 8.20312L15.6407 8.06662C15.6407 8.06662 15.6594 8.04122 15.6688 8.02852C15.8282 7.84757 15.9625 7.64439 16.0657 7.42217C16.2563 7.01265 16.6907 6.7809 17.1438 6.8444C17.1875 6.85074 17.2282 6.85074 17.275 6.85392C17.475 6.85392 17.6719 6.7809 17.8344 6.65392C17.85 6.64122 17.8688 6.62852 17.8876 6.62217L17.975 6.53328C17.9844 6.51424 17.9938 6.49836 18.0063 6.48249C18.1344 6.31424 18.2032 6.11106 18.2032 5.91106C18.2032 5.65709 18.1032 5.41265 17.9282 5.23805C17.7532 5.06027 17.5157 4.95868 17.2688 4.95868C17.0188 4.95868 16.7782 5.06027 16.6063 5.23805C16.6032 5.24122 16.5782 5.27614 16.5719 5.28249C16.5032 5.36503 16.3969 5.40312 16.2938 5.39043C16.1907 5.37773 16.1 5.31106 16.0532 5.21265C15.9313 4.95551 15.7688 4.72376 15.5719 4.52376C15.3782 4.32693 15.15 4.16186 14.9 4.03805C14.8094 3.9936 14.7438 3.90471 14.7282 3.80312C14.7125 3.70154 14.7438 3.59678 14.8157 3.52693L14.9125 3.42852C14.9219 3.40947 14.9313 3.3936 14.9438 3.37773C15.0719 3.20947 15.1407 3.0063 15.1407 2.8063C15.1407 2.55233 15.0407 2.30789 14.8657 2.13328C14.5125 1.77455 13.8844 1.78408 13.5438 2.13328C13.3688 2.31106 13.2688 2.55551 13.2688 2.80313C13.2688 2.85074 13.2688 2.88884 13.2782 2.93011C13.3407 3.39043 13.1094 3.83487 12.7032 4.02852C12.4438 4.15233 12.2094 4.32059 12.0094 4.52693C11.8063 4.73328 11.6438 4.9682 11.5188 5.2317C11.325 5.64439 10.8907 5.87932 10.4375 5.81582C10.3969 5.80947 10.3563 5.80947 10.3125 5.8063C10.0688 5.8063 9.82817 5.90789 9.65317 6.08566C9.47817 6.26344 9.37817 6.50471 9.37817 6.75551C9.37817 6.7936 9.37817 6.82852 9.38442 6.86344C9.43755 7.31741 9.22505 7.73328 8.8438 7.92693C8.60317 8.04757 8.38755 8.20313 8.20317 8.3936C8.00005 8.59995 7.83755 8.83487 7.71255 9.09836C7.5188 9.51106 7.08442 9.74598 6.6313 9.68249C6.3438 9.64122 6.05005 9.74916 5.84692 9.95233C5.67192 10.1301 5.57192 10.3714 5.57192 10.6222C5.57192 10.6603 5.57192 10.6952 5.57817 10.7301C5.6313 11.1841 5.4188 11.6 5.03755 11.7904C4.79692 11.9111 4.5813 12.0666 4.39692 12.2571C4.1938 12.4634 4.0313 12.6984 3.9063 12.9619C3.71255 13.3746 3.27817 13.6095 2.82505 13.546C2.53442 13.5079 2.2438 13.6126 2.04067 13.8158C1.86567 13.9936 1.76567 14.2349 1.76567 14.4857C1.76567 14.7396 1.86567 14.9841 2.04067 15.1587C2.35942 15.4825 2.90005 15.5206 3.2688 15.2349C3.28442 15.2222 3.30317 15.2127 3.32192 15.2031L3.4188 15.1047C3.47817 15.0444 3.5563 15.0126 3.64067 15.0126L3.65317 14.9968Z" fill="#F47D21"/>
<path d="M13.8062 8.37796C13.2656 8.37796 12.7562 8.16526 12.375 7.77478C11.9937 7.38748 11.7812 6.87002 11.7812 6.32081C11.7812 5.77161 11.9906 5.25415 12.375 4.86685C12.7562 4.47954 13.2656 4.26367 13.8062 4.26367C14.3469 4.26367 14.8562 4.47637 15.2375 4.86685C16.0281 5.67002 16.0281 6.97478 15.2375 7.77796C14.8531 8.16526 14.3469 8.38113 13.8062 8.38113V8.37796ZM13.8062 4.89542C13.4312 4.89542 13.0812 5.04462 12.8156 5.31129C12.55 5.57796 12.4062 5.93669 12.4062 6.31764C12.4062 6.69859 12.5531 7.05415 12.8156 7.32399C13.0812 7.59383 13.4312 7.73986 13.8062 7.73986C14.1812 7.73986 14.5312 7.59066 14.7969 7.32399C15.3437 6.76843 15.3437 5.86685 14.7969 5.31129C14.5312 5.04145 14.1812 4.89542 13.8062 4.89542Z" fill="#F47D21"/>
<path d="M14.2219 3.23508C14.4652 3.23508 14.6625 3.03468 14.6625 2.78746C14.6625 2.54025 14.4652 2.33984 14.2219 2.33984C13.9785 2.33984 13.7812 2.54025 13.7812 2.78746C13.7812 3.03468 13.9785 3.23508 14.2219 3.23508Z" fill="#F47D21"/>
<path d="M17.2812 6.3425C17.5246 6.3425 17.7218 6.1421 17.7218 5.89488C17.7218 5.64767 17.5246 5.44727 17.2812 5.44727C17.0379 5.44727 16.8406 5.64767 16.8406 5.89488C16.8406 6.1421 17.0379 6.3425 17.2812 6.3425Z" fill="#F47D21"/>
<path d="M10.3313 7.18821C10.5746 7.18821 10.7719 6.9878 10.7719 6.74059C10.7719 6.49337 10.5746 6.29297 10.3313 6.29297C10.0879 6.29297 9.89062 6.49337 9.89062 6.74059C9.89062 6.9878 10.0879 7.18821 10.3313 7.18821Z" fill="#F47D21"/>
<path d="M13.3906 10.2956C13.6339 10.2956 13.8312 10.0952 13.8312 9.84801C13.8312 9.6008 13.6339 9.40039 13.3906 9.40039C13.1472 9.40039 12.95 9.6008 12.95 9.84801C12.95 10.0952 13.1472 10.2956 13.3906 10.2956Z" fill="#F47D21"/>
<path d="M10.0001 12.2412C9.45947 12.2412 8.9501 12.0285 8.56885 11.6381C8.1876 11.2476 7.9751 10.7333 7.9751 10.1841C7.9751 9.63489 8.18447 9.11743 8.56885 8.73013C8.95322 8.34283 9.45947 8.12695 10.0001 8.12695C10.5407 8.12695 11.0501 8.33965 11.4313 8.73013C12.222 9.5333 12.222 10.8381 11.4313 11.6412C11.0501 12.0285 10.5407 12.2444 10.0001 12.2444V12.2412ZM10.0001 8.7587C9.6251 8.7587 9.2751 8.90791 9.00947 9.17457C8.74385 9.44124 8.6001 9.79997 8.6001 10.1809C8.6001 10.5619 8.74697 10.9174 9.00947 11.1873C9.27197 11.4571 9.6251 11.6031 10.0001 11.6031C10.3751 11.6031 10.7251 11.4539 10.9907 11.1873C11.5376 10.6317 11.5376 9.73013 10.9907 9.17457C10.7251 8.90473 10.3751 8.7587 10.0001 8.7587Z" fill="#F47D21"/>
<path d="M6.5251 11.0534C6.76845 11.0534 6.96572 10.853 6.96572 10.6058C6.96572 10.3586 6.76845 10.1582 6.5251 10.1582C6.28175 10.1582 6.08447 10.3586 6.08447 10.6058C6.08447 10.853 6.28175 11.0534 6.5251 11.0534Z" fill="#F47D21"/>
<path d="M9.58442 14.1628C9.82777 14.1628 10.025 13.9624 10.025 13.7152C10.025 13.468 9.82777 13.2676 9.58442 13.2676C9.34107 13.2676 9.1438 13.468 9.1438 13.7152C9.1438 13.9624 9.34107 14.1628 9.58442 14.1628Z" fill="#F47D21"/>
<path d="M6.1937 16.1084C5.65308 16.1084 5.1437 15.8957 4.76245 15.5053C4.3812 15.1148 4.1687 14.6005 4.1687 14.0513C4.1687 13.5021 4.37808 12.9846 4.76245 12.5973C5.1437 12.21 5.65308 11.9941 6.1937 11.9941C6.73433 11.9941 7.2437 12.2068 7.62495 12.5973C8.41558 13.4005 8.41558 14.7053 7.62495 15.5084C7.2437 15.8957 6.73433 16.1116 6.1937 16.1116V16.1084ZM6.1937 12.6259C5.8187 12.6259 5.4687 12.7751 5.20308 13.0418C4.93745 13.3116 4.7937 13.6672 4.7937 14.0481C4.7937 14.4291 4.94058 14.7846 5.20308 15.0545C5.46558 15.3243 5.8187 15.4703 6.1937 15.4703C6.5687 15.4703 6.9187 15.3211 7.18433 15.0545C7.7312 14.4989 7.7312 13.5973 7.18433 13.0418C6.9187 12.7719 6.5687 12.6259 6.1937 12.6259Z" fill="#F47D21"/>
<path d="M2.7187 14.9206C2.96205 14.9206 3.15933 14.7202 3.15933 14.473C3.15933 14.2258 2.96205 14.0254 2.7187 14.0254C2.47535 14.0254 2.27808 14.2258 2.27808 14.473C2.27808 14.7202 2.47535 14.9206 2.7187 14.9206Z" fill="#F47D21"/>
<path d="M5.77803 18.0281C6.02138 18.0281 6.21865 17.8276 6.21865 17.5804C6.21865 17.3332 6.02138 17.1328 5.77803 17.1328C5.53468 17.1328 5.3374 17.3332 5.3374 17.5804C5.3374 17.8276 5.53468 18.0281 5.77803 18.0281Z" fill="#F47D21"/>
</g>
<defs>
<clipPath id="clip0_2091_15238">
<rect width="20" height="20" fill="white" transform="translate(0 0.0253906)"/>
</clipPath>
</defs>
</svg>
