<svg width="328" height="91" viewBox="0 0 328 91" fill="none" xmlns="http://www.w3.org/2000/svg">
<rect x="0.5" y="0.5" width="327" height="90" rx="9.5" fill="#F47D21" fill-opacity="0.5"/>
<rect x="0.5" y="0.5" width="327" height="90" rx="9.5" stroke="#E0E0E0"/>
<path d="M48.8149 35.147L20.0678 38.3551C19.4704 38.4221 18.8919 38.6061 18.3656 38.8966C17.8392 39.1872 17.3753 39.5786 17.0002 40.0484C16.6251 40.5183 16.3462 41.0574 16.1795 41.6351C16.0128 42.2127 15.9615 42.8175 16.0286 43.415L18.1297 62.2085C18.2641 63.4142 18.8721 64.5171 19.8197 65.2746C20.7674 66.0321 21.9772 66.3822 23.1829 66.2477L51.9299 63.0396C53.1355 62.9042 54.2382 62.2962 54.9961 61.3488C55.754 60.4015 56.1051 59.1922 55.9725 57.9863L53.8681 39.1862C53.802 38.589 53.6187 38.0107 53.3288 37.4844C53.039 36.9581 52.6482 36.4941 52.1789 36.119C51.7096 35.7438 51.1709 35.4649 50.5937 35.2981C50.0164 35.1313 49.412 35.0799 48.8149 35.147Z" fill="#092042"/>
<path d="M25.4536 61.8261C24.9299 61.9001 24.3962 61.8548 23.8925 61.6936C23.3888 61.5324 22.9281 61.2595 22.5446 60.8953C21.6976 60.073 21.1869 58.965 21.1117 57.7869C20.9555 56.3806 21.1948 55.2104 21.8199 54.2629C22.1228 53.801 22.5275 53.4146 23.0029 53.1334C23.4784 52.8522 24.0119 52.6836 24.5626 52.6405C25.0835 52.5665 25.6144 52.6128 26.1146 52.7759C26.6149 52.939 27.0711 53.2145 27.4483 53.5814C28.2362 54.3294 28.7116 55.3832 28.8612 56.7396C29.0108 58.096 28.7781 59.2895 28.1531 60.2304C27.8557 60.6856 27.4575 61.0664 26.9894 61.3431C26.5213 61.6198 25.9958 61.7851 25.4536 61.8261ZM24.6956 54.3792C24.3994 54.4059 24.1151 54.5078 23.8695 54.6754C23.6239 54.843 23.4253 55.0707 23.2926 55.3367C22.9664 56.0011 22.856 56.7508 22.9768 57.481C23.0171 58.2194 23.2906 58.9259 23.758 59.499C23.9459 59.7152 24.183 59.883 24.4494 59.9883C24.7158 60.0936 25.0036 60.1333 25.2886 60.104C25.5735 60.0746 25.8472 59.9771 26.0865 59.8198C26.3259 59.6624 26.5238 59.4498 26.6637 59.1998C26.9909 58.5416 27.0992 57.7961 26.9728 57.0721C26.935 56.3158 26.6684 55.5889 26.2082 54.9876C26.0327 54.7612 25.8001 54.5856 25.5343 54.4786C25.2685 54.3717 24.979 54.3374 24.6956 54.3792Z" fill="white"/>
<path d="M34.0042 53.3985L31.2116 53.731L31.4543 55.9085L34.0208 55.6193L34.2037 57.2383L31.6371 57.5275L32.0095 60.9518L30.2242 61.1546L29.2269 52.2914L33.8047 51.7795L34.0042 53.3985Z" fill="white"/>
<path d="M39.4165 52.7835L36.6239 53.1159L36.8633 55.2935L39.4331 55.0042L39.616 56.6233L37.0461 56.9158L37.4284 60.3534L35.6398 60.5528L34.6425 51.6964L39.2303 51.1545L39.4165 52.7835Z" fill="white"/>
<path d="M45.8328 59.3992L41.0788 59.9312L40.0814 51.0713L44.6526 50.5627L44.8354 52.1917L42.0495 52.5009L42.2689 54.469L44.8587 54.1798L45.0416 55.7988L42.4484 56.0913L42.6745 58.1193L45.6433 57.7869L45.8328 59.3992Z" fill="white"/>
<path d="M53.2863 58.5615L51.2318 58.7908L49.7457 56.6499C49.636 56.4836 49.5263 56.3407 49.4133 56.2143C49.3236 56.0959 49.2247 55.9847 49.1174 55.8819C49.0262 55.8053 48.9257 55.7405 48.8182 55.6891C48.7133 55.6451 48.5981 55.6313 48.4858 55.6492L48.0037 55.699L48.3894 59.09L46.6008 59.2895L45.6034 50.4297L48.4292 50.0973C50.3475 49.8812 51.4013 50.5793 51.5775 52.1817C51.6137 52.4731 51.6025 52.7683 51.5443 53.0561C51.4925 53.3194 51.397 53.5722 51.2617 53.8041C51.1278 54.0313 50.9596 54.2365 50.763 54.4125C50.5552 54.5917 50.3222 54.7395 50.0715 54.8513V54.8779C50.2046 54.9075 50.3302 54.9641 50.4406 55.0441C50.5684 55.1286 50.6875 55.2255 50.7963 55.3334C50.9145 55.4483 51.0255 55.5705 51.1287 55.699L51.4346 56.088L53.2863 58.5615ZM47.5981 51.7462L47.874 54.213L48.6487 54.1299C48.8201 54.1182 48.9871 54.0701 49.1385 53.9887C49.2899 53.9073 49.4221 53.7945 49.5263 53.6578C49.6303 53.5201 49.7059 53.363 49.7487 53.1958C49.7915 53.0286 49.8007 52.8545 49.7757 52.6837C49.6926 51.9124 49.2371 51.57 48.406 51.6631L47.5981 51.7462Z" fill="white"/>
<path d="M25.4536 61.8261C24.9299 61.9001 24.3962 61.8548 23.8925 61.6936C23.3888 61.5324 22.9281 61.2595 22.5446 60.8953C21.6976 60.073 21.1869 58.965 21.1117 57.7869C20.9555 56.3806 21.1948 55.2104 21.8199 54.2629C22.1228 53.801 22.5275 53.4146 23.0029 53.1334C23.4784 52.8522 24.0119 52.6836 24.5626 52.6405C25.0835 52.5665 25.6144 52.6128 26.1146 52.7759C26.6149 52.939 27.0711 53.2145 27.4483 53.5814C28.2362 54.3294 28.7116 55.3832 28.8612 56.7396C29.0108 58.096 28.7781 59.2895 28.1531 60.2304C27.8557 60.6856 27.4575 61.0664 26.9894 61.3431C26.5213 61.6198 25.9958 61.7851 25.4536 61.8261ZM24.6956 54.3792C24.3994 54.4059 24.1151 54.5078 23.8695 54.6754C23.6239 54.843 23.4253 55.0707 23.2926 55.3367C22.9664 56.0011 22.856 56.7508 22.9768 57.481C23.0171 58.2194 23.2906 58.9259 23.758 59.499C23.9459 59.7152 24.183 59.883 24.4494 59.9883C24.7158 60.0936 25.0036 60.1333 25.2886 60.104C25.5735 60.0746 25.8472 59.9771 26.0865 59.8198C26.3259 59.6624 26.5238 59.4498 26.6637 59.1998C26.9909 58.5416 27.0992 57.7961 26.9728 57.0721C26.935 56.3158 26.6684 55.5889 26.2082 54.9876C26.0327 54.7612 25.8001 54.5856 25.5343 54.4786C25.2685 54.3717 24.979 54.3374 24.6956 54.3792Z" fill="#F47D21"/>
<path d="M34.0042 53.3985L31.2116 53.731L31.4543 55.9085L34.0208 55.6193L34.2037 57.2383L31.6371 57.5275L32.0095 60.9518L30.2242 61.1546L29.2269 52.2914L33.8047 51.7795L34.0042 53.3985Z" fill="#F47D21"/>
<path d="M39.4165 52.7835L36.6239 53.1159L36.8633 55.2935L39.4331 55.0042L39.616 56.6233L37.0461 56.9158L37.4284 60.3534L35.6398 60.5528L34.6425 51.6964L39.2303 51.1545L39.4165 52.7835Z" fill="#F47D21"/>
<path d="M45.8328 59.3992L41.0788 59.9312L40.0814 51.0713L44.6526 50.5627L44.8354 52.1917L42.0495 52.5009L42.2689 54.469L44.8587 54.1798L45.0416 55.7988L42.4484 56.0913L42.6745 58.1193L45.6433 57.7869L45.8328 59.3992Z" fill="#F47D21"/>
<path d="M53.2863 58.5615L51.2318 58.7908L49.7457 56.6499C49.636 56.4836 49.5263 56.3407 49.4133 56.2143C49.3236 56.0959 49.2247 55.9847 49.1174 55.8819C49.0262 55.8053 48.9257 55.7405 48.8182 55.6891C48.7133 55.6451 48.5981 55.6313 48.4858 55.6492L48.0037 55.699L48.3894 59.09L46.6008 59.2895L45.6034 50.4297L48.4292 50.0973C50.3475 49.8812 51.4013 50.5793 51.5775 52.1817C51.6137 52.4731 51.6025 52.7683 51.5443 53.0561C51.4925 53.3194 51.397 53.5722 51.2617 53.8041C51.1278 54.0313 50.9596 54.2365 50.763 54.4125C50.5552 54.5917 50.3222 54.7395 50.0715 54.8513V54.8779C50.2046 54.9075 50.3302 54.9641 50.4406 55.0441C50.5684 55.1286 50.6875 55.2255 50.7963 55.3334C50.9145 55.4483 51.0255 55.5705 51.1287 55.699L51.4346 56.088L53.2863 58.5615ZM47.5981 51.7462L47.874 54.213L48.6487 54.1299C48.8201 54.1182 48.9871 54.0701 49.1385 53.9887C49.2899 53.9073 49.4221 53.7945 49.5263 53.6578C49.6303 53.5201 49.7059 53.363 49.7487 53.1958C49.7915 53.0286 49.8007 52.8545 49.7757 52.6837C49.6926 51.9124 49.2371 51.57 48.406 51.6631L47.5981 51.7462Z" fill="#F47D21"/>
<path d="M25.4536 61.8261C24.9299 61.9001 24.3962 61.8548 23.8925 61.6936C23.3888 61.5324 22.9281 61.2595 22.5446 60.8953C21.6976 60.073 21.1869 58.965 21.1117 57.7869C20.9555 56.3806 21.1948 55.2104 21.8199 54.2629C22.1228 53.801 22.5275 53.4146 23.0029 53.1334C23.4784 52.8522 24.0119 52.6836 24.5626 52.6405C25.0835 52.5665 25.6144 52.6128 26.1146 52.7759C26.6149 52.939 27.0711 53.2145 27.4483 53.5814C28.2362 54.3294 28.7116 55.3832 28.8612 56.7396C29.0108 58.096 28.7781 59.2895 28.1531 60.2304C27.8557 60.6856 27.4575 61.0664 26.9894 61.3431C26.5213 61.6198 25.9958 61.7851 25.4536 61.8261ZM24.6956 54.3792C24.3994 54.4059 24.1151 54.5078 23.8695 54.6754C23.6239 54.843 23.4253 55.0707 23.2926 55.3367C22.9664 56.0011 22.856 56.7508 22.9768 57.481C23.0171 58.2194 23.2906 58.9259 23.758 59.499C23.9459 59.7152 24.183 59.883 24.4494 59.9883C24.7158 60.0936 25.0036 60.1333 25.2886 60.104C25.5735 60.0746 25.8472 59.9771 26.0865 59.8198C26.3259 59.6624 26.5238 59.4498 26.6637 59.1998C26.9909 58.5416 27.0992 57.7961 26.9728 57.0721C26.935 56.3158 26.6684 55.5889 26.2082 54.9876C26.0327 54.7612 25.8001 54.5856 25.5343 54.4786C25.2685 54.3717 24.979 54.3374 24.6956 54.3792Z" fill="#F47D21"/>
<path d="M34.0042 53.3985L31.2116 53.731L31.4543 55.9085L34.0208 55.6193L34.2037 57.2383L31.6371 57.5275L32.0095 60.9518L30.2242 61.1546L29.2269 52.2914L33.8047 51.7795L34.0042 53.3985Z" fill="#F47D21"/>
<path d="M39.4165 52.7835L36.6239 53.1159L36.8633 55.2935L39.4331 55.0042L39.616 56.6233L37.0461 56.9158L37.4284 60.3534L35.6398 60.5528L34.6425 51.6964L39.2303 51.1545L39.4165 52.7835Z" fill="#F47D21"/>
<path d="M45.8328 59.3992L41.0788 59.9312L40.0814 51.0713L44.6526 50.5627L44.8354 52.1917L42.0495 52.5009L42.2689 54.469L44.8587 54.1798L45.0416 55.7988L42.4484 56.0913L42.6745 58.1193L45.6433 57.7869L45.8328 59.3992Z" fill="#F47D21"/>
<path d="M53.2863 58.5615L51.2318 58.7908L49.7457 56.6499C49.636 56.4836 49.5263 56.3407 49.4133 56.2143C49.3236 56.0959 49.2247 55.9847 49.1174 55.8819C49.0262 55.8053 48.9257 55.7405 48.8182 55.6891C48.7133 55.6451 48.5981 55.6313 48.4858 55.6492L48.0037 55.699L48.3894 59.09L46.6008 59.2895L45.6034 50.4297L48.4292 50.0973C50.3475 49.8812 51.4013 50.5793 51.5775 52.1817C51.6137 52.4731 51.6025 52.7683 51.5443 53.0561C51.4925 53.3194 51.397 53.5722 51.2617 53.8041C51.1278 54.0313 50.9596 54.2365 50.763 54.4125C50.5552 54.5917 50.3222 54.7395 50.0715 54.8513V54.8779C50.2046 54.9075 50.3302 54.9641 50.4406 55.0441C50.5684 55.1286 50.6875 55.2255 50.7963 55.3334C50.9145 55.4483 51.0255 55.5705 51.1287 55.699L51.4346 56.088L53.2863 58.5615ZM47.5981 51.7462L47.874 54.213L48.6487 54.1299C48.8201 54.1182 48.9871 54.0701 49.1385 53.9887C49.2899 53.9073 49.4221 53.7945 49.5263 53.6578C49.6303 53.5201 49.7059 53.363 49.7487 53.1958C49.7915 53.0286 49.8007 52.8545 49.7757 52.6837C49.6926 51.9124 49.2371 51.57 48.406 51.6631L47.5981 51.7462Z" fill="#F47D21"/>
<path d="M25.4536 61.8261C24.9299 61.9001 24.3962 61.8548 23.8925 61.6936C23.3888 61.5324 22.9281 61.2595 22.5446 60.8953C21.6976 60.073 21.1869 58.965 21.1117 57.7869C20.9555 56.3806 21.1948 55.2104 21.8199 54.2629C22.1228 53.801 22.5275 53.4146 23.0029 53.1334C23.4784 52.8522 24.0119 52.6836 24.5626 52.6405C25.0835 52.5665 25.6144 52.6128 26.1146 52.7759C26.6149 52.939 27.0711 53.2145 27.4483 53.5814C28.2362 54.3294 28.7116 55.3832 28.8612 56.7396C29.0108 58.096 28.7781 59.2895 28.1531 60.2304C27.8557 60.6856 27.4575 61.0664 26.9894 61.3431C26.5213 61.6198 25.9958 61.7851 25.4536 61.8261ZM24.6956 54.3792C24.3994 54.4059 24.1151 54.5078 23.8695 54.6754C23.6239 54.843 23.4253 55.0707 23.2926 55.3367C22.9664 56.0011 22.856 56.7508 22.9768 57.481C23.0171 58.2194 23.2906 58.9259 23.758 59.499C23.9459 59.7152 24.183 59.883 24.4494 59.9883C24.7158 60.0936 25.0036 60.1333 25.2886 60.104C25.5735 60.0746 25.8472 59.9771 26.0865 59.8198C26.3259 59.6624 26.5238 59.4498 26.6637 59.1998C26.9909 58.5416 27.0992 57.7961 26.9728 57.0721C26.935 56.3158 26.6684 55.5889 26.2082 54.9876C26.0327 54.7612 25.8001 54.5856 25.5343 54.4786C25.2685 54.3717 24.979 54.3374 24.6956 54.3792Z" fill="#F47D21"/>
<path d="M34.0042 53.3985L31.2116 53.731L31.4543 55.9085L34.0208 55.6193L34.2037 57.2383L31.6371 57.5275L32.0095 60.9518L30.2242 61.1546L29.2269 52.2914L33.8047 51.7795L34.0042 53.3985Z" fill="#F47D21"/>
<path d="M39.4165 52.7835L36.6239 53.1159L36.8633 55.2935L39.4331 55.0042L39.616 56.6233L37.0461 56.9158L37.4284 60.3534L35.6398 60.5528L34.6425 51.6964L39.2303 51.1545L39.4165 52.7835Z" fill="#F47D21"/>
<path d="M45.8328 59.3992L41.0788 59.9312L40.0814 51.0713L44.6526 50.5627L44.8354 52.1917L42.0495 52.5009L42.2689 54.469L44.8587 54.1798L45.0416 55.7988L42.4484 56.0913L42.6745 58.1193L45.6433 57.7869L45.8328 59.3992Z" fill="#F47D21"/>
<path d="M53.2863 58.5615L51.2318 58.7908L49.7457 56.6499C49.636 56.4836 49.5263 56.3407 49.4133 56.2143C49.3236 56.0959 49.2247 55.9847 49.1174 55.8819C49.0262 55.8053 48.9257 55.7405 48.8182 55.6891C48.7133 55.6451 48.5981 55.6313 48.4858 55.6492L48.0037 55.699L48.3894 59.09L46.6008 59.2895L45.6034 50.4297L48.4292 50.0973C50.3475 49.8812 51.4013 50.5793 51.5775 52.1817C51.6137 52.4731 51.6025 52.7683 51.5443 53.0561C51.4925 53.3194 51.397 53.5722 51.2617 53.8041C51.1278 54.0313 50.9596 54.2365 50.763 54.4125C50.5552 54.5917 50.3222 54.7395 50.0715 54.8513V54.8779C50.2046 54.9075 50.3302 54.9641 50.4406 55.0441C50.5684 55.1286 50.6875 55.2255 50.7963 55.3334C50.9145 55.4483 51.0255 55.5705 51.1287 55.699L51.4346 56.088L53.2863 58.5615ZM47.5981 51.7462L47.874 54.213L48.6487 54.1299C48.8201 54.1182 48.9871 54.0701 49.1385 53.9887C49.2899 53.9073 49.4221 53.7945 49.5263 53.6578C49.6303 53.5201 49.7059 53.363 49.7487 53.1958C49.7915 53.0286 49.8007 52.8545 49.7757 52.6837C49.6926 51.9124 49.2371 51.57 48.406 51.6631L47.5981 51.7462Z" fill="#F47D21"/>
<path d="M20.7062 49.9743L20.5998 49.0201C20.7119 49.1076 20.8335 49.1823 20.9622 49.2429C21.1037 49.3085 21.252 49.3587 21.4043 49.3925C21.5543 49.4271 21.7065 49.4515 21.8598 49.4656C21.9991 49.4789 22.1393 49.4789 22.2786 49.4656C22.6234 49.4553 22.9529 49.3207 23.2062 49.0866C23.3036 48.9716 23.3748 48.8369 23.415 48.6916C23.4552 48.5464 23.4633 48.3942 23.4389 48.2455C23.4235 48.0783 23.3701 47.9168 23.2827 47.7734C23.1951 47.637 23.0822 47.5185 22.9502 47.4244C22.7968 47.3172 22.6357 47.2217 22.4681 47.1385L21.8764 46.8725C21.6641 46.7812 21.4566 46.6791 21.2547 46.5666C21.0683 46.4668 20.8952 46.3439 20.7394 46.2009C20.5885 46.062 20.4615 45.8992 20.3637 45.7189C20.2623 45.51 20.1982 45.285 20.1742 45.054C20.1356 44.7688 20.164 44.4785 20.2574 44.2062C20.3452 43.968 20.4849 43.7523 20.6663 43.5746C20.8411 43.4048 21.0464 43.2695 21.2713 43.1756C21.5106 43.0759 21.7622 43.0088 22.0193 42.9762C22.4583 42.8949 22.9109 42.9293 23.3325 43.0759L23.4323 43.9901C23.009 43.7397 22.5121 43.6434 22.026 43.7175C21.8729 43.73 21.7227 43.7659 21.5805 43.8239C21.4377 43.8747 21.305 43.9501 21.1882 44.0467C21.0779 44.1471 20.9896 44.2694 20.9289 44.4057C20.8667 44.5641 20.8472 44.7361 20.8724 44.9044C20.887 45.0612 20.9322 45.2137 21.0054 45.3532C21.0777 45.4829 21.1762 45.5961 21.2946 45.6856C21.4349 45.7866 21.5827 45.8766 21.7367 45.9549C21.9129 46.038 22.1025 46.1278 22.3285 46.2209C22.5546 46.314 22.774 46.427 22.9934 46.5367C23.1901 46.6489 23.376 46.7791 23.5486 46.9257C23.7108 47.0706 23.8479 47.2413 23.9542 47.431C24.0665 47.637 24.1376 47.8628 24.1637 48.0959C24.2081 48.3935 24.1831 48.6973 24.0905 48.9835C24.005 49.2214 23.8676 49.4371 23.6882 49.6152C23.503 49.7887 23.2864 49.9252 23.0499 50.0175C22.7921 50.1109 22.5244 50.1745 22.2521 50.207C22.1359 50.2157 22.0192 50.2157 21.903 50.207C21.7584 50.2083 21.6139 50.1982 21.4708 50.177C21.327 50.1602 21.1848 50.1325 21.0453 50.0939C20.9251 50.0783 20.8096 50.0375 20.7062 49.9743Z" fill="white"/>
<path d="M25.9423 47.0154L26.2348 49.6318L25.5367 49.7083L24.7621 42.77L26.4077 42.5872C26.6771 42.5379 26.9538 42.5456 27.2201 42.6097C27.4863 42.6738 27.7362 42.793 27.9536 42.9595C28.3702 43.3401 28.6209 43.8689 28.6517 44.4323C28.6982 44.7251 28.6863 45.0241 28.6167 45.3123C28.547 45.6004 28.4211 45.8719 28.2461 46.1112C28.0661 46.3456 27.838 46.5387 27.5771 46.6775C27.3161 46.8162 27.0285 46.8975 26.7335 46.9157L25.9423 47.0154ZM25.5433 43.4349L25.8758 46.2774L26.6072 46.1943C26.8095 46.1852 27.008 46.1355 27.1908 46.0482C27.3736 45.9608 27.5369 45.8375 27.671 45.6856C27.7881 45.5244 27.8711 45.3411 27.9152 45.1468C27.9592 44.9525 27.9632 44.7512 27.927 44.5553C27.8306 43.6411 27.3053 43.2255 26.3744 43.3419L25.5433 43.4349Z" fill="white"/>
<path d="M33.4889 48.8273L30.3206 49.183L29.5493 42.2448L32.5813 41.9123L32.6677 42.647L30.3406 42.903L30.5966 45.2302L32.7575 44.9908L32.8406 45.7222L30.6797 45.9616L30.9556 48.3885L33.4224 48.1159L33.4889 48.8273Z" fill="white"/>
<path d="M38.6751 47.9563C38.2052 48.2982 37.649 48.502 37.0694 48.5447C36.6792 48.5992 36.2817 48.5621 35.9083 48.4363C35.535 48.3105 35.1961 48.0995 34.9184 47.82C34.2991 47.1605 33.9288 46.3059 33.8712 45.4031C33.7188 44.4377 33.9194 43.4498 34.4364 42.6204C34.6615 42.2628 34.9661 41.9618 35.3265 41.741C35.6869 41.5202 36.0933 41.3854 36.5142 41.3471C36.9971 41.271 37.4914 41.3144 37.9537 41.4735L38.0501 42.3345C37.5994 42.1076 37.0917 42.0185 36.5907 42.0785C36.2687 42.1056 35.9577 42.2086 35.6832 42.3791C35.4087 42.5495 35.1785 42.7826 35.0115 43.0593C34.6276 43.7257 34.4866 44.5047 34.6126 45.2634C34.6498 45.9899 34.9403 46.6804 35.4337 47.2149C35.6445 47.4369 35.9055 47.6049 36.1948 47.705C36.484 47.8051 36.7931 47.8343 37.096 47.7901C37.6476 47.7425 38.1705 47.524 38.592 47.165L38.6751 47.9563Z" fill="white"/>
<path d="M40.4305 41.0247L40.5036 41.7195L39.9218 41.7893L40.5435 47.3313L41.1286 47.2648L41.2018 47.9629L39.3234 48.1624L39.2503 47.4642L39.8321 47.3978L39.2071 41.8558L38.6253 41.9223L38.5521 41.2241L40.4305 41.0247Z" fill="white"/>
<path d="M46.8202 47.3379L46.0456 47.4244L45.2011 45.5527L42.6645 45.8352L42.2822 47.8466L41.501 47.9297L43.0236 40.7421L43.745 40.6557L46.8202 47.3379ZM44.8853 44.8379L43.612 41.9855C43.5525 41.8376 43.5047 41.6853 43.4691 41.53H43.4524C43.4476 41.688 43.4343 41.8455 43.4125 42.0021L42.8141 45.0606L44.8853 44.8379Z" fill="white"/>
<path d="M50.803 46.8891L47.7012 47.2382L46.9299 40.2999L47.6247 40.2235L48.3162 46.427L50.7198 46.1577L50.803 46.8891Z" fill="white"/>
<path d="M30.6279 27.1934L25.073 38.2592L25.6372 38.5433L31.0792 27.5068C30.9311 27.4793 30.8112 27.3931 30.6279 27.1934Z" fill="#092042"/>
<path d="M32.8529 26.9742C32.7594 27.099 32.6341 27.2308 32.4583 27.3703C32.2824 27.5097 43.1463 36.9838 43.1463 36.9838L43.5715 36.5167L32.8529 26.9742Z" fill="#092042"/>
<path d="M33.0966 26.1708C33.0966 26.4568 33.0118 26.7364 32.8529 26.9742C32.694 27.212 32.4681 27.3974 32.2039 27.5068C31.9396 27.6163 31.3597 27.5626 31.0792 27.5068C30.9041 27.472 30.8301 27.3956 30.6279 27.1934C30.4256 26.9911 30.2879 26.7334 30.2321 26.4529C30.1763 26.1724 30.2049 25.8816 30.3144 25.6174C30.4238 25.3531 30.6092 25.1272 30.847 24.9683C31.0848 24.8094 31.3644 24.7246 31.6504 24.7246C31.8404 24.7246 32.0284 24.762 32.2039 24.8347C32.3793 24.9074 32.5388 25.0139 32.673 25.1482C32.8073 25.2825 32.9139 25.4419 32.9865 25.6174C33.0592 25.7928 33.0966 25.9809 33.0966 26.1708Z" fill="#092042"/>
<path d="M32.4583 26.1708C32.4583 26.3306 32.4109 26.4867 32.3222 26.6196C32.2334 26.7524 32.1072 26.856 31.9596 26.9171C31.812 26.9783 31.6495 26.9943 31.4928 26.9631C31.3361 26.9319 31.1922 26.855 31.0792 26.742C30.9662 26.629 30.8893 26.4851 30.8581 26.3284C30.8269 26.1717 30.8429 26.0092 30.9041 25.8616C30.9652 25.714 31.0688 25.5878 31.2016 25.4991C31.3345 25.4103 31.4907 25.3629 31.6504 25.3629C31.8642 25.3647 32.0686 25.4503 32.2198 25.6015C32.3709 25.7526 32.4565 25.9571 32.4583 26.1708Z" fill="#F47D21"/>
<path d="M75.836 30.112C75.1453 30.112 74.4733 30.0047 73.82 29.79C73.176 29.5753 72.6487 29.286 72.238 28.922L72.882 27.816C73.2087 28.124 73.6333 28.376 74.156 28.572C74.6787 28.768 75.234 28.866 75.822 28.866C76.5687 28.866 77.1427 28.7073 77.544 28.39C77.9453 28.0727 78.146 27.648 78.146 27.116C78.146 26.752 78.0573 26.4347 77.88 26.164C77.7027 25.8933 77.3947 25.688 76.956 25.548C76.5267 25.3987 75.934 25.324 75.178 25.324H72.952L73.47 20.2H79V21.418H73.988L74.716 20.732L74.31 24.778L73.582 24.106H75.472C76.452 24.106 77.2407 24.232 77.838 24.484C78.4353 24.736 78.8693 25.086 79.14 25.534C79.4107 25.9727 79.546 26.4813 79.546 27.06C79.546 27.62 79.4107 28.1333 79.14 28.6C78.8693 29.0573 78.4587 29.426 77.908 29.706C77.3667 29.9767 76.676 30.112 75.836 30.112ZM81.9183 30L88.6103 20.2H89.6883L82.9963 30H81.9183ZM82.7023 25.464C82.2543 25.464 81.8577 25.352 81.5123 25.128C81.167 24.904 80.8963 24.5913 80.7003 24.19C80.5137 23.7887 80.4203 23.322 80.4203 22.79C80.4203 22.258 80.5137 21.7913 80.7003 21.39C80.8963 20.9887 81.167 20.676 81.5123 20.452C81.8577 20.228 82.2543 20.116 82.7023 20.116C83.1597 20.116 83.5563 20.228 83.8923 20.452C84.2377 20.676 84.5037 20.9887 84.6903 21.39C84.877 21.7913 84.9703 22.258 84.9703 22.79C84.9703 23.322 84.877 23.7887 84.6903 24.19C84.5037 24.5913 84.2377 24.904 83.8923 25.128C83.5563 25.352 83.1597 25.464 82.7023 25.464ZM82.7023 24.666C83.1317 24.666 83.4677 24.5027 83.7103 24.176C83.953 23.84 84.0743 23.378 84.0743 22.79C84.0743 22.202 83.953 21.7447 83.7103 21.418C83.4677 21.082 83.1317 20.914 82.7023 20.914C82.2823 20.914 81.9463 21.082 81.6943 21.418C81.4517 21.7447 81.3303 22.202 81.3303 22.79C81.3303 23.3687 81.4517 23.826 81.6943 24.162C81.9463 24.498 82.2823 24.666 82.7023 24.666ZM88.9043 30.084C88.4563 30.084 88.0597 29.972 87.7143 29.748C87.369 29.524 87.103 29.2113 86.9163 28.81C86.7297 28.4087 86.6363 27.942 86.6363 27.41C86.6363 26.878 86.7297 26.4113 86.9163 26.01C87.103 25.6087 87.369 25.296 87.7143 25.072C88.0597 24.848 88.4563 24.736 88.9043 24.736C89.3617 24.736 89.7583 24.848 90.0943 25.072C90.4397 25.296 90.7057 25.6087 90.8923 26.01C91.0883 26.4113 91.1863 26.878 91.1863 27.41C91.1863 27.942 91.0883 28.4087 90.8923 28.81C90.7057 29.2113 90.4397 29.524 90.0943 29.748C89.7583 29.972 89.3617 30.084 88.9043 30.084ZM88.9043 29.286C89.3243 29.286 89.6557 29.1227 89.8983 28.796C90.1503 28.46 90.2763 27.998 90.2763 27.41C90.2763 26.8313 90.1503 26.374 89.8983 26.038C89.6557 25.702 89.3243 25.534 88.9043 25.534C88.4843 25.534 88.1483 25.702 87.8963 26.038C87.6537 26.3647 87.5323 26.822 87.5323 27.41C87.5323 27.998 87.6537 28.46 87.8963 28.796C88.1483 29.1227 88.4843 29.286 88.9043 29.286ZM99.9129 30.084C99.1663 30.084 98.5036 29.9207 97.9249 29.594C97.3463 29.2673 96.8889 28.8193 96.5529 28.25C96.2169 27.6713 96.0489 27.018 96.0489 26.29C96.0489 25.5527 96.2169 24.8993 96.5529 24.33C96.8889 23.7607 97.3463 23.3173 97.9249 23C98.5036 22.6733 99.1663 22.51 99.9129 22.51C100.65 22.51 101.308 22.6733 101.887 23C102.475 23.3173 102.932 23.7607 103.259 24.33C103.595 24.89 103.763 25.5433 103.763 26.29C103.763 27.0273 103.595 27.6807 103.259 28.25C102.932 28.8193 102.475 29.2673 101.887 29.594C101.308 29.9207 100.65 30.084 99.9129 30.084ZM99.9129 28.908C100.389 28.908 100.814 28.8007 101.187 28.586C101.57 28.3713 101.868 28.068 102.083 27.676C102.298 27.2747 102.405 26.8127 102.405 26.29C102.405 25.758 102.298 25.3007 102.083 24.918C101.868 24.526 101.57 24.2227 101.187 24.008C100.814 23.7933 100.389 23.686 99.9129 23.686C99.4369 23.686 99.0123 23.7933 98.6389 24.008C98.2656 24.2227 97.9669 24.526 97.7429 24.918C97.5189 25.3007 97.4069 25.758 97.4069 26.29C97.4069 26.8127 97.5189 27.2747 97.7429 27.676C97.9669 28.068 98.2656 28.3713 98.6389 28.586C99.0123 28.8007 99.4369 28.908 99.9129 28.908ZM105.818 30V21.922C105.818 21.194 106.028 20.6153 106.448 20.186C106.877 19.7473 107.484 19.528 108.268 19.528C108.557 19.528 108.832 19.5653 109.094 19.64C109.364 19.7053 109.593 19.8127 109.78 19.962L109.374 20.984C109.234 20.872 109.075 20.788 108.898 20.732C108.72 20.6667 108.534 20.634 108.338 20.634C107.946 20.634 107.647 20.746 107.442 20.97C107.236 21.1847 107.134 21.5067 107.134 21.936V22.93L107.162 23.546V30H105.818ZM104.558 23.686V22.58H109.29V23.686H104.558ZM110.767 30V21.922C110.767 21.194 110.977 20.6153 111.397 20.186C111.826 19.7473 112.433 19.528 113.217 19.528C113.506 19.528 113.782 19.5653 114.043 19.64C114.314 19.7053 114.542 19.8127 114.729 19.962L114.323 20.984C114.183 20.872 114.024 20.788 113.847 20.732C113.67 20.6667 113.483 20.634 113.287 20.634C112.895 20.634 112.596 20.746 112.391 20.97C112.186 21.1847 112.083 21.5067 112.083 21.936V22.93L112.111 23.546V30H110.767ZM109.507 23.686V22.58H114.239V23.686H109.507ZM119.462 30V21.922C119.462 21.194 119.672 20.6153 120.092 20.186C120.522 19.7473 121.128 19.528 121.912 19.528C122.202 19.528 122.477 19.5653 122.738 19.64C123.009 19.7053 123.238 19.8127 123.424 19.962L123.018 20.984C122.878 20.872 122.72 20.788 122.542 20.732C122.365 20.6667 122.178 20.634 121.982 20.634C121.59 20.634 121.292 20.746 121.086 20.97C120.881 21.1847 120.778 21.5067 120.778 21.936V22.93L120.806 23.546V30H119.462ZM118.202 23.686V22.58H122.934V23.686H118.202ZM127.27 30.084C126.524 30.084 125.861 29.9207 125.282 29.594C124.704 29.2673 124.246 28.8193 123.91 28.25C123.574 27.6713 123.406 27.018 123.406 26.29C123.406 25.5527 123.574 24.8993 123.91 24.33C124.246 23.7607 124.704 23.3173 125.282 23C125.861 22.6733 126.524 22.51 127.27 22.51C128.008 22.51 128.666 22.6733 129.244 23C129.832 23.3173 130.29 23.7607 130.616 24.33C130.952 24.89 131.12 25.5433 131.12 26.29C131.12 27.0273 130.952 27.6807 130.616 28.25C130.29 28.8193 129.832 29.2673 129.244 29.594C128.666 29.9207 128.008 30.084 127.27 30.084ZM127.27 28.908C127.746 28.908 128.171 28.8007 128.544 28.586C128.927 28.3713 129.226 28.068 129.44 27.676C129.655 27.2747 129.762 26.8127 129.762 26.29C129.762 25.758 129.655 25.3007 129.44 24.918C129.226 24.526 128.927 24.2227 128.544 24.008C128.171 23.7933 127.746 23.686 127.27 23.686C126.794 23.686 126.37 23.7933 125.996 24.008C125.623 24.2227 125.324 24.526 125.1 24.918C124.876 25.3007 124.764 25.758 124.764 26.29C124.764 26.8127 124.876 27.2747 125.1 27.676C125.324 28.068 125.623 28.3713 125.996 28.586C126.37 28.8007 126.794 28.908 127.27 28.908ZM132.979 30V22.58H134.267V24.596L134.141 24.092C134.346 23.5787 134.692 23.1867 135.177 22.916C135.662 22.6453 136.26 22.51 136.969 22.51V23.812C136.913 23.8027 136.857 23.798 136.801 23.798C136.754 23.798 136.708 23.798 136.661 23.798C135.942 23.798 135.373 24.0127 134.953 24.442C134.533 24.8713 134.323 25.492 134.323 26.304V30H132.979ZM144.875 30.112C144.184 30.112 143.512 30.0047 142.859 29.79C142.215 29.5753 141.688 29.286 141.277 28.922L141.921 27.816C142.248 28.124 142.672 28.376 143.195 28.572C143.718 28.768 144.278 28.866 144.875 28.866C145.603 28.866 146.168 28.712 146.569 28.404C146.98 28.0867 147.185 27.662 147.185 27.13C147.185 26.6167 146.989 26.206 146.597 25.898C146.214 25.5807 145.603 25.422 144.763 25.422H143.979V24.442L146.891 20.858L147.087 21.418H141.725V20.2H148.193V21.152L145.295 24.722L144.567 24.288H145.029C146.214 24.288 147.101 24.554 147.689 25.086C148.286 25.618 148.585 26.2947 148.585 27.116C148.585 27.6667 148.45 28.1707 148.179 28.628C147.908 29.0853 147.498 29.4493 146.947 29.72C146.406 29.9813 145.715 30.112 144.875 30.112ZM157.319 30.084C156.6 30.084 155.956 29.9253 155.387 29.608C154.827 29.2907 154.383 28.8473 154.057 28.278C153.73 27.7087 153.567 27.046 153.567 26.29C153.567 25.534 153.73 24.876 154.057 24.316C154.383 23.7467 154.827 23.3033 155.387 22.986C155.956 22.6687 156.6 22.51 157.319 22.51C157.944 22.51 158.509 22.65 159.013 22.93C159.517 23.21 159.918 23.63 160.217 24.19C160.525 24.75 160.679 25.45 160.679 26.29C160.679 27.13 160.529 27.83 160.231 28.39C159.941 28.95 159.545 29.3747 159.041 29.664C158.537 29.944 157.963 30.084 157.319 30.084ZM157.431 28.908C157.897 28.908 158.317 28.8007 158.691 28.586C159.073 28.3713 159.372 28.068 159.587 27.676C159.811 27.2747 159.923 26.8127 159.923 26.29C159.923 25.758 159.811 25.3007 159.587 24.918C159.372 24.526 159.073 24.2227 158.691 24.008C158.317 23.7933 157.897 23.686 157.431 23.686C156.955 23.686 156.53 23.7933 156.157 24.008C155.783 24.2227 155.485 24.526 155.261 24.918C155.037 25.3007 154.925 25.758 154.925 26.29C154.925 26.8127 155.037 27.2747 155.261 27.676C155.485 28.068 155.783 28.3713 156.157 28.586C156.53 28.8007 156.955 28.908 157.431 28.908ZM159.965 30V27.998L160.049 26.276L159.909 24.554V19.612H161.253V30H159.965ZM168.401 30V28.432L168.331 28.138V25.464C168.331 24.8947 168.163 24.456 167.827 24.148C167.501 23.8307 167.006 23.672 166.343 23.672C165.905 23.672 165.475 23.7467 165.055 23.896C164.635 24.036 164.281 24.2273 163.991 24.47L163.431 23.462C163.814 23.154 164.271 22.9207 164.803 22.762C165.345 22.594 165.909 22.51 166.497 22.51C167.515 22.51 168.299 22.7573 168.849 23.252C169.4 23.7467 169.675 24.5027 169.675 25.52V30H168.401ZM165.965 30.084C165.415 30.084 164.929 29.9907 164.509 29.804C164.099 29.6173 163.781 29.3607 163.557 29.034C163.333 28.698 163.221 28.32 163.221 27.9C163.221 27.4987 163.315 27.1347 163.501 26.808C163.697 26.4813 164.01 26.22 164.439 26.024C164.878 25.828 165.466 25.73 166.203 25.73H168.555V26.696H166.259C165.587 26.696 165.135 26.808 164.901 27.032C164.668 27.256 164.551 27.5267 164.551 27.844C164.551 28.208 164.696 28.502 164.985 28.726C165.275 28.9407 165.676 29.048 166.189 29.048C166.693 29.048 167.132 28.936 167.505 28.712C167.888 28.488 168.163 28.1613 168.331 27.732L168.597 28.656C168.42 29.0947 168.107 29.4447 167.659 29.706C167.211 29.958 166.647 30.084 165.965 30.084ZM172.348 32.8C171.993 32.8 171.648 32.7393 171.312 32.618C170.976 32.506 170.687 32.338 170.444 32.114L171.018 31.106C171.205 31.2833 171.41 31.4187 171.634 31.512C171.858 31.6053 172.096 31.652 172.348 31.652C172.675 31.652 172.945 31.568 173.16 31.4C173.375 31.232 173.575 30.9333 173.762 30.504L174.224 29.482L174.364 29.314L177.276 22.58H178.592L174.994 30.742C174.779 31.2647 174.537 31.6753 174.266 31.974C174.005 32.2727 173.715 32.4827 173.398 32.604C173.081 32.7347 172.731 32.8 172.348 32.8ZM174.112 30.238L170.724 22.58H172.124L175.008 29.188L174.112 30.238ZM181.879 30.084C181.263 30.084 180.675 30 180.115 29.832C179.564 29.664 179.13 29.4587 178.813 29.216L179.373 28.152C179.69 28.3667 180.082 28.5487 180.549 28.698C181.015 28.8473 181.491 28.922 181.977 28.922C182.602 28.922 183.05 28.8333 183.321 28.656C183.601 28.4787 183.741 28.2313 183.741 27.914C183.741 27.6807 183.657 27.4987 183.489 27.368C183.321 27.2373 183.097 27.1393 182.817 27.074C182.546 27.0087 182.243 26.9527 181.907 26.906C181.571 26.85 181.235 26.7847 180.899 26.71C180.563 26.626 180.255 26.514 179.975 26.374C179.695 26.2247 179.471 26.024 179.303 25.772C179.135 25.5107 179.051 25.1653 179.051 24.736C179.051 24.288 179.177 23.896 179.429 23.56C179.681 23.224 180.035 22.9673 180.493 22.79C180.959 22.6033 181.51 22.51 182.145 22.51C182.63 22.51 183.12 22.5707 183.615 22.692C184.119 22.804 184.529 22.9673 184.847 23.182L184.273 24.246C183.937 24.022 183.587 23.868 183.223 23.784C182.859 23.7 182.495 23.658 182.131 23.658C181.543 23.658 181.104 23.756 180.815 23.952C180.525 24.1387 180.381 24.3813 180.381 24.68C180.381 24.932 180.465 25.128 180.633 25.268C180.81 25.3987 181.034 25.5013 181.305 25.576C181.585 25.6507 181.893 25.716 182.229 25.772C182.565 25.8187 182.901 25.884 183.237 25.968C183.573 26.0427 183.876 26.15 184.147 26.29C184.427 26.43 184.651 26.626 184.819 26.878C184.996 27.13 185.085 27.466 185.085 27.886C185.085 28.334 184.954 28.7213 184.693 29.048C184.431 29.3747 184.063 29.6313 183.587 29.818C183.111 29.9953 182.541 30.084 181.879 30.084Z" fill="#092042"/>
<path d="M73.596 55V45.2H74.632V54.104H80.12V55H73.596ZM84.5168 55.07C83.8074 55.07 83.1681 54.9113 82.5988 54.594C82.0388 54.2673 81.5954 53.824 81.2688 53.264C80.9421 52.6947 80.7788 52.046 80.7788 51.318C80.7788 50.5807 80.9421 49.932 81.2688 49.372C81.5954 48.812 82.0388 48.3733 82.5988 48.056C83.1588 47.7387 83.7981 47.58 84.5168 47.58C85.2448 47.58 85.8888 47.7387 86.4488 48.056C87.0181 48.3733 87.4614 48.812 87.7788 49.372C88.1054 49.932 88.2688 50.5807 88.2688 51.318C88.2688 52.046 88.1054 52.6947 87.7788 53.264C87.4614 53.824 87.0181 54.2673 86.4488 54.594C85.8794 54.9113 85.2354 55.07 84.5168 55.07ZM84.5168 54.188C85.0488 54.188 85.5201 54.0713 85.9308 53.838C86.3414 53.5953 86.6634 53.2593 86.8968 52.83C87.1394 52.3913 87.2608 51.8873 87.2608 51.318C87.2608 50.7393 87.1394 50.2353 86.8968 49.806C86.6634 49.3767 86.3414 49.0453 85.9308 48.812C85.5201 48.5693 85.0534 48.448 84.5308 48.448C84.0081 48.448 83.5414 48.5693 83.1308 48.812C82.7201 49.0453 82.3934 49.3767 82.1508 49.806C81.9081 50.2353 81.7868 50.7393 81.7868 51.318C81.7868 51.8873 81.9081 52.3913 82.1508 52.83C82.3934 53.2593 82.7201 53.5953 83.1308 53.838C83.5414 54.0713 84.0034 54.188 84.5168 54.188ZM90.2981 55V47.65H91.2501V49.652L91.1521 49.302C91.3574 48.742 91.7028 48.3173 92.1881 48.028C92.6734 47.7293 93.2754 47.58 93.9941 47.58V48.546C93.9568 48.546 93.9194 48.546 93.8821 48.546C93.8448 48.5367 93.8074 48.532 93.7701 48.532C92.9954 48.532 92.3888 48.77 91.9501 49.246C91.5114 49.7127 91.2921 50.38 91.2921 51.248V55H90.2981ZM98.8615 55.07C98.0962 55.07 97.4242 54.9113 96.8455 54.594C96.2668 54.2673 95.8142 53.824 95.4875 53.264C95.1608 52.6947 94.9975 52.046 94.9975 51.318C94.9975 50.59 95.1515 49.946 95.4595 49.386C95.7768 48.826 96.2062 48.3873 96.7475 48.07C97.2982 47.7433 97.9142 47.58 98.5955 47.58C99.2862 47.58 99.8975 47.7387 100.43 48.056C100.971 48.364 101.396 48.8027 101.704 49.372C102.012 49.932 102.166 50.5807 102.166 51.318C102.166 51.3647 102.161 51.416 102.152 51.472C102.152 51.5187 102.152 51.57 102.152 51.626H95.7535V50.884H101.62L101.228 51.178C101.228 50.646 101.111 50.1747 100.878 49.764C100.654 49.344 100.346 49.0173 99.9535 48.784C99.5615 48.5507 99.1088 48.434 98.5955 48.434C98.0915 48.434 97.6388 48.5507 97.2375 48.784C96.8362 49.0173 96.5235 49.344 96.2995 49.764C96.0755 50.184 95.9635 50.6647 95.9635 51.206V51.36C95.9635 51.92 96.0848 52.4147 96.3275 52.844C96.5795 53.264 96.9248 53.5953 97.3635 53.838C97.8115 54.0713 98.3202 54.188 98.8895 54.188C99.3375 54.188 99.7528 54.1087 100.136 53.95C100.528 53.7913 100.864 53.5487 101.144 53.222L101.704 53.866C101.377 54.258 100.966 54.5567 100.472 54.762C99.9862 54.9673 99.4495 55.07 98.8615 55.07ZM113.373 47.58C113.97 47.58 114.488 47.6967 114.927 47.93C115.375 48.154 115.72 48.4993 115.963 48.966C116.215 49.4327 116.341 50.0207 116.341 50.73V55H115.347V50.828C115.347 50.0533 115.16 49.47 114.787 49.078C114.423 48.6767 113.905 48.476 113.233 48.476C112.729 48.476 112.29 48.5833 111.917 48.798C111.553 49.0033 111.268 49.3067 111.063 49.708C110.867 50.1 110.769 50.576 110.769 51.136V55H109.775V50.828C109.775 50.0533 109.588 49.47 109.215 49.078C108.841 48.6767 108.319 48.476 107.647 48.476C107.152 48.476 106.718 48.5833 106.345 48.798C105.971 49.0033 105.682 49.3067 105.477 49.708C105.281 50.1 105.183 50.576 105.183 51.136V55H104.189V47.65H105.141V49.638L104.987 49.288C105.211 48.756 105.57 48.3407 106.065 48.042C106.569 47.734 107.161 47.58 107.843 47.58C108.561 47.58 109.173 47.762 109.677 48.126C110.181 48.4807 110.507 49.0173 110.657 49.736L110.265 49.582C110.479 48.9847 110.857 48.504 111.399 48.14C111.949 47.7667 112.607 47.58 113.373 47.58ZM122.7 55V47.65H123.694V55H122.7ZM123.204 46.026C122.999 46.026 122.826 45.956 122.686 45.816C122.546 45.676 122.476 45.508 122.476 45.312C122.476 45.116 122.546 44.9527 122.686 44.822C122.826 44.682 122.999 44.612 123.204 44.612C123.41 44.612 123.582 44.6773 123.722 44.808C123.862 44.9387 123.932 45.102 123.932 45.298C123.932 45.5033 123.862 45.676 123.722 45.816C123.592 45.956 123.419 46.026 123.204 46.026ZM130.254 55.07C129.62 55.07 129.046 54.9253 128.532 54.636C128.019 54.3373 127.608 53.9127 127.3 53.362C127.002 52.802 126.852 52.1207 126.852 51.318C126.852 50.5153 127.002 49.8387 127.3 49.288C127.599 48.728 128.005 48.3033 128.518 48.014C129.032 47.7247 129.61 47.58 130.254 47.58C130.954 47.58 131.58 47.7387 132.13 48.056C132.69 48.364 133.129 48.8027 133.446 49.372C133.764 49.932 133.922 50.5807 133.922 51.318C133.922 52.0647 133.764 52.718 133.446 53.278C133.129 53.838 132.69 54.2767 132.13 54.594C131.58 54.9113 130.954 55.07 130.254 55.07ZM126.46 57.716V47.65H127.412V49.862L127.314 51.332L127.454 52.816V57.716H126.46ZM130.184 54.188C130.707 54.188 131.174 54.0713 131.584 53.838C131.995 53.5953 132.322 53.2593 132.564 52.83C132.807 52.3913 132.928 51.8873 132.928 51.318C132.928 50.7487 132.807 50.2493 132.564 49.82C132.322 49.3907 131.995 49.0547 131.584 48.812C131.174 48.5693 130.707 48.448 130.184 48.448C129.662 48.448 129.19 48.5693 128.77 48.812C128.36 49.0547 128.033 49.3907 127.79 49.82C127.557 50.2493 127.44 50.7487 127.44 51.318C127.44 51.8873 127.557 52.3913 127.79 52.83C128.033 53.2593 128.36 53.5953 128.77 53.838C129.19 54.0713 129.662 54.188 130.184 54.188ZM137.923 55.07C137.316 55.07 136.742 54.986 136.201 54.818C135.659 54.6407 135.235 54.4213 134.927 54.16L135.375 53.376C135.673 53.6 136.056 53.796 136.523 53.964C136.989 54.1227 137.479 54.202 137.993 54.202C138.693 54.202 139.197 54.0947 139.505 53.88C139.813 53.656 139.967 53.362 139.967 52.998C139.967 52.7273 139.878 52.5173 139.701 52.368C139.533 52.2093 139.309 52.0927 139.029 52.018C138.749 51.934 138.436 51.864 138.091 51.808C137.745 51.752 137.4 51.6867 137.055 51.612C136.719 51.5373 136.411 51.43 136.131 51.29C135.851 51.1407 135.622 50.94 135.445 50.688C135.277 50.436 135.193 50.1 135.193 49.68C135.193 49.2787 135.305 48.9193 135.529 48.602C135.753 48.2847 136.079 48.0373 136.509 47.86C136.947 47.6733 137.479 47.58 138.105 47.58C138.581 47.58 139.057 47.6453 139.533 47.776C140.009 47.8973 140.401 48.0607 140.709 48.266L140.275 49.064C139.948 48.84 139.598 48.6813 139.225 48.588C138.851 48.4853 138.478 48.434 138.105 48.434C137.442 48.434 136.952 48.5507 136.635 48.784C136.327 49.008 136.173 49.2973 136.173 49.652C136.173 49.932 136.257 50.1513 136.425 50.31C136.602 50.4687 136.831 50.5947 137.111 50.688C137.4 50.772 137.713 50.842 138.049 50.898C138.394 50.954 138.735 51.024 139.071 51.108C139.416 51.1827 139.729 51.29 140.009 51.43C140.298 51.5607 140.527 51.752 140.695 52.004C140.872 52.2467 140.961 52.5687 140.961 52.97C140.961 53.3993 140.839 53.7727 140.597 54.09C140.363 54.398 140.018 54.6407 139.561 54.818C139.113 54.986 138.567 55.07 137.923 55.07ZM145.822 55.07C145.197 55.07 144.651 54.9533 144.184 54.72C143.718 54.4867 143.354 54.1367 143.092 53.67C142.84 53.2033 142.714 52.62 142.714 51.92V47.65H143.708V51.808C143.708 52.592 143.9 53.1847 144.282 53.586C144.674 53.978 145.22 54.174 145.92 54.174C146.434 54.174 146.877 54.0713 147.25 53.866C147.633 53.6513 147.922 53.3433 148.118 52.942C148.324 52.5407 148.426 52.06 148.426 51.5V47.65H149.42V55H148.468V52.984L148.622 53.348C148.389 53.8893 148.025 54.314 147.53 54.622C147.045 54.9207 146.476 55.07 145.822 55.07ZM161.375 47.58C161.972 47.58 162.49 47.6967 162.929 47.93C163.377 48.154 163.722 48.4993 163.965 48.966C164.217 49.4327 164.343 50.0207 164.343 50.73V55H163.349V50.828C163.349 50.0533 163.162 49.47 162.789 49.078C162.425 48.6767 161.907 48.476 161.235 48.476C160.731 48.476 160.292 48.5833 159.919 48.798C159.555 49.0033 159.27 49.3067 159.065 49.708C158.869 50.1 158.771 50.576 158.771 51.136V55H157.777V50.828C157.777 50.0533 157.59 49.47 157.217 49.078C156.843 48.6767 156.321 48.476 155.649 48.476C155.154 48.476 154.72 48.5833 154.347 48.798C153.973 49.0033 153.684 49.3067 153.479 49.708C153.283 50.1 153.185 50.576 153.185 51.136V55H152.191V47.65H153.143V49.638L152.989 49.288C153.213 48.756 153.572 48.3407 154.067 48.042C154.571 47.734 155.163 47.58 155.845 47.58C156.563 47.58 157.175 47.762 157.679 48.126C158.183 48.4807 158.509 49.0173 158.659 49.736L158.267 49.582C158.481 48.9847 158.859 48.504 159.401 48.14C159.951 47.7667 160.609 47.58 161.375 47.58ZM173.628 55.07C172.928 55.07 172.298 54.9113 171.738 54.594C171.188 54.2767 170.754 53.838 170.436 53.278C170.119 52.7087 169.96 52.0553 169.96 51.318C169.96 50.5713 170.119 49.918 170.436 49.358C170.754 48.798 171.188 48.364 171.738 48.056C172.298 47.7387 172.928 47.58 173.628 47.58C174.272 47.58 174.846 47.7247 175.35 48.014C175.864 48.3033 176.27 48.728 176.568 49.288C176.876 49.8387 177.03 50.5153 177.03 51.318C177.03 52.1113 176.881 52.788 176.582 53.348C176.284 53.908 175.878 54.3373 175.364 54.636C174.86 54.9253 174.282 55.07 173.628 55.07ZM173.698 54.188C174.221 54.188 174.688 54.0713 175.098 53.838C175.518 53.5953 175.845 53.2593 176.078 52.83C176.321 52.3913 176.442 51.8873 176.442 51.318C176.442 50.7393 176.321 50.2353 176.078 49.806C175.845 49.3767 175.518 49.0453 175.098 48.812C174.688 48.5693 174.221 48.448 173.698 48.448C173.185 48.448 172.723 48.5693 172.312 48.812C171.902 49.0453 171.575 49.3767 171.332 49.806C171.09 50.2353 170.968 50.7393 170.968 51.318C170.968 51.8873 171.09 52.3913 171.332 52.83C171.575 53.2593 171.902 53.5953 172.312 53.838C172.723 54.0713 173.185 54.188 173.698 54.188ZM176.47 55V52.788L176.568 51.304L176.428 49.82V44.612H177.422V55H176.47ZM183.187 55.07C182.477 55.07 181.838 54.9113 181.269 54.594C180.709 54.2673 180.265 53.824 179.939 53.264C179.612 52.6947 179.449 52.046 179.449 51.318C179.449 50.5807 179.612 49.932 179.939 49.372C180.265 48.812 180.709 48.3733 181.269 48.056C181.829 47.7387 182.468 47.58 183.187 47.58C183.915 47.58 184.559 47.7387 185.119 48.056C185.688 48.3733 186.131 48.812 186.449 49.372C186.775 49.932 186.939 50.5807 186.939 51.318C186.939 52.046 186.775 52.6947 186.449 53.264C186.131 53.824 185.688 54.2673 185.119 54.594C184.549 54.9113 183.905 55.07 183.187 55.07ZM183.187 54.188C183.719 54.188 184.19 54.0713 184.601 53.838C185.011 53.5953 185.333 53.2593 185.567 52.83C185.809 52.3913 185.931 51.8873 185.931 51.318C185.931 50.7393 185.809 50.2353 185.567 49.806C185.333 49.3767 185.011 49.0453 184.601 48.812C184.19 48.5693 183.723 48.448 183.201 48.448C182.678 48.448 182.211 48.5693 181.801 48.812C181.39 49.0453 181.063 49.3767 180.821 49.806C180.578 50.2353 180.457 50.7393 180.457 51.318C180.457 51.8873 180.578 52.3913 180.821 52.83C181.063 53.2593 181.39 53.5953 181.801 53.838C182.211 54.0713 182.673 54.188 183.187 54.188ZM188.968 55V44.612H189.962V55H188.968ZM195.724 55.07C195.014 55.07 194.375 54.9113 193.806 54.594C193.246 54.2673 192.802 53.824 192.476 53.264C192.149 52.6947 191.986 52.046 191.986 51.318C191.986 50.5807 192.149 49.932 192.476 49.372C192.802 48.812 193.246 48.3733 193.806 48.056C194.366 47.7387 195.005 47.58 195.724 47.58C196.452 47.58 197.096 47.7387 197.656 48.056C198.225 48.3733 198.668 48.812 198.986 49.372C199.312 49.932 199.476 50.5807 199.476 51.318C199.476 52.046 199.312 52.6947 198.986 53.264C198.668 53.824 198.225 54.2673 197.656 54.594C197.086 54.9113 196.442 55.07 195.724 55.07ZM195.724 54.188C196.256 54.188 196.727 54.0713 197.138 53.838C197.548 53.5953 197.87 53.2593 198.104 52.83C198.346 52.3913 198.468 51.8873 198.468 51.318C198.468 50.7393 198.346 50.2353 198.104 49.806C197.87 49.3767 197.548 49.0453 197.138 48.812C196.727 48.5693 196.26 48.448 195.738 48.448C195.215 48.448 194.748 48.5693 194.338 48.812C193.927 49.0453 193.6 49.3767 193.358 49.806C193.115 50.2353 192.994 50.7393 192.994 51.318C192.994 51.8873 193.115 52.3913 193.358 52.83C193.6 53.2593 193.927 53.5953 194.338 53.838C194.748 54.0713 195.21 54.188 195.724 54.188ZM201.505 55V47.65H202.457V49.652L202.359 49.302C202.564 48.742 202.91 48.3173 203.395 48.028C203.88 47.7293 204.482 47.58 205.201 47.58V48.546C205.164 48.546 205.126 48.546 205.089 48.546C205.052 48.5367 205.014 48.532 204.977 48.532C204.202 48.532 203.596 48.77 203.157 49.246C202.718 49.7127 202.499 50.38 202.499 51.248V55H201.505ZM212.762 55.07C212.156 55.07 211.582 54.986 211.04 54.818C210.499 54.6407 210.074 54.4213 209.766 54.16L210.214 53.376C210.513 53.6 210.896 53.796 211.362 53.964C211.829 54.1227 212.319 54.202 212.832 54.202C213.532 54.202 214.036 54.0947 214.344 53.88C214.652 53.656 214.806 53.362 214.806 52.998C214.806 52.7273 214.718 52.5173 214.54 52.368C214.372 52.2093 214.148 52.0927 213.868 52.018C213.588 51.934 213.276 51.864 212.93 51.808C212.585 51.752 212.24 51.6867 211.894 51.612C211.558 51.5373 211.25 51.43 210.97 51.29C210.69 51.1407 210.462 50.94 210.284 50.688C210.116 50.436 210.032 50.1 210.032 49.68C210.032 49.2787 210.144 48.9193 210.368 48.602C210.592 48.2847 210.919 48.0373 211.348 47.86C211.787 47.6733 212.319 47.58 212.944 47.58C213.42 47.58 213.896 47.6453 214.372 47.776C214.848 47.8973 215.24 48.0607 215.548 48.266L215.114 49.064C214.788 48.84 214.438 48.6813 214.064 48.588C213.691 48.4853 213.318 48.434 212.944 48.434C212.282 48.434 211.792 48.5507 211.474 48.784C211.166 49.008 211.012 49.2973 211.012 49.652C211.012 49.932 211.096 50.1513 211.264 50.31C211.442 50.4687 211.67 50.5947 211.95 50.688C212.24 50.772 212.552 50.842 212.888 50.898C213.234 50.954 213.574 51.024 213.91 51.108C214.256 51.1827 214.568 51.29 214.848 51.43C215.138 51.5607 215.366 51.752 215.534 52.004C215.712 52.2467 215.8 52.5687 215.8 52.97C215.8 53.3993 215.679 53.7727 215.436 54.09C215.203 54.398 214.858 54.6407 214.4 54.818C213.952 54.986 213.406 55.07 212.762 55.07ZM217.624 55V47.65H218.618V55H217.624ZM218.128 46.026C217.923 46.026 217.75 45.956 217.61 45.816C217.47 45.676 217.4 45.508 217.4 45.312C217.4 45.116 217.47 44.9527 217.61 44.822C217.75 44.682 217.923 44.612 218.128 44.612C218.334 44.612 218.506 44.6773 218.646 44.808C218.786 44.9387 218.856 45.102 218.856 45.298C218.856 45.5033 218.786 45.676 218.646 45.816C218.516 45.956 218.343 46.026 218.128 46.026ZM223.708 55.07C223.017 55.07 222.485 54.8833 222.112 54.51C221.739 54.1367 221.552 53.6093 221.552 52.928V46.026H222.546V52.872C222.546 53.3013 222.653 53.6327 222.868 53.866C223.092 54.0993 223.409 54.216 223.82 54.216C224.259 54.216 224.623 54.09 224.912 53.838L225.262 54.552C225.066 54.7293 224.828 54.86 224.548 54.944C224.277 55.028 223.997 55.07 223.708 55.07ZM220.236 48.476V47.65H224.786V48.476H220.236ZM235.342 55V53.376L235.3 53.11V50.394C235.3 49.7687 235.122 49.288 234.768 48.952C234.422 48.616 233.904 48.448 233.214 48.448C232.738 48.448 232.285 48.5273 231.856 48.686C231.426 48.8447 231.062 49.0547 230.764 49.316L230.316 48.574C230.689 48.2567 231.137 48.014 231.66 47.846C232.182 47.6687 232.733 47.58 233.312 47.58C234.264 47.58 234.996 47.818 235.51 48.294C236.032 48.7607 236.294 49.4747 236.294 50.436V55H235.342ZM232.808 55.07C232.257 55.07 231.776 54.9813 231.366 54.804C230.964 54.6173 230.656 54.3653 230.442 54.048C230.227 53.7213 230.12 53.348 230.12 52.928C230.12 52.5453 230.208 52.2 230.386 51.892C230.572 51.5747 230.871 51.3227 231.282 51.136C231.702 50.94 232.262 50.842 232.962 50.842H235.496V51.584H232.99C232.28 51.584 231.786 51.71 231.506 51.962C231.235 52.214 231.1 52.5267 231.1 52.9C231.1 53.32 231.263 53.656 231.59 53.908C231.916 54.16 232.374 54.286 232.962 54.286C233.522 54.286 234.002 54.16 234.404 53.908C234.814 53.6467 235.113 53.2733 235.3 52.788L235.524 53.474C235.337 53.9593 235.01 54.3467 234.544 54.636C234.086 54.9253 233.508 55.07 232.808 55.07ZM248.177 47.58C248.775 47.58 249.293 47.6967 249.731 47.93C250.179 48.154 250.525 48.4993 250.767 48.966C251.019 49.4327 251.145 50.0207 251.145 50.73V55H250.151V50.828C250.151 50.0533 249.965 49.47 249.591 49.078C249.227 48.6767 248.709 48.476 248.037 48.476C247.533 48.476 247.095 48.5833 246.721 48.798C246.357 49.0033 246.073 49.3067 245.867 49.708C245.671 50.1 245.573 50.576 245.573 51.136V55H244.579V50.828C244.579 50.0533 244.393 49.47 244.019 49.078C243.646 48.6767 243.123 48.476 242.451 48.476C241.957 48.476 241.523 48.5833 241.149 48.798C240.776 49.0033 240.487 49.3067 240.281 49.708C240.085 50.1 239.987 50.576 239.987 51.136V55H238.993V47.65H239.945V49.638L239.791 49.288C240.015 48.756 240.375 48.3407 240.869 48.042C241.373 47.734 241.966 47.58 242.647 47.58C243.366 47.58 243.977 47.762 244.481 48.126C244.985 48.4807 245.312 49.0173 245.461 49.736L245.069 49.582C245.284 48.9847 245.662 48.504 246.203 48.14C246.754 47.7667 247.412 47.58 248.177 47.58ZM256.963 55.07C256.198 55.07 255.526 54.9113 254.947 54.594C254.368 54.2673 253.916 53.824 253.589 53.264C253.262 52.6947 253.099 52.046 253.099 51.318C253.099 50.59 253.253 49.946 253.561 49.386C253.878 48.826 254.308 48.3873 254.849 48.07C255.4 47.7433 256.016 47.58 256.697 47.58C257.388 47.58 257.999 47.7387 258.531 48.056C259.072 48.364 259.497 48.8027 259.805 49.372C260.113 49.932 260.267 50.5807 260.267 51.318C260.267 51.3647 260.262 51.416 260.253 51.472C260.253 51.5187 260.253 51.57 260.253 51.626H253.855V50.884H259.721L259.329 51.178C259.329 50.646 259.212 50.1747 258.979 49.764C258.755 49.344 258.447 49.0173 258.055 48.784C257.663 48.5507 257.21 48.434 256.697 48.434C256.193 48.434 255.74 48.5507 255.339 48.784C254.938 49.0173 254.625 49.344 254.401 49.764C254.177 50.184 254.065 50.6647 254.065 51.206V51.36C254.065 51.92 254.186 52.4147 254.429 52.844C254.681 53.264 255.026 53.5953 255.465 53.838C255.913 54.0713 256.422 54.188 256.991 54.188C257.439 54.188 257.854 54.1087 258.237 53.95C258.629 53.7913 258.965 53.5487 259.245 53.222L259.805 53.866C259.478 54.258 259.068 54.5567 258.573 54.762C258.088 54.9673 257.551 55.07 256.963 55.07ZM264.614 55.07C263.924 55.07 263.392 54.8833 263.018 54.51C262.645 54.1367 262.458 53.6093 262.458 52.928V46.026H263.452V52.872C263.452 53.3013 263.56 53.6327 263.774 53.866C263.998 54.0993 264.316 54.216 264.726 54.216C265.165 54.216 265.529 54.09 265.818 53.838L266.168 54.552C265.972 54.7293 265.734 54.86 265.454 54.944C265.184 55.028 264.904 55.07 264.614 55.07ZM261.142 48.476V47.65H265.692V48.476H261.142ZM77.18 72.07C76.5453 72.07 75.9713 71.9253 75.458 71.636C74.9447 71.3373 74.534 70.9127 74.226 70.362C73.9273 69.802 73.778 69.1207 73.778 68.318C73.778 67.5153 73.9273 66.8387 74.226 66.288C74.5247 65.728 74.9307 65.3033 75.444 65.014C75.9573 64.7247 76.536 64.58 77.18 64.58C77.88 64.58 78.5053 64.7387 79.056 65.056C79.616 65.364 80.0547 65.8027 80.372 66.372C80.6893 66.932 80.848 67.5807 80.848 68.318C80.848 69.0647 80.6893 69.718 80.372 70.278C80.0547 70.838 79.616 71.2767 79.056 71.594C78.5053 71.9113 77.88 72.07 77.18 72.07ZM73.386 74.716V64.65H74.338V66.862L74.24 68.332L74.38 69.816V74.716H73.386ZM77.11 71.188C77.6327 71.188 78.0993 71.0713 78.51 70.838C78.9207 70.5953 79.2473 70.2593 79.49 69.83C79.7327 69.3913 79.854 68.8873 79.854 68.318C79.854 67.7487 79.7327 67.2493 79.49 66.82C79.2473 66.3907 78.9207 66.0547 78.51 65.812C78.0993 65.5693 77.6327 65.448 77.11 65.448C76.5873 65.448 76.116 65.5693 75.696 65.812C75.2853 66.0547 74.9587 66.3907 74.716 66.82C74.4827 67.2493 74.366 67.7487 74.366 68.318C74.366 68.8873 74.4827 69.3913 74.716 69.83C74.9587 70.2593 75.2853 70.5953 75.696 70.838C76.116 71.0713 76.5873 71.188 77.11 71.188ZM85.9123 72.07C85.2869 72.07 84.7409 71.9533 84.2743 71.72C83.8076 71.4867 83.4436 71.1367 83.1823 70.67C82.9303 70.2033 82.8043 69.62 82.8043 68.92V64.65H83.7983V68.808C83.7983 69.592 83.9896 70.1847 84.3723 70.586C84.7643 70.978 85.3103 71.174 86.0103 71.174C86.5236 71.174 86.9669 71.0713 87.3403 70.866C87.7229 70.6513 88.0123 70.3433 88.2083 69.942C88.4136 69.5407 88.5163 69.06 88.5163 68.5V64.65H89.5103V72H88.5583V69.984L88.7123 70.348C88.4789 70.8893 88.1149 71.314 87.6203 71.622C87.1349 71.9207 86.5656 72.07 85.9123 72.07ZM92.2805 72V64.65H93.2325V66.652L93.1345 66.302C93.3399 65.742 93.6852 65.3173 94.1705 65.028C94.6559 64.7293 95.2579 64.58 95.9765 64.58V65.546C95.9392 65.546 95.9019 65.546 95.8645 65.546C95.8272 65.5367 95.7899 65.532 95.7525 65.532C94.9779 65.532 94.3712 65.77 93.9325 66.246C93.4939 66.7127 93.2745 67.38 93.2745 68.248V72H92.2805ZM100.938 72.07C100.312 72.07 99.7663 71.9533 99.2997 71.72C98.833 71.4867 98.469 71.1367 98.2077 70.67C97.9557 70.2033 97.8297 69.62 97.8297 68.92V64.65H98.8237V68.808C98.8237 69.592 99.015 70.1847 99.3977 70.586C99.7897 70.978 100.336 71.174 101.036 71.174C101.549 71.174 101.992 71.0713 102.366 70.866C102.748 70.6513 103.038 70.3433 103.234 69.942C103.439 69.5407 103.542 69.06 103.542 68.5V64.65H104.536V72H103.584V69.984L103.738 70.348C103.504 70.8893 103.14 71.314 102.646 71.622C102.16 71.9207 101.591 72.07 100.938 72.07ZM109.28 72.07C108.673 72.07 108.099 71.986 107.558 71.818C107.017 71.6407 106.592 71.4213 106.284 71.16L106.732 70.376C107.031 70.6 107.413 70.796 107.88 70.964C108.347 71.1227 108.837 71.202 109.35 71.202C110.05 71.202 110.554 71.0947 110.862 70.88C111.17 70.656 111.324 70.362 111.324 69.998C111.324 69.7273 111.235 69.5173 111.058 69.368C110.89 69.2093 110.666 69.0927 110.386 69.018C110.106 68.934 109.793 68.864 109.448 68.808C109.103 68.752 108.757 68.6867 108.412 68.612C108.076 68.5373 107.768 68.43 107.488 68.29C107.208 68.1407 106.979 67.94 106.802 67.688C106.634 67.436 106.55 67.1 106.55 66.68C106.55 66.2787 106.662 65.9193 106.886 65.602C107.11 65.2847 107.437 65.0373 107.866 64.86C108.305 64.6733 108.837 64.58 109.462 64.58C109.938 64.58 110.414 64.6453 110.89 64.776C111.366 64.8973 111.758 65.0607 112.066 65.266L111.632 66.064C111.305 65.84 110.955 65.6813 110.582 65.588C110.209 65.4853 109.835 65.434 109.462 65.434C108.799 65.434 108.309 65.5507 107.992 65.784C107.684 66.008 107.53 66.2973 107.53 66.652C107.53 66.932 107.614 67.1513 107.782 67.31C107.959 67.4687 108.188 67.5947 108.468 67.688C108.757 67.772 109.07 67.842 109.406 67.898C109.751 67.954 110.092 68.024 110.428 68.108C110.773 68.1827 111.086 68.29 111.366 68.43C111.655 68.5607 111.884 68.752 112.052 69.004C112.229 69.2467 112.318 69.5687 112.318 69.97C112.318 70.3993 112.197 70.7727 111.954 71.09C111.721 71.398 111.375 71.6407 110.918 71.818C110.47 71.986 109.924 72.07 109.28 72.07ZM114.24 72.07C114.035 72.07 113.857 71.9953 113.708 71.846C113.568 71.6967 113.498 71.5147 113.498 71.3C113.498 71.076 113.568 70.894 113.708 70.754C113.857 70.614 114.035 70.544 114.24 70.544C114.445 70.544 114.618 70.614 114.758 70.754C114.907 70.894 114.982 71.076 114.982 71.3C114.982 71.5147 114.907 71.6967 114.758 71.846C114.618 71.9953 114.445 72.07 114.24 72.07Z" fill="#092042"/>
</svg>
