<svg width="40" height="43" viewBox="0 0 40 43" fill="none" xmlns="http://www.w3.org/2000/svg">
<path d="M32.8149 11.147L4.06785 14.3551C3.47037 14.4221 2.89193 14.6061 2.36558 14.8966C1.83922 15.1872 1.37527 15.5786 1.00018 16.0484C0.625096 16.5183 0.346217 17.0574 0.179507 17.6351C0.0127967 18.2127 -0.0384912 18.8175 0.0285606 19.415L2.12965 38.2085C2.26413 39.4142 2.87208 40.5171 3.81975 41.2746C4.76741 42.0321 5.97717 42.3822 7.18291 42.2477L35.9299 39.0396C37.1355 38.9042 38.2382 38.2962 38.9961 37.3488C39.754 36.4015 40.1051 35.1922 39.9725 33.9863L37.8681 15.1862C37.802 14.589 37.6187 14.0107 37.3288 13.4844C37.039 12.9581 36.6482 12.4941 36.1789 12.119C35.7096 11.7438 35.1709 11.4649 34.5937 11.2981C34.0164 11.1313 33.412 11.0799 32.8149 11.147Z" fill="#092042"/>
<path d="M9.45356 37.8261C8.92988 37.9001 8.39625 37.8548 7.89254 37.6936C7.38883 37.5324 6.92806 37.2595 6.54461 36.8953C5.69763 36.073 5.18686 34.965 5.11173 33.7869C4.95548 32.3806 5.19485 31.2104 5.81985 30.2629C6.12279 29.801 6.5275 29.4146 7.00293 29.1334C7.47836 28.8522 8.01188 28.6836 8.56257 28.6405C9.08348 28.5665 9.61443 28.6128 10.1146 28.7759C10.6149 28.939 11.0711 29.2145 11.4483 29.5814C12.2362 30.3294 12.7116 31.3832 12.8612 32.7396C13.0108 34.096 12.7781 35.2895 12.1531 36.2304C11.8557 36.6856 11.4575 37.0664 10.9894 37.3431C10.5213 37.6198 9.99579 37.7851 9.45356 37.8261ZM8.69556 30.3792C8.39944 30.4059 8.11506 30.5078 7.86949 30.6754C7.62391 30.843 7.42534 31.0707 7.29263 31.3367C6.96643 32.0011 6.856 32.7508 6.9768 33.481C7.01711 34.2194 7.29065 34.9259 7.75805 35.499C7.94591 35.7152 8.18305 35.883 8.44943 35.9883C8.71581 36.0936 9.00364 36.1333 9.28857 36.104C9.5735 36.0746 9.84719 35.9771 10.0865 35.8198C10.3259 35.6624 10.5238 35.4498 10.6637 35.1998C10.9909 34.5416 11.0992 33.7961 10.9728 33.0721C10.935 32.3158 10.6684 31.5889 10.2082 30.9876C10.0327 30.7612 9.80006 30.5856 9.53426 30.4786C9.26845 30.3717 8.97899 30.3374 8.69556 30.3792Z" fill="white"/>
<path d="M18.0042 29.3985L15.2116 29.731L15.4543 31.9085L18.0208 31.6193L18.2037 33.2383L15.6371 33.5275L16.0095 36.9518L14.2242 37.1546L13.2269 28.2914L17.8047 27.7795L18.0042 29.3985Z" fill="white"/>
<path d="M23.4165 28.7835L20.6239 29.1159L20.8633 31.2935L23.4331 31.0042L23.616 32.6233L21.0461 32.9158L21.4284 36.3534L19.6398 36.5528L18.6425 27.6964L23.2303 27.1545L23.4165 28.7835Z" fill="white"/>
<path d="M29.8328 35.3992L25.0788 35.9312L24.0814 27.0713L28.6526 26.5627L28.8354 28.1917L26.0495 28.5009L26.2689 30.469L28.8587 30.1798L29.0416 31.7988L26.4484 32.0913L26.6745 34.1193L29.6433 33.7869L29.8328 35.3992Z" fill="white"/>
<path d="M37.2863 34.5615L35.2318 34.7908L33.7457 32.6499C33.636 32.4836 33.5263 32.3407 33.4133 32.2143C33.3236 32.0959 33.2247 31.9847 33.1174 31.8819C33.0262 31.8053 32.9257 31.7405 32.8182 31.6891C32.7133 31.6451 32.5981 31.6313 32.4858 31.6492L32.0037 31.699L32.3894 35.09L30.6008 35.2895L29.6034 26.4297L32.4292 26.0973C34.3475 25.8812 35.4013 26.5793 35.5775 28.1817C35.6137 28.4731 35.6025 28.7683 35.5443 29.0561C35.4925 29.3194 35.397 29.5722 35.2617 29.8041C35.1278 30.0313 34.9596 30.2365 34.763 30.4125C34.5552 30.5917 34.3222 30.7395 34.0715 30.8513V30.8779C34.2046 30.9075 34.3302 30.9641 34.4406 31.0441C34.5684 31.1286 34.6875 31.2255 34.7963 31.3334C34.9145 31.4483 35.0255 31.5705 35.1287 31.699L35.4346 32.088L37.2863 34.5615ZM31.5981 27.7462L31.874 30.213L32.6487 30.1299C32.8201 30.1182 32.9871 30.0701 33.1385 29.9887C33.2899 29.9073 33.4221 29.7945 33.5263 29.6578C33.6303 29.5201 33.7059 29.363 33.7487 29.1958C33.7915 29.0286 33.8007 28.8545 33.7757 28.6837C33.6926 27.9124 33.2371 27.57 32.406 27.6631L31.5981 27.7462Z" fill="white"/>
<path d="M9.45356 37.8261C8.92988 37.9001 8.39625 37.8548 7.89254 37.6936C7.38883 37.5324 6.92806 37.2595 6.54461 36.8953C5.69763 36.073 5.18686 34.965 5.11173 33.7869C4.95548 32.3806 5.19485 31.2104 5.81985 30.2629C6.12279 29.801 6.5275 29.4146 7.00293 29.1334C7.47836 28.8522 8.01188 28.6836 8.56257 28.6405C9.08348 28.5665 9.61443 28.6128 10.1146 28.7759C10.6149 28.939 11.0711 29.2145 11.4483 29.5814C12.2362 30.3294 12.7116 31.3832 12.8612 32.7396C13.0108 34.096 12.7781 35.2895 12.1531 36.2304C11.8557 36.6856 11.4575 37.0664 10.9894 37.3431C10.5213 37.6198 9.99579 37.7851 9.45356 37.8261ZM8.69556 30.3792C8.39944 30.4059 8.11506 30.5078 7.86949 30.6754C7.62391 30.843 7.42534 31.0707 7.29263 31.3367C6.96643 32.0011 6.856 32.7508 6.9768 33.481C7.01711 34.2194 7.29065 34.9259 7.75805 35.499C7.94591 35.7152 8.18305 35.883 8.44943 35.9883C8.71581 36.0936 9.00364 36.1333 9.28857 36.104C9.5735 36.0746 9.84719 35.9771 10.0865 35.8198C10.3259 35.6624 10.5238 35.4498 10.6637 35.1998C10.9909 34.5416 11.0992 33.7961 10.9728 33.0721C10.935 32.3158 10.6684 31.5889 10.2082 30.9876C10.0327 30.7612 9.80006 30.5856 9.53426 30.4786C9.26845 30.3717 8.97899 30.3374 8.69556 30.3792Z" fill="#F47D21"/>
<path d="M18.0042 29.3985L15.2116 29.731L15.4543 31.9085L18.0208 31.6193L18.2037 33.2383L15.6371 33.5275L16.0095 36.9518L14.2242 37.1546L13.2269 28.2914L17.8047 27.7795L18.0042 29.3985Z" fill="#F47D21"/>
<path d="M23.4165 28.7835L20.6239 29.1159L20.8633 31.2935L23.4331 31.0042L23.616 32.6233L21.0461 32.9158L21.4284 36.3534L19.6398 36.5528L18.6425 27.6964L23.2303 27.1545L23.4165 28.7835Z" fill="#F47D21"/>
<path d="M29.8328 35.3992L25.0788 35.9312L24.0814 27.0713L28.6526 26.5627L28.8354 28.1917L26.0495 28.5009L26.2689 30.469L28.8587 30.1798L29.0416 31.7988L26.4484 32.0913L26.6745 34.1193L29.6433 33.7869L29.8328 35.3992Z" fill="#F47D21"/>
<path d="M37.2863 34.5615L35.2318 34.7908L33.7457 32.6499C33.636 32.4836 33.5263 32.3407 33.4133 32.2143C33.3236 32.0959 33.2247 31.9847 33.1174 31.8819C33.0262 31.8053 32.9257 31.7405 32.8182 31.6891C32.7133 31.6451 32.5981 31.6313 32.4858 31.6492L32.0037 31.699L32.3894 35.09L30.6008 35.2895L29.6034 26.4297L32.4292 26.0973C34.3475 25.8812 35.4013 26.5793 35.5775 28.1817C35.6137 28.4731 35.6025 28.7683 35.5443 29.0561C35.4925 29.3194 35.397 29.5722 35.2617 29.8041C35.1278 30.0313 34.9596 30.2365 34.763 30.4125C34.5552 30.5917 34.3222 30.7395 34.0715 30.8513V30.8779C34.2046 30.9075 34.3302 30.9641 34.4406 31.0441C34.5684 31.1286 34.6875 31.2255 34.7963 31.3334C34.9145 31.4483 35.0255 31.5705 35.1287 31.699L35.4346 32.088L37.2863 34.5615ZM31.5981 27.7462L31.874 30.213L32.6487 30.1299C32.8201 30.1182 32.9871 30.0701 33.1385 29.9887C33.2899 29.9073 33.4221 29.7945 33.5263 29.6578C33.6303 29.5201 33.7059 29.363 33.7487 29.1958C33.7915 29.0286 33.8007 28.8545 33.7757 28.6837C33.6926 27.9124 33.2371 27.57 32.406 27.6631L31.5981 27.7462Z" fill="#F47D21"/>
<path d="M9.45356 37.8261C8.92988 37.9001 8.39625 37.8548 7.89254 37.6936C7.38883 37.5324 6.92806 37.2595 6.54461 36.8953C5.69763 36.073 5.18686 34.965 5.11173 33.7869C4.95548 32.3806 5.19485 31.2104 5.81985 30.2629C6.12279 29.801 6.5275 29.4146 7.00293 29.1334C7.47836 28.8522 8.01188 28.6836 8.56257 28.6405C9.08348 28.5665 9.61443 28.6128 10.1146 28.7759C10.6149 28.939 11.0711 29.2145 11.4483 29.5814C12.2362 30.3294 12.7116 31.3832 12.8612 32.7396C13.0108 34.096 12.7781 35.2895 12.1531 36.2304C11.8557 36.6856 11.4575 37.0664 10.9894 37.3431C10.5213 37.6198 9.99579 37.7851 9.45356 37.8261ZM8.69556 30.3792C8.39944 30.4059 8.11506 30.5078 7.86949 30.6754C7.62391 30.843 7.42534 31.0707 7.29263 31.3367C6.96643 32.0011 6.856 32.7508 6.9768 33.481C7.01711 34.2194 7.29065 34.9259 7.75805 35.499C7.94591 35.7152 8.18305 35.883 8.44943 35.9883C8.71581 36.0936 9.00364 36.1333 9.28857 36.104C9.5735 36.0746 9.84719 35.9771 10.0865 35.8198C10.3259 35.6624 10.5238 35.4498 10.6637 35.1998C10.9909 34.5416 11.0992 33.7961 10.9728 33.0721C10.935 32.3158 10.6684 31.5889 10.2082 30.9876C10.0327 30.7612 9.80006 30.5856 9.53426 30.4786C9.26845 30.3717 8.97899 30.3374 8.69556 30.3792Z" fill="#F47D21"/>
<path d="M18.0042 29.3985L15.2116 29.731L15.4543 31.9085L18.0208 31.6193L18.2037 33.2383L15.6371 33.5275L16.0095 36.9518L14.2242 37.1546L13.2269 28.2914L17.8047 27.7795L18.0042 29.3985Z" fill="#F47D21"/>
<path d="M23.4165 28.7835L20.6239 29.1159L20.8633 31.2935L23.4331 31.0042L23.616 32.6233L21.0461 32.9158L21.4284 36.3534L19.6398 36.5528L18.6425 27.6964L23.2303 27.1545L23.4165 28.7835Z" fill="#F47D21"/>
<path d="M29.8328 35.3992L25.0788 35.9312L24.0814 27.0713L28.6526 26.5627L28.8354 28.1917L26.0495 28.5009L26.2689 30.469L28.8587 30.1798L29.0416 31.7988L26.4484 32.0913L26.6745 34.1193L29.6433 33.7869L29.8328 35.3992Z" fill="#F47D21"/>
<path d="M37.2863 34.5615L35.2318 34.7908L33.7457 32.6499C33.636 32.4836 33.5263 32.3407 33.4133 32.2143C33.3236 32.0959 33.2247 31.9847 33.1174 31.8819C33.0262 31.8053 32.9257 31.7405 32.8182 31.6891C32.7133 31.6451 32.5981 31.6313 32.4858 31.6492L32.0037 31.699L32.3894 35.09L30.6008 35.2895L29.6034 26.4297L32.4292 26.0973C34.3475 25.8812 35.4013 26.5793 35.5775 28.1817C35.6137 28.4731 35.6025 28.7683 35.5443 29.0561C35.4925 29.3194 35.397 29.5722 35.2617 29.8041C35.1278 30.0313 34.9596 30.2365 34.763 30.4125C34.5552 30.5917 34.3222 30.7395 34.0715 30.8513V30.8779C34.2046 30.9075 34.3302 30.9641 34.4406 31.0441C34.5684 31.1286 34.6875 31.2255 34.7963 31.3334C34.9145 31.4483 35.0255 31.5705 35.1287 31.699L35.4346 32.088L37.2863 34.5615ZM31.5981 27.7462L31.874 30.213L32.6487 30.1299C32.8201 30.1182 32.9871 30.0701 33.1385 29.9887C33.2899 29.9073 33.4221 29.7945 33.5263 29.6578C33.6303 29.5201 33.7059 29.363 33.7487 29.1958C33.7915 29.0286 33.8007 28.8545 33.7757 28.6837C33.6926 27.9124 33.2371 27.57 32.406 27.6631L31.5981 27.7462Z" fill="#F47D21"/>
<path d="M9.45356 37.8261C8.92988 37.9001 8.39625 37.8548 7.89254 37.6936C7.38883 37.5324 6.92806 37.2595 6.54461 36.8953C5.69763 36.073 5.18686 34.965 5.11173 33.7869C4.95548 32.3806 5.19485 31.2104 5.81985 30.2629C6.12279 29.801 6.5275 29.4146 7.00293 29.1334C7.47836 28.8522 8.01188 28.6836 8.56257 28.6405C9.08348 28.5665 9.61443 28.6128 10.1146 28.7759C10.6149 28.939 11.0711 29.2145 11.4483 29.5814C12.2362 30.3294 12.7116 31.3832 12.8612 32.7396C13.0108 34.096 12.7781 35.2895 12.1531 36.2304C11.8557 36.6856 11.4575 37.0664 10.9894 37.3431C10.5213 37.6198 9.99579 37.7851 9.45356 37.8261ZM8.69556 30.3792C8.39944 30.4059 8.11506 30.5078 7.86949 30.6754C7.62391 30.843 7.42534 31.0707 7.29263 31.3367C6.96643 32.0011 6.856 32.7508 6.9768 33.481C7.01711 34.2194 7.29065 34.9259 7.75805 35.499C7.94591 35.7152 8.18305 35.883 8.44943 35.9883C8.71581 36.0936 9.00364 36.1333 9.28857 36.104C9.5735 36.0746 9.84719 35.9771 10.0865 35.8198C10.3259 35.6624 10.5238 35.4498 10.6637 35.1998C10.9909 34.5416 11.0992 33.7961 10.9728 33.0721C10.935 32.3158 10.6684 31.5889 10.2082 30.9876C10.0327 30.7612 9.80006 30.5856 9.53426 30.4786C9.26845 30.3717 8.97899 30.3374 8.69556 30.3792Z" fill="#F47D21"/>
<path d="M18.0042 29.3985L15.2116 29.731L15.4543 31.9085L18.0208 31.6193L18.2037 33.2383L15.6371 33.5275L16.0095 36.9518L14.2242 37.1546L13.2269 28.2914L17.8047 27.7795L18.0042 29.3985Z" fill="#F47D21"/>
<path d="M23.4165 28.7835L20.6239 29.1159L20.8633 31.2935L23.4331 31.0042L23.616 32.6233L21.0461 32.9158L21.4284 36.3534L19.6398 36.5528L18.6425 27.6964L23.2303 27.1545L23.4165 28.7835Z" fill="#F47D21"/>
<path d="M29.8328 35.3992L25.0788 35.9312L24.0814 27.0713L28.6526 26.5627L28.8354 28.1917L26.0495 28.5009L26.2689 30.469L28.8587 30.1798L29.0416 31.7988L26.4484 32.0913L26.6745 34.1193L29.6433 33.7869L29.8328 35.3992Z" fill="#F47D21"/>
<path d="M37.2863 34.5615L35.2318 34.7908L33.7457 32.6499C33.636 32.4836 33.5263 32.3407 33.4133 32.2143C33.3236 32.0959 33.2247 31.9847 33.1174 31.8819C33.0262 31.8053 32.9257 31.7405 32.8182 31.6891C32.7133 31.6451 32.5981 31.6313 32.4858 31.6492L32.0037 31.699L32.3894 35.09L30.6008 35.2895L29.6034 26.4297L32.4292 26.0973C34.3475 25.8812 35.4013 26.5793 35.5775 28.1817C35.6137 28.4731 35.6025 28.7683 35.5443 29.0561C35.4925 29.3194 35.397 29.5722 35.2617 29.8041C35.1278 30.0313 34.9596 30.2365 34.763 30.4125C34.5552 30.5917 34.3222 30.7395 34.0715 30.8513V30.8779C34.2046 30.9075 34.3302 30.9641 34.4406 31.0441C34.5684 31.1286 34.6875 31.2255 34.7963 31.3334C34.9145 31.4483 35.0255 31.5705 35.1287 31.699L35.4346 32.088L37.2863 34.5615ZM31.5981 27.7462L31.874 30.213L32.6487 30.1299C32.8201 30.1182 32.9871 30.0701 33.1385 29.9887C33.2899 29.9073 33.4221 29.7945 33.5263 29.6578C33.6303 29.5201 33.7059 29.363 33.7487 29.1958C33.7915 29.0286 33.8007 28.8545 33.7757 28.6837C33.6926 27.9124 33.2371 27.57 32.406 27.6631L31.5981 27.7462Z" fill="#F47D21"/>
<path d="M4.70616 25.9743L4.59977 25.0201C4.71192 25.1076 4.83346 25.1823 4.96215 25.2429C5.10372 25.3085 5.25196 25.3587 5.4043 25.3925C5.5543 25.4271 5.70646 25.4515 5.85975 25.4656C5.99907 25.4789 6.13933 25.4789 6.27865 25.4656C6.62342 25.4553 6.95287 25.3207 7.2062 25.0866C7.30357 24.9716 7.37481 24.8369 7.41499 24.6916C7.45517 24.5464 7.46332 24.3942 7.4389 24.2455C7.42351 24.0783 7.37008 23.9168 7.28265 23.7734C7.19507 23.637 7.08224 23.5185 6.9502 23.4244C6.79683 23.3172 6.6357 23.2217 6.46814 23.1385L5.87639 22.8725C5.66408 22.7812 5.45658 22.6791 5.25471 22.5666C5.0683 22.4668 4.89516 22.3439 4.7394 22.2009C4.58847 22.062 4.46154 21.8992 4.36372 21.7189C4.26234 21.51 4.19823 21.285 4.17425 21.054C4.13557 20.7688 4.16403 20.4785 4.25736 20.2062C4.34524 19.968 4.48489 19.7523 4.66627 19.5746C4.84113 19.4048 5.04639 19.2695 5.27133 19.1756C5.5106 19.0759 5.76219 19.0088 6.01934 18.9762C6.45831 18.8949 6.91086 18.9293 7.33253 19.0759L7.43226 19.9901C7.009 19.7397 6.51215 19.6434 6.02598 19.7175C5.87292 19.73 5.72269 19.7659 5.58051 19.8239C5.43773 19.8747 5.30496 19.9501 5.18822 20.0467C5.07791 20.1471 4.98961 20.2694 4.92889 20.4057C4.86667 20.5641 4.84719 20.7361 4.87238 20.9044C4.88699 21.0612 4.93218 21.2137 5.00537 21.3532C5.07769 21.4829 5.17618 21.5961 5.2946 21.6856C5.43488 21.7866 5.58269 21.8766 5.73675 21.9549C5.91295 22.038 6.10245 22.1278 6.32852 22.2209C6.55459 22.314 6.774 22.427 6.99342 22.5367C7.19013 22.6489 7.37599 22.7791 7.54861 22.9257C7.7108 23.0706 7.84786 23.2413 7.95421 23.431C8.06648 23.637 8.13762 23.8628 8.16366 24.0959C8.20815 24.3935 8.1831 24.6973 8.09051 24.9835C8.00497 25.2214 7.86755 25.4371 7.68823 25.6152C7.50299 25.7887 7.28636 25.9252 7.04993 26.0175C6.79209 26.1109 6.52439 26.1745 6.25206 26.207C6.13587 26.2157 6.01917 26.2157 5.90297 26.207C5.75835 26.2083 5.61386 26.1982 5.47079 26.177C5.32703 26.1602 5.18478 26.1325 5.04527 26.0939C4.92509 26.0783 4.80955 26.0375 4.70616 25.9743Z" fill="white"/>
<path d="M9.94226 23.0154L10.2348 25.6318L9.53668 25.7083L8.76206 18.77L10.4077 18.5872C10.6771 18.5379 10.9538 18.5456 11.2201 18.6097C11.4863 18.6738 11.7362 18.793 11.9536 18.9595C12.3702 19.3401 12.6209 19.8689 12.6517 20.4323C12.6982 20.7251 12.6863 21.0241 12.6167 21.3123C12.547 21.6004 12.4211 21.8719 12.2461 22.1112C12.0661 22.3456 11.838 22.5387 11.5771 22.6775C11.3161 22.8162 11.0285 22.8975 10.7335 22.9157L9.94226 23.0154ZM9.54331 19.4349L9.87577 22.2774L10.6072 22.1943C10.8095 22.1852 11.008 22.1355 11.1908 22.0482C11.3736 21.9608 11.5369 21.8375 11.671 21.6856C11.7881 21.5244 11.8711 21.3411 11.9152 21.1468C11.9592 20.9525 11.9632 20.7512 11.927 20.5553C11.8306 19.6411 11.3053 19.2255 10.3744 19.3419L9.54331 19.4349Z" fill="white"/>
<path d="M17.4889 24.8273L14.3206 25.183L13.5493 18.2448L16.5813 17.9123L16.6677 18.647L14.3406 18.903L14.5966 21.2302L16.7575 20.9908L16.8406 21.7222L14.6797 21.9616L14.9556 24.3885L17.4224 24.1159L17.4889 24.8273Z" fill="white"/>
<path d="M22.6751 23.9563C22.2052 24.2982 21.649 24.502 21.0694 24.5447C20.6792 24.5992 20.2817 24.5621 19.9083 24.4363C19.535 24.3105 19.1961 24.0995 18.9184 23.82C18.2991 23.1605 17.9288 22.3059 17.8712 21.4031C17.7188 20.4377 17.9194 19.4498 18.4364 18.6204C18.6615 18.2628 18.9661 17.9618 19.3265 17.741C19.6869 17.5202 20.0933 17.3854 20.5142 17.3471C20.9971 17.271 21.4914 17.3144 21.9537 17.4735L22.0501 18.3345C21.5994 18.1076 21.0917 18.0185 20.5907 18.0785C20.2687 18.1056 19.9577 18.2086 19.6832 18.3791C19.4087 18.5495 19.1785 18.7826 19.0115 19.0593C18.6276 19.7257 18.4866 20.5047 18.6126 21.2634C18.6498 21.9899 18.9403 22.6804 19.4337 23.2149C19.6445 23.4369 19.9055 23.6049 20.1948 23.705C20.484 23.8051 20.7931 23.8343 21.096 23.7901C21.6476 23.7425 22.1705 23.524 22.592 23.165L22.6751 23.9563Z" fill="white"/>
<path d="M24.4305 17.0247L24.5036 17.7195L23.9218 17.7893L24.5435 23.3313L25.1286 23.2648L25.2018 23.9629L23.3234 24.1624L23.2503 23.4642L23.8321 23.3978L23.2071 17.8558L22.6253 17.9223L22.5521 17.2241L24.4305 17.0247Z" fill="white"/>
<path d="M30.8202 23.3379L30.0456 23.4244L29.2011 21.5527L26.6645 21.8352L26.2822 23.8466L25.501 23.9297L27.0236 16.7421L27.745 16.6557L30.8202 23.3379ZM28.8853 20.8379L27.612 17.9855C27.5525 17.8376 27.5047 17.6853 27.4691 17.53H27.4524C27.4476 17.688 27.4343 17.8455 27.4125 18.0021L26.8141 21.0606L28.8853 20.8379Z" fill="white"/>
<path d="M34.803 22.8891L31.7012 23.2382L30.9299 16.2999L31.6247 16.2235L32.3162 22.427L34.7198 22.1577L34.803 22.8891Z" fill="white"/>
<path d="M14.6279 3.19336L9.073 14.2592L9.63716 14.5433L15.0792 3.50685C14.9311 3.4793 14.8112 3.39305 14.6279 3.19336Z" fill="#092042"/>
<path d="M16.8529 2.97421C16.7594 3.09897 16.6341 3.23084 16.4583 3.37026C16.2824 3.50968 27.1463 12.9838 27.1463 12.9838L27.5715 12.5167L16.8529 2.97421Z" fill="#092042"/>
<path d="M17.0966 2.17077C17.0966 2.4568 17.0118 2.73639 16.8529 2.97421C16.694 3.21203 16.4681 3.39739 16.2039 3.50685C15.9396 3.6163 15.3597 3.56265 15.0792 3.50685C14.9041 3.47201 14.8301 3.39561 14.6279 3.19336C14.4256 2.99111 14.2879 2.73343 14.2321 2.4529C14.1763 2.17237 14.2049 1.8816 14.3144 1.61735C14.4238 1.3531 14.6092 1.12723 14.847 0.968327C15.0848 0.809421 15.3644 0.724609 15.6504 0.724609C15.8404 0.724609 16.0284 0.762013 16.2039 0.834689C16.3793 0.907366 16.5388 1.01389 16.673 1.14818C16.8073 1.28247 16.9139 1.44189 16.9865 1.61735C17.0592 1.79281 17.0966 1.98086 17.0966 2.17077Z" fill="#092042"/>
<path d="M16.4583 2.17077C16.4583 2.33055 16.4109 2.48674 16.3222 2.61959C16.2334 2.75244 16.1072 2.85599 15.9596 2.91713C15.812 2.97828 15.6495 2.99427 15.4928 2.9631C15.3361 2.93193 15.1922 2.85499 15.0792 2.74201C14.9662 2.62903 14.8893 2.48508 14.8581 2.32837C14.8269 2.17167 14.8429 2.00923 14.9041 1.86162C14.9652 1.714 15.0688 1.58783 15.2016 1.49906C15.3345 1.41029 15.4907 1.36292 15.6504 1.36292C15.8642 1.36466 16.0686 1.45032 16.2198 1.60145C16.3709 1.75258 16.4565 1.95705 16.4583 2.17077Z" fill="#F47D21"/>
</svg>
