<svg width="19" height="18" viewBox="0 0 19 18" fill="none" xmlns="http://www.w3.org/2000/svg">
<path d="M9.5 17.5254C14.1944 17.5254 18 13.7198 18 9.02539C18 4.33097 14.1944 0.525391 9.5 0.525391C4.80558 0.525391 1 4.33097 1 9.02539C1 13.7198 4.80558 17.5254 9.5 17.5254Z" stroke="#F47D21" stroke-width="0.7"/>
<path d="M9.4999 16.4295C13.5886 16.4295 16.9031 13.115 16.9031 9.02627C16.9031 4.93758 13.5886 1.62305 9.4999 1.62305C5.41122 1.62305 2.09668 4.93758 2.09668 9.02627C2.09668 13.115 5.41122 16.4295 9.4999 16.4295Z" stroke="#F47D21" stroke-width="0.7"/>
<path d="M2.37085 11.055C2.7273 10.9727 3.08375 10.9453 3.46762 10.9453C6.18214 10.9453 8.40311 12.9743 8.40311 15.4695C8.40311 15.7711 8.37569 16.0453 8.32085 16.3195" stroke="#F47D21" stroke-width="0.7"/>
<path d="M16.8759 8.36707C14.9839 7.07836 12.3791 6.2832 9.50007 6.2832C6.62104 6.2832 4.0162 7.07836 2.12427 8.36707" stroke="#F47D21" stroke-width="0.7"/>
<path d="M10.6789 16.3195C10.6241 16.0453 10.5967 15.7437 10.5967 15.4695C10.5967 12.9743 12.8176 10.9453 15.5322 10.9453C15.916 10.9453 16.2725 10.9727 16.6289 11.055" stroke="#F47D21" stroke-width="0.7"/>
<path d="M9.50007 9.84829C9.95437 9.84829 10.3227 9.48 10.3227 9.02571C10.3227 8.57141 9.95437 8.20312 9.50007 8.20312C9.04577 8.20312 8.67749 8.57141 8.67749 9.02571C8.67749 9.48 9.04577 9.84829 9.50007 9.84829Z" stroke="#F47D21" stroke-width="0.7"/>
</svg>
