<svg width="20" height="21" viewBox="0 0 20 21" fill="none" xmlns="http://www.w3.org/2000/svg">
<circle cx="10" cy="9.52539" r="8" stroke="#F47D21" stroke-width="0.7"/>
<path d="M4.35179 11.3538C4.03694 10.4888 3.93129 9.56152 4.04348 8.64782C4.15567 7.73412 4.48251 6.85994 4.99728 6.09676C5.51205 5.33358 6.20014 4.70307 7.00528 4.25677C7.81042 3.81048 8.70976 3.56107 9.62976 3.52894C10.5498 3.49682 11.4643 3.68289 12.2986 4.07193C13.1329 4.46098 13.8633 5.04196 14.4301 5.76738C14.9968 6.49279 15.3838 7.34204 15.5595 8.24569C15.7351 9.14933 15.6944 10.0817 15.4407 10.9666" stroke="#F47D21" stroke-width="0.7" stroke-linecap="round" stroke-linejoin="round" stroke-dasharray="5 5"/>
<path d="M11.7756 7.55954L10.5274 8.31329C10.0853 8.57319 9.61728 8.80711 9.17525 9.01504C9.04522 9.06703 8.8892 9.14501 8.73318 9.22298C8.18712 9.50889 7.90107 10.1067 8.0311 10.7045C8.1351 11.1723 8.52515 11.5622 8.99321 11.6661C9.09721 11.6921 9.20124 11.6921 9.30524 11.6921C9.79929 11.6921 10.2414 11.4062 10.4754 10.9644C10.5274 10.8344 10.6054 10.6785 10.6834 10.5225C10.9174 10.0806 11.1255 9.61281 11.3855 9.17099L12.1396 7.92342C12.1916 7.81947 12.1656 7.71549 12.0876 7.61153C12.0096 7.50755 11.8796 7.50755 11.7756 7.55954ZM10.9434 8.88508C10.6574 9.35291 10.4234 9.82075 10.2154 10.2886C10.1633 10.4445 10.0853 10.5745 10.0073 10.7304C9.85131 11.0683 9.48726 11.2243 9.12323 11.1463C8.83719 11.0943 8.60316 10.8604 8.55117 10.5745C8.47316 10.2106 8.62918 9.84676 8.96721 9.69082C9.09724 9.61284 9.25326 9.56085 9.40928 9.48288C9.87733 9.24896 10.3714 9.01504 10.8134 8.75514L11.1515 8.54721L10.9434 8.88508Z" fill="#F47D21"/>
</svg>
