<svg width="24" height="25" viewBox="0 0 24 25" fill="none" xmlns="http://www.w3.org/2000/svg">
<g clip-path="url(#clip0_2091_15366)">
<path d="M23.21 12.4454C23.2098 12.4054 23.2088 12.3657 23.2082 12.3258C23.2076 12.2712 23.207 12.2166 23.2058 12.1622C23.2055 12.1487 23.2051 12.1353 23.2047 12.1219C23.1284 8.84758 22.1271 5.89497 20.5604 3.78845C19.1677 1.90595 17.3277 0.692125 15.29 0.525391C15.25 0.525391 15.25 0.525391 15.21 0.525391C15.1814 0.527922 15.1531 0.531625 15.1246 0.534672C15.0202 0.529141 14.9154 0.525391 14.81 0.525391H9.21006C7.12961 0.525391 5.22639 1.61158 3.75934 3.40422C3.71762 3.43989 3.68312 3.48278 3.65711 3.53125C1.91143 5.73442 0.810059 8.95394 0.810059 12.5254C0.810059 19.1254 4.57004 24.5254 9.21006 24.5254H14.8101C14.9242 24.5254 15.0375 24.5212 15.1505 24.5147C15.1837 24.5183 15.2168 24.5224 15.25 24.5254C19.09 24.2054 22.2901 20.2854 23.05 14.8854C23.0544 14.8436 23.0588 14.8013 23.0632 14.7593C23.1592 14.0349 23.21 13.2883 23.21 12.5254V12.4454ZM9.98035 18.8231C9.97187 18.7767 9.9541 18.733 9.92832 18.6941C9.21953 16.9236 8.81003 14.8037 8.81003 12.5254C8.81003 6.62008 11.5983 1.77578 15.1514 1.33727C19.1927 1.60155 22.4101 6.53322 22.4101 12.5254C22.4101 18.5179 19.1923 23.4498 15.1507 23.7136C12.9785 23.4485 11.1144 21.572 9.98035 18.8231ZM2.10779 16.5089C2.19521 16.4816 2.28264 16.4237 2.37006 16.3654L2.89004 15.5654L3.73004 16.4054C3.89003 16.5654 4.13003 16.5654 4.29006 16.4054L5.21007 15.4854L6.17007 16.4454C6.33006 16.6053 6.57006 16.6053 6.73009 16.4454L7.69009 15.4854L8.34742 16.0735C8.48687 16.7871 8.66725 17.4725 8.88479 18.1227L8.17014 17.7654C7.97012 17.6454 7.77015 17.7254 7.65015 17.8854L7.13017 18.6854L6.29017 17.8454C6.13018 17.6854 5.89018 17.6854 5.73015 17.8454L4.81004 18.7654L3.89003 17.8454C3.73004 17.6854 3.49004 17.6854 3.33001 17.8454L2.75251 18.4229C2.49826 17.8202 2.28175 17.1799 2.10779 16.5089ZM1.61176 12.7223L2.61006 13.2854C2.77004 13.3654 2.97006 13.3254 3.09006 13.2054L4.01007 12.2854L4.97007 13.2054C5.13006 13.3654 5.37006 13.3654 5.53009 13.2054L6.49009 12.2454L8.02117 13.1712C8.04043 13.7464 8.08496 14.3112 8.15364 14.8623L7.85007 14.6054C7.69009 14.4854 7.45009 14.5254 7.33009 14.6454L6.41007 15.5654L5.49006 14.6454C5.33007 14.4854 5.09007 14.4854 4.93004 14.6454L4.01003 15.5654L3.09001 14.6454C3.01 14.5654 2.89 14.5254 2.77 14.5254C2.65 14.5254 2.53 14.6054 2.44998 14.6854L1.88809 15.5282C1.71859 14.6322 1.62315 13.6917 1.61176 12.7223ZM2.9184 6.25098L3.81001 6.84541C3.93001 6.92542 4.13003 6.92542 4.25003 6.84541L5.21003 6.20542L6.21001 6.88544C6.33001 6.96545 6.53003 6.96545 6.65003 6.88544L7.65001 6.20542L8.92459 6.8245C8.71426 7.4373 8.53679 8.0815 8.39584 8.7513L7.88996 8.24542C7.72998 8.08544 7.48998 8.08544 7.32995 8.24542L6.40993 9.16544L5.48992 8.24542C5.32993 8.08544 5.08993 8.08544 4.9299 8.24542L4.01003 9.16539L3.09001 8.24537C3.01 8.16536 2.93003 8.12537 2.81003 8.12537C2.69003 8.12537 2.61001 8.16536 2.53004 8.24537L2.05961 8.73208C2.27612 7.84881 2.5659 7.01631 2.9184 6.25098ZM4.20639 4.10308L6.73004 3.36541L7.77006 4.04542C7.89006 4.12544 8.09007 4.12544 8.21007 4.04542L9.21006 3.36541L10.3257 3.90733C9.89668 4.56437 9.5169 5.2998 9.19525 6.09803L7.73007 5.36542C7.61007 5.32544 7.45009 5.32544 7.33009 5.40541L6.37009 6.04539L5.41009 5.40541C5.29009 5.32539 5.09007 5.32539 4.97007 5.40541L4.01007 6.04539L3.28079 5.52883C3.56059 5.01475 3.87034 4.53742 4.20639 4.10308ZM6.61004 11.4054C6.45006 11.3254 6.25004 11.3654 6.13004 11.4854L5.21003 12.4054L4.29001 11.4854C4.13003 11.3254 3.89003 11.3254 3.73 11.4854L2.73001 12.4854L1.62432 11.8488C1.6487 11.2506 1.70504 10.6648 1.79106 10.095C1.8407 10.075 1.89029 10.0451 1.93004 10.0054L2.81003 9.08542L3.73004 10.0054C3.89003 10.1654 4.13003 10.1654 4.29006 10.0054L5.21007 9.08537L6.13009 10.0054C6.29007 10.1654 6.53007 10.1654 6.6901 10.0054L7.61012 9.08537L8.1301 9.60536C8.15992 9.63517 8.19254 9.65941 8.22686 9.67811C8.09875 10.5054 8.0251 11.3649 8.01226 12.2467L6.61004 11.4054ZM12.8702 1.32541C12.1036 1.79664 11.3987 2.45725 10.7772 3.26898L9.37004 2.56539C9.25004 2.52541 9.09006 2.52541 8.97006 2.60538L8.01006 3.24536L7.05006 2.60538C6.93006 2.52536 6.81006 2.52536 6.69006 2.52536L5.30392 2.92141C6.44518 1.90914 7.78121 1.32536 9.21006 1.32536L12.8702 1.32541ZM3.10614 19.1893L3.61004 18.6854L4.53006 19.6054C4.69004 19.7654 4.93004 19.7654 5.09007 19.6054L6.01004 18.6854L6.93006 19.6054C7.01007 19.6854 7.09004 19.7254 7.21004 19.7254C7.37003 19.7254 7.49003 19.6454 7.53006 19.5254L8.13006 18.6054L9.28534 19.183C9.58618 19.8933 9.93404 20.5506 10.3226 21.1436L9.57001 21.6454L8.61001 21.0054C8.49001 20.9254 8.29 20.9254 8.17 21.0054L7.21004 21.6454L6.25004 21.0054C6.13004 20.9254 5.93003 20.9254 5.81003 21.0054L4.82153 21.6644C4.165 20.9774 3.58562 20.1409 3.10614 19.1893ZM9.21006 23.7254C7.82082 23.7254 6.51929 23.1736 5.39921 22.2126L6.01004 21.8054L7.01003 22.4454C7.13003 22.5254 7.33004 22.5254 7.45004 22.4454L8.41004 21.8054L9.33006 22.4854C9.45006 22.5654 9.65007 22.5654 9.77007 22.4854L10.7927 21.8037C11.4135 22.6061 12.1177 23.2587 12.8841 23.7254L9.21006 23.7254Z" fill="#333333"/>
<path d="M15.6101 3.72461C13.5391 3.72461 11.8029 6.04183 11.1206 9.36513C11.1165 9.38463 11.1125 9.40417 11.1086 9.42372C11.0903 9.5148 11.0727 9.60648 11.0559 9.69897C11.0502 9.73066 11.0448 9.76253 11.0393 9.79431C11.028 9.85933 11.0171 9.92467 11.0066 9.99034C10.9996 10.0342 10.9926 10.078 10.986 10.1221C10.9749 10.1954 10.9644 10.2692 10.9544 10.3435C10.9483 10.3881 10.9425 10.4329 10.9368 10.4777C10.9284 10.5444 10.9204 10.6115 10.9128 10.6788C10.9066 10.7332 10.9008 10.7876 10.8952 10.8422C10.8889 10.9035 10.8829 10.965 10.8774 11.0268C10.8737 11.0671 10.87 11.1073 10.8666 11.1477C10.8592 11.2369 10.8525 11.3266 10.8466 11.4167C10.8444 11.4503 10.8424 11.484 10.8404 11.5177C10.8357 11.5971 10.8314 11.677 10.8278 11.7571C10.8267 11.7804 10.8254 11.8036 10.8245 11.8269C10.8203 11.9272 10.8173 12.0282 10.815 12.1295C10.8144 12.1555 10.8139 12.1814 10.8134 12.2074C10.8114 12.3127 10.8101 12.4184 10.8101 12.5246C10.8101 12.631 10.8114 12.7366 10.8134 12.8418C10.8139 12.8678 10.8144 12.8938 10.815 12.9198C10.8173 13.0211 10.8204 13.122 10.8245 13.2224C10.8254 13.2457 10.8267 13.2689 10.8278 13.2922C10.8314 13.3723 10.8357 13.4521 10.8404 13.5316C10.8424 13.5652 10.8444 13.5989 10.8466 13.6325C10.8526 13.7227 10.8592 13.8123 10.8666 13.9015C10.87 13.942 10.8737 13.9822 10.8774 14.0225C10.883 14.0843 10.8889 14.1457 10.8952 14.207C10.9008 14.2616 10.9066 14.3161 10.9128 14.3705C10.9204 14.4378 10.9284 14.5049 10.9368 14.5716C10.9425 14.6164 10.9483 14.6612 10.9544 14.7058C10.9644 14.78 10.9749 14.8538 10.986 14.9271C10.9926 14.9712 10.9996 15.0151 11.0067 15.0589C11.0172 15.1246 11.028 15.1899 11.0393 15.2549C11.0448 15.2867 11.0502 15.3186 11.0559 15.3503C11.0726 15.4427 11.0902 15.5344 11.1085 15.6255C11.1124 15.6451 11.1165 15.6646 11.1205 15.6842C11.8028 19.0075 13.5391 21.3246 15.6101 21.3246C18.29 21.3246 20.4101 17.4446 20.4101 12.5246C20.4101 7.60464 18.2901 3.72461 15.6101 3.72461ZM11.6634 13.7897C11.6613 13.765 11.659 13.7404 11.657 13.7156C11.6541 13.6789 11.6517 13.642 11.649 13.6052C11.6453 13.5533 11.6418 13.5014 11.6386 13.4493C11.6368 13.4198 11.635 13.3904 11.6334 13.3609C11.6289 13.2796 11.6249 13.1981 11.6217 13.1163C11.6211 13.1014 11.6208 13.0864 11.6202 13.0716C11.6176 12.9993 11.6156 12.9268 11.614 12.8541C11.6134 12.8307 11.613 12.8074 11.6126 12.784C11.6111 12.6978 11.6101 12.6114 11.6101 12.5246C11.6101 12.4491 11.611 12.3737 11.6119 12.2984C11.6341 10.8063 11.8751 9.39813 12.271 8.20056C12.8584 9.20266 13.2101 10.7853 13.2101 12.5246C13.2101 14.2639 12.8584 15.8465 12.271 16.8487C11.9684 15.9333 11.7564 14.8947 11.6634 13.7897ZM15.6101 20.5246C14.4336 20.5246 13.3521 19.4326 12.611 17.7402C13.4583 16.6991 14.0101 14.7156 14.0101 12.5246C14.0101 10.3336 13.4582 8.35005 12.611 7.30895C13.352 5.61658 14.4335 4.52458 15.6101 4.52458C17.7701 4.52458 19.6101 8.20459 19.6101 12.5246C19.6101 16.8446 17.7701 20.5246 15.6101 20.5246Z" fill="#333333"/>
</g>
<defs>
<clipPath id="clip0_2091_15366">
<rect width="24" height="24" fill="white" transform="translate(0 0.525391)"/>
</clipPath>
</defs>
</svg>
