<svg width="20" height="21" viewBox="0 0 20 21" fill="none" xmlns="http://www.w3.org/2000/svg">
<path d="M5 4.02539C5 4.85382 4.32843 5.52539 3.5 5.52539C2.67157 5.52539 2 4.85382 2 4.02539C2 3.19696 2.67157 2.52539 3.5 2.52539C4.32843 2.52539 5 3.19696 5 4.02539Z" stroke="#F47D21" stroke-width="0.7"/>
<path d="M5 16.0254C5 16.8538 4.32843 17.5254 3.5 17.5254C2.67157 17.5254 2 16.8538 2 16.0254C2 15.1969 2.67157 14.5254 3.5 14.5254C4.32843 14.5254 5 15.1969 5 16.0254Z" stroke="#F47D21" stroke-width="0.7"/>
<path d="M12 16.0254C12 16.8538 11.1046 17.5254 10 17.5254C8.8954 17.5254 8 16.8538 8 16.0254C8 15.1969 8.8954 14.5254 10 14.5254C11.1046 14.5254 12 15.1969 12 16.0254Z" stroke="#F47D21" stroke-width="0.7"/>
<path d="M12 4.02539C12 4.85382 11.1046 5.52539 10 5.52539C8.8954 5.52539 8 4.85382 8 4.02539C8 3.19696 8.8954 2.52539 10 2.52539C11.1046 2.52539 12 3.19696 12 4.02539Z" stroke="#F47D21" stroke-width="0.7"/>
<path d="M18 4.02539C18 4.85382 17.3284 5.52539 16.5 5.52539C15.6716 5.52539 15 4.85382 15 4.02539C15 3.19696 15.6716 2.52539 16.5 2.52539C17.3284 2.52539 18 3.19696 18 4.02539Z" stroke="#F47D21" stroke-width="0.7"/>
<path d="M10 5.52539V10.7754M10 14.5254V13.0254" stroke="#F47D21" stroke-width="0.7" stroke-linecap="round"/>
<path d="M4 14.5254V9.27539M4 5.52539V7.02539" stroke="#F47D21" stroke-width="0.7" stroke-linecap="round"/>
<path d="M16 5.52539V7.19206C16 8.76341 16 9.54906 15.524 10.0372C15.0481 10.5254 14.2821 10.5254 12.75 10.5254H7.875M3 10.5254H4.625" stroke="#F47D21" stroke-width="0.7" stroke-linecap="round"/>
<path d="M14.5454 12.143V11.5254C14.2442 11.5254 14 11.8019 14 12.143H14.5454ZM14 17.9077C14 18.2488 14.2442 18.5253 14.5454 18.5253C14.8467 18.5253 15.0909 18.2488 15.0909 17.9077H14ZM16.9893 18.2302C17.1466 18.5211 17.4824 18.6125 17.7393 18.4344C17.9962 18.2564 18.077 17.8761 17.9196 17.5852L16.9893 18.2302ZM14.5454 12.7607H16.2077V11.5254H14.5454V12.7607ZM15.0909 15.0254V12.143H14V15.0254H15.0909ZM16.909 13.5842C16.909 14.051 16.5845 14.4077 16.2077 14.4077V15.643C17.2081 15.643 17.9999 14.7092 17.9999 13.5842H16.909ZM16.2077 12.7607C16.5845 12.7607 16.909 13.1173 16.909 13.5842H17.9999C17.9999 12.4592 17.2081 11.5254 16.2077 11.5254V12.7607ZM16.2077 14.4077H15.896V15.643H16.2077V14.4077ZM15.896 14.4077H14.5454V15.643H15.896V14.4077ZM15.4309 15.3478L16.9893 18.2302L17.9196 17.5852L16.3613 14.7029L15.4309 15.3478ZM14 15.0254V17.9077H15.0909V15.0254H14Z" fill="#F47D21"/>
</svg>
