<svg width="24" height="25" viewBox="0 0 24 25" fill="none" xmlns="http://www.w3.org/2000/svg">
<path d="M2 10.5252V14.5252C2 16.5252 3 17.5252 5 17.5252H6.43C6.8 17.5252 7.17 17.6352 7.49 17.8252L10.41 19.6552C12.93 21.2352 15 20.0852 15 17.1152V7.93518C15 4.95518 12.93 3.81518 10.41 5.39518L7.49 7.22518C7.17 7.41518 6.8 7.52518 6.43 7.52518H5C3 7.52518 2 8.52518 2 10.5252Z" stroke="#333333"/>
<path d="M18 8.52539C19.78 10.8954 19.78 14.1554 18 16.5254" stroke="#333333" stroke-linecap="round" stroke-linejoin="round"/>
<path d="M19.8301 6.02539C22.7201 9.87539 22.7201 15.1754 19.8301 19.0254" stroke="#333333" stroke-linecap="round" stroke-linejoin="round"/>
</svg>
