<svg width="21" height="20" viewBox="0 0 21 20" fill="none" xmlns="http://www.w3.org/2000/svg">
<path fill-rule="evenodd" clip-rule="evenodd" d="M1.5 9.99993C1.5 5.03698 5.53698 1 10.4999 1V1.00015H10.5052C15.4681 1.00015 19.5051 5.03713 19.5051 10.0001C19.5051 14.9629 15.4681 19 10.5052 19C8.67444 19 6.97602 18.4551 5.55281 17.5133L2.09252 18.6189L3.21424 15.2751C2.13493 13.7935 1.5 11.9682 1.5 9.99993ZM7.41537 5.12697C7.67983 5.13772 7.81213 5.15355 7.98669 5.57151C8.04308 5.70761 8.12055 5.89555 8.20544 6.1015C8.44721 6.688 8.74921 7.42063 8.79617 7.51855C8.85964 7.65085 8.92325 7.83079 8.83321 8.00535C8.75444 8.17273 8.68486 8.25315 8.56902 8.38702C8.56034 8.39705 8.5514 8.40738 8.54217 8.41808C8.48555 8.48377 8.42992 8.54266 8.37442 8.60139C8.30025 8.6799 8.22633 8.75814 8.15065 8.85201C8.14853 8.8545 8.14641 8.85699 8.14428 8.85949C8.02439 9.00016 7.89409 9.15303 8.04492 9.41288C8.19828 9.6721 8.72734 10.5345 9.50517 11.2275C10.4283 12.0484 11.1907 12.3567 11.5345 12.4957C11.5652 12.5081 11.5925 12.5192 11.6163 12.5291C11.8331 12.6192 12.0925 12.598 12.2512 12.4286C12.4233 12.2432 12.6301 11.953 12.8453 11.6511C12.8817 11.6001 12.9183 11.5487 12.955 11.4974C13.1348 11.2434 13.3622 11.2116 13.6004 11.3015C13.8438 11.3862 15.1296 12.0211 15.3941 12.1534C15.4481 12.1805 15.4983 12.2046 15.5447 12.2269C15.7252 12.3137 15.8462 12.3719 15.8967 12.4603C15.9603 12.5714 15.9603 13.0952 15.7433 13.7091C15.5264 14.3227 14.6639 14.8308 13.9761 14.9789C13.5053 15.0794 12.8914 15.1589 10.8227 14.3018C8.37233 13.2871 6.72987 10.9063 6.3958 10.422C6.3692 10.3835 6.35089 10.3569 6.34113 10.3441C6.33741 10.3389 6.333 10.3329 6.32792 10.326C6.15983 10.0962 5.27242 8.88288 5.27242 7.62965C5.27242 6.37479 5.89226 5.74487 6.16985 5.46276C6.17786 5.45463 6.18559 5.44677 6.193 5.43921C6.40997 5.21701 6.76969 5.11652 7.11374 5.11652C7.21436 5.11702 7.31495 5.1205 7.41537 5.12697Z" fill="white"/>
</svg>
