<svg width="20" height="21" viewBox="0 0 20 21" fill="none" xmlns="http://www.w3.org/2000/svg">
<path d="M2.85108 6.30469H17.1534C17.9534 6.30469 18.6092 6.9605 18.6092 7.7605V12.2907C18.6092 13.0907 17.9534 13.7465 17.1534 13.7465H2.85108C2.05108 13.7512 1.39526 13.0954 1.39526 12.2954V7.7605C1.39526 6.9605 2.05108 6.30469 2.85108 6.30469Z" stroke="#F47D21" stroke-width="0.7" stroke-miterlimit="10" stroke-linecap="round" stroke-linejoin="round"/>
<path d="M6.16286 8.69922L3.79077 11.3876" stroke="#F47D21" stroke-width="0.7" stroke-miterlimit="10" stroke-linecap="round" stroke-linejoin="round"/>
<path d="M3.79077 8.69922L6.16286 11.3876" stroke="#F47D21" stroke-width="0.7" stroke-miterlimit="10" stroke-linecap="round" stroke-linejoin="round"/>
<path d="M7.11157 10.1465H8.46041" stroke="#F47D21" stroke-width="0.7" stroke-miterlimit="10" stroke-linecap="round" stroke-linejoin="round"/>
<path d="M12.5627 9.52843L13.4186 8.66797V11.3889" stroke="#F47D21" stroke-width="0.7" stroke-miterlimit="10" stroke-linecap="round" stroke-linejoin="round"/>
<path d="M10.1255 9.52843L10.986 8.66797V11.3889" stroke="#F47D21" stroke-width="0.7" stroke-miterlimit="10" stroke-linecap="round" stroke-linejoin="round"/>
<path d="M14.9302 8.68164H16.2185L15.479 11.37" stroke="#F47D21" stroke-width="0.7" stroke-miterlimit="10" stroke-linecap="round" stroke-linejoin="round"/>
<path d="M2.80005 12.3789H2.8047" stroke="#F47D21" stroke-width="0.7" stroke-miterlimit="10" stroke-linecap="round" stroke-linejoin="round"/>
<path d="M2.80469 7.63867H2.80934" stroke="#F47D21" stroke-width="0.7" stroke-miterlimit="10" stroke-linecap="round" stroke-linejoin="round"/>
<path d="M17.0139 12.3789H17.0186" stroke="#F47D21" stroke-width="0.7" stroke-miterlimit="10" stroke-linecap="round" stroke-linejoin="round"/>
<path d="M17.0139 7.63867H17.0186" stroke="#F47D21" stroke-width="0.7" stroke-miterlimit="10" stroke-linecap="round" stroke-linejoin="round"/>
</svg>
